<svg width="100" height="100" viewBox="0 0 100 100" fill="none" xmlns="http://www.w3.org/2000/svg">
<path d="M41.8 32.3C41.6 32.1 41.3 31.9 41.5 31.2C41.5 31.3 41.4 31.4 41.3 31.5C41.2 31.8 40.8 32 40.7 31.8C40.7 32 40.7 32.2 40.6 32.4C40.6 32.5 40.5 32.6 40.5 32.7C40.5 32.8 40.5 32.9 40.8 33.1C40.8 33.8 40.1 34.3 40.1 33.5L39.7 35.4L40.3 34.4C40.7 34.9 39.4 36 39.8 36.6L40.6 34.7L40.7 34.9C40.7 34.4 41.2 33.6 41.4 33.4C41.5 33.5 41.6 33.5 41.5 33.9C41.8 33.3 41.9 33 41.9 32.8C42 32.5 41.9 32.4 41.8 32.3Z" fill="#fff"/>
<path d="M40.4 73.7C40.1 73.7 39.8 73.7 39.8 73.7C40.9 74.4 40.9 73.7 42.1 74.2C41.7 74.1 41.5 74.2 41.4 74.3C41.4 74.3 41.7 74.4 42.1 74.6C42.5 74.8 43 74.9 43.5 75.1C44.4 75.4 45.3 75.8 45.3 75.8C45.3 75.6 44.3 74.9 45.1 75C44.9 74.6 43.8 74.5 43.6 74.7L44 74.5C43 74.6 42.6 73.5 43.3 73.5H43.2C43.2 73.5 42.4 73.7 41.6 73.8C41.2 73.7 40.7 73.7 40.4 73.7Z" fill="#fff"/>
<path d="M31.6 31.4C31.8 31.4 32 31.4 32.2 31.3C31.6 31.2 31.5 31.3 31.6 31.4Z" fill="#fff"/>
<path d="M38.5 73.6C38.4 73.6 38.2 73.7 38.2 73.7C38.3 73.7 38.4 73.7 38.5 73.6C38.7 73.6 38.8 73.6 38.9 73.6C39 73.6 38.7 73.6 38.5 73.6Z" fill="#fff"/>
<path d="M47.2 68.7C47.4 68.7 47.5 68.7 47.7 68.7C47.7 68.7 47.7 68.7 47.7 68.6L47.2 68.7Z" fill="#fff"/>
<path d="M56.8 68.1L57.1 67.7C57.1 67.7 56.8 67.8 56.4 67.9C56 68 55.6 68.1 55.6 68.1C55.8 67.9 55.1 67.9 55.4 67.6C55.3 67.6 54.7 67.7 54.8 67.8H55.1C54.2 68.4 54.7 68.7 53.3 69.1C54.1 69.6 54.5 69.3 55 69C55.2 69 55.3 69 55.4 68.9C55.4 68.9 55.8 68.7 56.1 68.5C56.5 68.4 56.8 68.1 56.8 68.1Z" fill="#fff"/>
<path d="M39 73.6C39 73.6 39.2 73.6 39.4 73.6C39.6 73.6 39.9 73.7 39.9 73.7C39.8 73.6 39.7 73.5 39.6 73.4C39.3 73.5 39.2 73.6 39 73.6Z" fill="#fff"/>
<path d="M42.5 73.2C42.9 73.3 43.3 73.4 43.3 73.4L44 73.3C43.4 73.2 42.7 73.1 41.8 72.9C41.7 72.9 42.1 73 42.5 73.2Z" fill="#fff"/>
<path d="M38.5 72.6C38 72.5 37.9 73.2 37.6 72.6C37.8 72.5 38.1 71.9 37.8 70.9C37.8 70.8 37.7 70.8 37.7 70.7C37.7 70.7 37.7 70.6 37.6 70.7L37.5 70.9C37.4 71.2 37.3 71.6 37.1 71.8C36.8 72.2 36.4 72.3 36.2 72.7C35.9 73.1 35.8 73.5 35.6 73.8L35.4 74.3L35.3 74.5V74.6L35.1 74.8C34.8 75 34.3 75.2 33.9 75.4C33.5 75.6 33.1 75.7 32.7 75.9C32.6 75.7 31.7 75.7 30.8 75.6C29.9 75.6 29.1 75.6 28.5 75.5C29 75 29.8 74.8 30.8 74.7C30.2 74.7 29.2 74.7 28.5 74.6L28.2 75.6C24.7 75.7 29.1 74.8 27.5 74.6C26.5 74.7 26.2 75.1 25.5 75.1C28.3 74.9 25.1 76.4 27.9 76.3C27.5 77 25.8 77 24.8 76.8C23.7 76 25.9 76.4 26.1 75.7C24.9 75.8 25.1 75.9 24.6 76.2C23.6 76 22.6 76.1 21.5 76C20.5 75.9 19.5 75.7 19 75C17.4 74.6 17.3 74.9 16.2 74.8C15.9 75.1 16.5 75.5 17.3 75.8C17.9 76.1 18.6 76.4 18.9 76.7C18.8 76.6 18.8 76.5 18.8 76.5C18.8 76.5 19.2 76.6 19.5 76.8C19.9 76.9 20.2 77 20.2 77C18.9 76.4 20.6 76.4 21.3 76.4C21.8 76.5 22.8 76.6 22.6 76.8H21.8C22.8 77.2 24 76.6 24.9 77C24.9 77.2 24.6 77.2 24.5 77.3C25.6 76.9 26.6 76.9 28 76.6C28 76.6 27.8 76.8 27.6 77C27.4 77.2 27.2 77.4 27.2 77.4C27.8 77 28.7 76.9 29.6 76.9C30.5 76.9 31.7 77.1 33 77.1C32.7 77 32.2 77 32.5 76.8C33.8 76.5 35.3 76.7 34.6 77.2C34.9 77 35.8 76.7 36 76.7C36 76.7 36.1 76.7 36.1 76.8C36.2 76.9 36.1 77 36.2 76.5C36.2 76.4 36.3 76.2 36.3 76.1C36.4 75.8 36.5 75.4 36.6 74.9C36.7 74.6 36.8 74.4 37 74.2C37.3 73.8 37.7 73.6 38.3 73.4C38.2 73.4 38.1 73.4 38 73.3C38 72.8 37.9 72.7 38.5 72.6Z" fill="#fff"/>
<path d="M19.1 77.1C19.1 77 19 77 18.9 76.9C19 77 19 77.1 19.1 77.1Z" fill="#fff"/>
<path d="M39.5 72.1C39.7 72.1 39.8 72.1 40.1 72.1C40 72.1 39.8 72 39.7 72C39.5 71.9 39.5 72 39.5 72.1Z" fill="#fff"/>
<path d="M39.5 73.1L39.3 73.2C39.4 73.3 39.4 73.3 39.4 73.4C39.5 73.3 39.5 73.2 39.5 73.1Z" fill="#fff"/>
<path d="M15.9 68L15.6 67.9C15.7 67.9 15.8 68 15.9 68Z" fill="#fff"/>
<path d="M34.7 73.7C34.8 73.7 34.9 73.6 35 73.6L35.1 73.5C35.3 73.4 35.4 73.2 35.6 73.2C35.4 73 36 72 35.2 72.8C35.3 72.7 35.2 72.7 35.3 72.6C34.8 72.4 33.9 73.4 32.7 73.5C31.9 73.3 33.8 72.9 33.1 72.9C32.3 73.2 31.2 73.1 30.4 73.2C29.6 73.2 29 73.3 29 73.8C28.1 73.9 28 73.6 27.7 73.5C27 74 25.6 73.9 24.3 73.7C23 73.5 22 73.3 21.8 73.9C22.4 74 23.4 74.1 24.3 73.9L24.2 74.8C25.5 74.9 24.4 74.1 26.2 74.2L25.7 74.1C27 73.9 29 74 30.4 74C30.2 74.3 31.3 74.3 31.2 74.8C32.3 74.7 33.5 74.4 34.1 73.8C34.2 73.8 34.5 73.7 34.7 73.7Z" fill="#fff"/>
<path d="M50.9 30.4C50.8 30.4 50.7 30.3 50.7 30.3C50.7 30.4 50.8 30.4 50.9 30.4Z" fill="#fff"/>
<path d="M76 56.8L75.9 56.5C75.8 56.6 75.9 56.7 76 56.8Z" fill="#fff"/>
<path d="M76.2 44.3C76.2 44.2 76.2 44.1 76.1 44.1C76.1 44.2 76.1 44.3 76.2 44.3Z" fill="#fff"/>
<path d="M58.4 69.3L58.3 69.5C58.4 69.4 58.4 69.4 58.4 69.3Z" fill="#fff"/>
<path d="M69.1 59.2L69 59.3C69.1 59.3 69.1 59.2 69.1 59.2Z" fill="#fff"/>
<path d="M67.6 45.7C67.4 45.7 66.9 45.8 67.2 45.4C66.6 46 66.3 46.7 67.6 45.7Z" fill="#fff"/>
<path d="M73.3 35.6C73.3 35.7 73.4 35.7 73.5 35.7C73.4 35.6 73.3 35.6 73.3 35.6Z" fill="#fff"/>
<path d="M63.7 79.4L63.5 79.7C63.7 79.5 63.7 79.4 63.7 79.4Z" fill="#fff"/>
<path d="M83.9 63.1C83.9 63.1 83.8 63.1 83.6 63.2C83.6 63.3 83.6 63.3 83.9 63.1Z" fill="#fff"/>
<path d="M69.7 47.1C69.4 47.3 69 47.5 68.6 47.9C69.1 47.6 69.4 47.3 69.7 47.1Z" fill="#fff"/>
<path d="M84.6 51.9C84.7 52 84.7 52 84.8 52.1C84.7 51.2 84.8 49.4 84.2 49.3C84.3 49.6 83.9 51.2 83.6 50.9C83.7 51.5 83.3 52.4 83.3 52.8C83.7 51.8 83.8 52.7 83.9 53.4C83.7 54 83.5 53.2 83.3 53.8C83.3 53.8 83.3 54.2 83.2 54.5C83.2 54.9 83.1 55.2 83.1 55.2L83.4 54L83.9 54.5V54.4C83.9 52.1 84.8 54.2 84.6 51.9Z" fill="#fff"/>
<path d="M84.8 52.1C84.8 52.2 84.9 52.4 84.9 52.5C84.9 52.2 84.9 52.1 84.8 52.1Z" fill="#fff"/>
<path d="M83.8 42.6C83.7 42.5 83.6 42.3 83.5 42.3C83.6 42.4 83.7 42.5 83.8 42.6Z" fill="#fff"/>
<path d="M46 74.2C45.7 74 45.3 73.9 45 73.7H44.8C44.9 73.9 45.9 74.6 46 74.2Z" fill="#fff"/>
<path d="M83.6 50.9C83.6 50.8 83.5 50.6 83.4 50.5C83.5 50.7 83.5 50.8 83.6 50.9Z" fill="#fff"/>
<path d="M45 64.9C45.1 64.8 45.1 64.7 45.2 64.6L45 64.9Z" fill="#fff"/>
<path d="M88.6 48.5C88.1 48 87.5 47.7 87.2 46.8C87.6 47.6 87.6 47.2 87.6 46.5C87.6 45.8 87.5 44.8 87.5 44.4C87.1 43.7 86.5 43.1 86 42.5C85.5 41.9 84.9 41.2 84.3 40.3C84.4 39.6 85.1 39 84 37.8C84 37.8 83.7 37.7 83.5 37.6C83.2 37.5 82.9 37.4 82.9 37.4C82.3 36.9 81.5 36.4 80.7 36C79.9 35.6 79.2 35.4 78.8 35H79C78.2 34.5 77.7 34.6 77.6 34.7C77.5 34.9 77.8 35.1 78.4 35.4C78.4 35.4 78 35.4 77.6 35.3C77.4 35.3 77.2 35.3 77 35.3C76.8 35.3 76.7 35.3 76.7 35.3V35.1C75.6 35.1 74.6 35.3 73.6 35.7C72.7 36 72.2 36.4 71.4 36.7C71.6 36.4 71.4 36.2 71.3 36C71.2 35.8 71.2 35.7 71.8 35.4C71.4 35.8 71.9 35.9 72 36.1C72.2 36.1 72.5 35.9 72.7 35.8C73 35.6 73.2 35.4 73.3 35.4C73.2 35.3 73.2 35 73.2 34.8C73.2 34.7 73.3 34.5 73.3 34.4C73.4 34.3 73.5 34.1 73.7 34C72.6 34.5 72.2 34.6 71.6 34.9C71 35.2 70.4 35.6 70 36.5C69.6 36.7 69.1 37 68.6 37.4C68.4 37.5 68.3 37.6 68.1 37.8L67.9 38L67.8 38.1C67.8 38.1 67.8 38.1 67.7 38.1V38C67.7 37.8 67.7 37.5 67.8 37.2C67.8 37.1 67.8 36.9 67.9 36.8C67.9 36.9 67.8 37 67.7 37.2C67.8 36.8 68.3 35.5 68.3 35.5L68.4 35.6C68.4 35.6 68.5 35.3 68.6 35C68.7 34.7 68.8 34.5 68.8 34.5C69 34.2 69.2 34.2 69.3 34.4C69.4 34.4 69.2 34.8 69.1 34.7C69.5 34.7 69.3 34 69.8 33.8C69.7 34 69.8 34 69.8 34.1C70 33.6 69.9 33.6 69.8 33.5C69.7 33.4 69.7 33.3 70.1 32.8C69.7 33 69.2 32.6 69.6 31.9C69.9 32 69.5 31.4 70.1 31.4C70 31.4 70 31.4 69.9 31.2C69.9 31.1 69.8 31 69.8 30.8C69.8 30.6 69.7 30.4 69.7 30.3C69.6 29.9 69.5 29.6 69.4 29.3C69.4 29.2 69.3 29.2 69.3 29.1V29L69.2 28.7C69.2 28.7 69.1 28.6 69 28.6C69 28.6 69.1 28.6 69.1 28.7L69.2 29V29.1C69.3 29.3 69.4 29.4 69.4 29.6C69.5 30 69.6 30.5 69.7 30.8C69.5 30.3 69.3 30.1 69.1 29.8C69 29.7 68.9 29.5 68.8 29.3L68.7 29.2C68.6 29.1 68.6 29 68.5 28.9C68.5 28.8 68.4 28.8 68.4 28.7C68.4 28.6 68.5 28.6 68.5 28.6C68.3 28.4 68.2 28.4 67.9 28.2C67.7 28.1 67.5 28.1 67.3 28C67.3 28 67.2 28 67.2 27.9C67.1 27.7 66.9 27.6 66.8 27.5C66.7 27.5 66.7 27.6 66.6 27.6C66.3 27.4 66.1 27.1 65.6 26.7C65.6 26.7 65.6 26.7 65.5 26.6L65.8 26.3C66 26.5 65.8 27 66.3 26.9L66 26.6V27C65.8 26.8 65.3 26.7 65.4 26.4C65 26.4 64.5 26.6 64.2 26.1L64.3 26C64.2 26 64.1 26 64 26C63.9 26 63.9 25.9 63.9 25.9C63.8 25.8 63.8 25.5 63.8 25.3C63.9 25.3 64 25.3 64.2 25.3C64.4 25.3 64.6 25.4 64.9 25.5C64.9 25.6 64.8 25.7 64.7 25.8C64.9 26.2 65.3 25.8 65.6 25.9C65.5 25.8 65.5 25.8 65.4 25.7C65.6 25.8 65.7 25.8 65.9 25.9C66.4 26.1 66.8 26.2 66.6 26C66.4 26 65.7 25.5 64.9 25C64.6 24.8 64.3 24.6 64 24.5C64 24.4 64 24.4 64 24.3C64 24 64 23.8 64 23.8C63.2 23.4 62.9 22.7 61.9 22.5L62.1 22.3C62.1 22.2 62 22.2 62 22.2C61 20.7 60 22.7 59 22.3C59.3 21.6 58.4 22.2 58.7 21.5C59 21.7 59.1 21.4 59.1 21C58.8 21.2 58.5 21.6 58.1 21.2C58.4 20.9 58.1 20.5 58.6 20.5C58.3 20.3 58.1 20.2 57.9 20.2C57.7 20.2 57.5 20.4 57.3 20.6C56.4 21 57.3 19.7 56.5 19.9L56.7 19.7H56.2L56.3 20.1L55.7 20.4C55.3 20.7 55.7 20.9 55.6 21.2L55.8 20.7C56 20.9 56.4 20.5 56.3 20.9C55.9 20.9 55.9 21.3 55.7 21.5L56.1 21.4V21.8C56.4 21.9 56.6 22 56.9 21.7C56.8 21.5 56.6 22 56.5 21.7C56.8 21.1 57.2 21.1 57.8 21.1C57.8 21.3 57.9 21.4 57.8 21.5C57.8 21.6 57.7 21.5 57.6 21.5C57.5 21.8 57.2 21.9 57.6 22.2C57.4 22.4 57.2 22.7 57 22.9C56.7 22.7 56.3 22.7 55.9 22.9L56.2 23C56 23 55.8 23.1 55.6 23.1V23C55.5 23.1 55.4 23.1 55.3 23.2C55.1 23.2 55 23.3 54.9 23.3C55 22.7 54.8 22.4 55.3 21.9C55.3 21.9 55.1 22 54.8 22.1V22C54.8 22 54.8 21.9 54.9 21.9C55 21.9 55 21.9 55 22.1C55.3 21.5 55.1 21.3 54.8 21.2L54.6 21.7C54.4 21.4 54.3 20.9 54 21.1C54 21.1 53.7 21.5 53.5 22C53.3 22.3 53.2 22.6 53.1 22.8C52.9 22.8 52.8 22.8 52.6 22.7C52.5 22.6 52.5 22.5 52.6 22.3C52.6 22.1 52.7 22 52.8 22.1C52.8 22.2 52.8 22.2 52.8 22.3C52.9 22 52.9 21.6 52.8 21.3C53 21.4 53 21.5 53.1 21.3L52.9 21.2C53.2 21.1 53.7 20.5 53.8 20.1C53.6 20.7 53.5 20.1 53.4 19.9C53.5 19.8 53.8 19.5 53.6 19.4C53.5 19.6 52.9 19.9 53.3 20.2C53.1 20.3 52.9 20.6 52.7 20.4C52.9 20.1 52.8 19.9 52.9 19.5C52.7 19.8 52.6 20.3 52.6 20.5C52.1 20 52 18.9 51.3 19.2C51.2 19.3 51.7 19 51.6 19.4C51.1 20.1 51.1 18.6 50.6 18.9L50.7 19.6C50.6 19.7 50.3 19.8 50.2 19.9C50.2 19.7 49.8 19.2 50.1 19C49.4 18.6 49.5 20.4 48.8 20.2C49.1 20.4 49.2 20.3 49.4 20.3C49.1 20.7 49.4 20.6 49.3 21.1C49.1 20.7 48.6 21.1 48.9 20.5C48.7 20.5 48.2 20.5 48.1 20.7L48.3 20.9C48 20.9 47.7 21.4 47.6 21.8C48 21.7 47.9 20.9 48.4 20.9C49 21.3 48.3 21.4 48.7 22L49.1 21.5L48.9 21.4C48.9 20.7 49.5 21.5 49.4 20.6C49.8 21.2 49.9 20.8 50.3 21.4C50.4 21.1 50.3 21.1 50.1 21.1C50.3 21.1 50.3 20.3 50.6 20.8C50.7 20.9 50.7 20.2 50.4 20.2C50.6 20.2 50.8 20.1 51.1 20.2L50.9 19.7H51.2L51 19.4C51.5 19.3 52.1 19.5 52.3 20.2C51.8 20.7 51.1 20.4 50.8 21.3C50.9 21.6 51.2 20.7 51.2 21.4L51.4 20.9C51.6 20.8 51.9 20.6 51.9 21.1C51.5 21.4 51.3 21.8 51.1 22.3C51.1 22.4 51.1 22.5 51 22.5C50.9 22.5 50.7 22.5 50.6 22.6C50.5 22.5 50.6 22.2 50.6 22.1C50.1 21.5 49.8 23.1 49.3 22.7C49.3 22.3 48.9 22.2 49 22C48.7 21.9 48.6 22.4 48.4 22.7C48.3 22.3 48 22.6 48.1 22.2L47.9 22.9C47.7 22.7 47.4 23 47.3 22.6C47.1 22.8 47.3 23.3 47 23.1C47 23 47 22.9 47 23C46.9 22.8 46.6 22.8 46.5 23.2C46.7 23.3 46.6 23.3 46.8 23.4C46.8 23.5 46.8 23.7 46.7 23.8C46.6 23.8 46.5 23.8 46.4 23.9C46.6 23.2 46 23.3 46.1 22.9C45.6 22.9 45.4 23.6 45.2 24.2C45.1 24.2 45 24.3 44.9 24.4L45.1 24.5V24.6C44.6 24.8 43.9 24.7 43.7 25.4H43.8C43.7 25.4 43.6 25.4 43.5 25.4C43.5 25.3 43.4 25.3 43.4 25.3C43.3 24.7 43.7 25.1 43.8 24.6C43.3 24.2 43.9 24 43.7 23.6C44 23.5 44.3 23.5 44.3 23.5L44.2 23.4C44.2 23.4 43.9 23.5 43.6 23.5C43.3 23.6 43.1 23.7 43.1 23.7L43.2 23.8C43.2 23.8 43.4 23.7 43.7 23.7C43.8 24.4 43.4 24.3 43.1 24.4C43.2 24.3 43.4 24.2 43.4 24C43 24 42.6 24.1 42.3 24.2C42.1 24.2 41.8 24.3 41.7 24.5C41.6 24.6 41.5 24.6 41.4 24.7C41.3 24.8 41.2 24.8 41.1 24.9C41.1 24.8 41.1 24.8 41.1 24.8C41.1 24.9 41.1 24.9 41.1 25C41 25.1 40.9 25.1 40.8 25.2C40.5 25.2 39.9 25 40 25.4C40 25.6 40 25.7 40 25.9C40 25.9 39.9 25.9 39.9 26H40C40 26.4 39.9 26.8 39.9 27.2C39.5 26.9 39.3 27.3 39 27.4L38.9 27.2C38.7 27.2 38.6 27.5 38.3 27.6L38 27.2C37.9 27.4 37.7 27.7 37.4 27.8C37.5 28 37.7 27.8 37.8 28.2C37.9 28.1 38 28 37.8 27.8C37.9 27.7 38.1 28.1 38.4 28.2L38.1 28.7C38 28.7 38 28.7 38 28.6L38.2 29C38.1 29.1 38 29 37.9 28.8C37.8 29.1 38 29.7 37.7 29.8C37.6 29.4 37.5 29.1 37.7 29L37.4 29.2C37.3 28.7 37.9 28.5 37.4 27.9C37.2 28.4 37 29.1 37.1 29.7C36.6 29.4 36.8 30.1 36.4 30C36.3 29.9 36.1 29.9 36 29.6L36.1 29.5C35.7 29.6 35.6 30.3 35.6 30.8L35.1 30.5C34.5 30.7 35.8 31.1 35.5 31.6C35 31.3 34.8 31.9 34.4 31.6C34.4 31.7 34.4 31.7 34.4 31.8C33.9 31.7 33.5 31.6 33.2 31.7C33.6 31.6 34.4 32.2 34.9 32.1C34.9 32.4 34.6 32.2 34.5 32.4C34.4 32.3 34.3 32 34.3 32.1C34.3 32.3 34.1 32.5 34.1 32.8C33.2 32.8 32.3 32.8 31.3 32.2C31.7 32.1 31.4 31.9 31.3 31.8C30.5 31.8 29.5 31.6 29 31.9C29 31.9 28.7 31.8 28.4 31.8C28.1 31.8 27.8 31.7 27.8 31.7C27.8 31.5 28.2 30.8 29.6 31C28.4 30.7 27.2 30.7 26.2 31.1C25.2 31.5 24.4 32.3 23.7 33.1C23 33.9 22.4 34.7 21.8 35.5C21.2 36.3 20.6 37.1 19.9 38C19.7 38.1 20.1 37.4 19.8 37.7C19.6 38.2 19.5 39 19.5 39.3C19.4 39.2 19.4 39 19.5 38.7C19.2 39.6 19 40.3 18.8 41C18.5 42 18.3 42.8 18.6 43.7C18.3 43.9 18.4 42.6 18.3 42.8C18.3 43.1 18.2 43.3 18.3 43.6C18.3 43.8 18.3 44 18.4 44.1C18.5 44.4 18.6 44.8 18.8 45.1C19.2 45.8 19.7 46.5 20.3 47.3C20.4 47.4 20.4 47.4 20.5 47.5C19.5 46.8 20.2 47.6 20.3 47.7C20.7 47.9 21.2 48.1 21.8 48.3H21.6C21.5 48.3 21.4 48.4 21.3 48.4C21.1 48.5 20.8 48.5 20.6 48.6C19.6 48.9 18.4 49.4 17.3 49.7C17.1 49.8 17 49.8 16.8 49.9C16.7 49.4 16.1 49.5 15.4 49.8C15.2 49.9 15.1 49.9 14.8 50.1C14.7 50.2 14.6 50.2 14.4 50.3C14.3 50.4 14.2 50.4 14.1 50.5C13.7 50.8 13.4 51 13.2 50.9C12.7 51.5 12.3 52.6 12.7 52.8C12.7 52.4 13.4 51.7 13.5 52C13 52.4 12.6 53.7 13 54C13 54 12.8 54.2 12.6 54.5C12.4 54.7 12.2 55 12.2 55C12.5 55.2 12.9 55.6 12.8 56.1C11.8 57.3 13.4 56 12.9 57.8C12.5 57.4 12.2 57 12 56.8C11.8 57.8 12.1 57.6 12.2 58.3C11.9 58.5 11.4 57.7 11.2 56.9L10.9 58.2C11.5 59.5 12.7 61.3 13.3 63.1C12.9 63 12.6 62.4 12.4 63C12.6 63.4 13 63.7 13.4 64.1C13.8 64.5 14.1 64.9 14.3 65.4C14.2 65.3 14.2 65.4 14.1 65.3C14.5 65.6 14.7 65.8 14.9 66C15.1 66.2 15.2 66.3 15.2 66.5C15.3 66.8 15.4 67.2 16.1 67.8C16 67.9 16 68 15.9 68C15.9 68 16.2 68.1 16.4 68.2C16.7 68.3 17 68.4 17 68.4C18.2 68.7 18.6 69.1 19 69.6C19.4 70.1 19.6 70.6 20.2 71H19.9C20.2 71.4 21.2 71.7 22.1 71.8C23 71.9 23.9 72 24.3 72.1C23.4 71.6 24 71.7 23.4 71C22.6 71 22.7 71.8 21.3 71.2C21.6 70.7 23.4 70.9 23.8 70.4C24.5 70.5 25 71.4 25 71.7C26.9 71.8 28 72.1 30.3 71.8C30.7 71.6 31.1 71.2 31.6 70.9C32.1 70.6 32.7 70.5 33.8 70.6L33.7 70.8C33.7 70.6 34 70.6 34.2 70.5C34.4 70.5 34.7 70.4 34.8 70.2C34.1 69.9 35.4 69.5 34.6 69.2C35.1 68.9 35.4 68.9 35.5 69.1C35.7 69.3 35.7 69.6 35.8 69.8C36 69.4 36.2 69.2 36.5 69.2C36.8 69.2 37.2 69.4 37.5 69.3C37.7 69.2 37.8 69.1 37.8 68.9C37.8 68.8 37.9 68.7 37.9 68.5C37.9 68.4 37.9 68.5 38 68.5C38 68.5 38 68.6 38.1 68.6C38.1 68.6 38.1 68.6 38 68.6V68.7C37.9 68.9 37.9 69.2 37.8 69.4C37.6 69.8 37.4 70.1 37.6 70.1C37.6 70.1 37.7 70 37.8 69.7C37.8 69.6 37.9 69.4 37.9 69.3C37.9 69.2 37.9 69.1 38 69C38 68.9 38 68.8 38.1 68.9C38.3 69 38.5 69.2 38.5 69.2L38.3 68.4C38.6 68.7 38.7 69.2 38.9 69.6C39 70.1 39.1 70.6 39.3 71C39.3 71.3 39 71.1 38.8 70.9C39 71.2 39.4 71.5 39.8 71.7C39.9 71.7 40.1 71.8 40.4 71.8C40.7 71.9 41 72 41.3 72.1C42 72.3 42.6 72.3 43 72.2L43.2 72.4C43.2 72.4 43.1 72.5 43 72.5C43.1 72.5 43.3 72.6 43.4 72.6L44.2 73H44C44.1 73 44.2 73 44.3 73L45.1 73.4H45.6L45.4 73.3C45.7 72.7 46.9 72.7 48 73.2C47.9 73.1 47.4 72.8 46.5 72.4L46.9 72.3C48.2 73 49.3 73.5 50.5 73.9C50 73.9 49.5 73.9 49 73.7C50.1 74.8 52.4 74.1 52.9 75C50.7 75.4 49.8 74.9 47.6 74.3C47.2 73.8 47.6 73.8 48.1 74C48.6 74.1 49.2 74.3 49.3 74.1C49.3 74.1 49 74 48.7 73.8C48.3 74 48 73.9 48 73.9C48 74.1 47.4 74 46.9 73.9C46.4 73.8 45.9 73.8 46 74.3L46.9 74.8C47.2 75 47.5 75.1 47.9 75.3C48.6 75.6 49.2 75.8 49.9 76C51.2 76.4 52.5 76.6 53.7 76.7C53.7 76.7 53 77.7 52.3 78.7C51.5 79.7 50.7 80.7 50.7 80.7C50.7 80.8 50.6 80.8 50.5 81C50.6 80.9 50.7 80.7 50.7 80.7C50.7 80.5 50.1 80.6 49.5 80.6C49.7 80.4 49.9 80.2 49.1 80.1C47.7 79.4 46.5 80 45.4 79.4L45.8 79.5C45.6 79.4 45.2 79.2 45 79.1C44.8 79 44.7 78.9 44.5 78.9C44.1 78.8 43.7 78.8 43.4 78.8C43.2 78.3 43.8 78.5 44.2 78.6C44.6 78.7 45 78.9 44.6 78.3C44.8 78.4 44.9 78.5 45.2 78.6C45.4 78.7 45.9 78.8 46.2 78.9C46.9 79.1 47.6 79.1 48 79.2C46.5 78.6 45.6 77.4 46.2 77.1C46.1 77.1 46 77.1 45.9 77C45.8 77 45.8 77 45.7 77C45.6 77 45.5 77 45.4 77C45.2 77 45.1 77.1 45 77.1C44.8 77.2 44.7 77.4 44.7 77.6C44.6 78 44.5 78.3 43.5 78.1L42 77.4C42 77.4 41.8 77.5 41.6 77.7C41.4 77.8 41.1 78 41.1 78C40 77.6 42.1 77.7 40.3 77C39.7 77.2 38.4 76.1 37.9 76C38.1 75.9 38.1 75.7 37.7 75.3C37.6 75.4 37.5 75.7 37.4 75.6C37.6 75.2 37.7 75.2 37.8 75.3C37.8 75.3 37.9 75.3 37.9 75.4C38 75.4 38 75.4 38.1 75.4C38.2 75.4 38.2 75.3 38.2 75.1C38 75 38 75 37.9 74.9C37.8 74.9 37.8 74.9 37.8 74.9C37.7 74.9 37.6 75 37.6 75.1C37.5 75.3 37.4 75.6 37.3 75.7C37.4 75.6 37.3 75.7 37.4 75.8C37.3 76 37.3 75.7 37.1 76C37.1 76.1 37.2 76 37.3 76C37.2 76.2 36.9 76.5 37.6 77C38.7 77.5 40 78 41.1 78.4C42.2 78.8 43.1 79.1 43.8 79.3C43.7 79.3 43.4 79.3 43.5 79.5C44 79.7 44.3 79.8 44.6 80C44.8 80.1 45.1 80.2 45.3 80.3C45.6 80.4 45.9 80.5 46.1 80.6C47.2 81 48.4 81.4 50 81.6C50 81.6 50.2 81.4 50.4 81.2L50.5 81.1C51.9 81.3 52.2 80.9 52.4 80.5C52.5 80.1 52.4 79.6 52.7 79.6C53.3 79.6 53.8 79.3 54.2 79.6L53.9 79.8C55.4 79.7 54.4 79.2 55.8 79.4C56.9 79.1 54.8 79.2 55.6 78.9C56.3 79 56.6 78.7 56.9 78.5C57.3 78.3 57.8 78.1 59.2 78.3C59.1 78.5 59.7 79 57.9 79.1C57.9 79.1 58.3 79.2 58.8 79.3C59.3 79.4 59.7 79.5 59.7 79.5C58.7 79.7 58.4 79.7 58.2 79.7C58.1 79.7 58 79.7 57.8 79.7C57.6 79.7 57.3 79.7 56.8 79.7C56 80.3 56.1 80.7 55.4 81.1C56 81 55.9 80.5 56.9 80.6C58.5 80.8 56.6 80.9 56.6 81.1C58.5 80.5 59.1 81.8 60.9 80.9C60.4 80.2 60.7 80.3 59.3 79.9C60.5 79.6 62.2 79.7 62.4 80.3L62.5 79.7C62.8 79.8 63.8 79.4 64 79.5V79C62.9 79 62.2 79.1 60.7 79.5C61.2 79 59.7 78.7 61.5 78.2C62.3 78 61.7 78.5 61.8 78.6C63.1 78.1 63.9 77.7 64.6 77.4C65.3 77.1 65.9 76.8 66.4 76.5C67 76.1 67.7 75.5 68.3 74.2C68.2 74.8 67.4 75.8 66.6 76.7C66.2 77.1 65.7 77.6 65.3 78C66 77.9 66.4 77.4 66.8 76.9C67.1 76.5 67.3 76 67.6 75.7C67.4 76.2 67.3 76.4 67.4 76.5C67.5 76.6 67.7 76.5 68.1 76.1V75.5C68.5 75 69 73.9 69.2 73.9C69.1 73.8 68.9 74 68.5 74.5C68.7 73.6 69 72.5 69.2 71.2C69.3 70.5 69.4 69.8 69.5 69.1C69.5 69 69.5 68.8 69.6 68.7C69.8 68.8 70 68.8 70.2 68.9C70.2 69.7 70.2 70.2 70.6 69.2C72 69.5 73.3 69.3 74.6 69V69.5C74.7 69.1 75.4 68.9 76.2 68.6C77 68.3 77.8 68 78.1 67.8C76.2 68.6 75.3 68.5 74.5 68.4C73.7 68.3 72.9 68.2 71.1 68.3C72.5 67.7 73.4 67.6 74.8 66.9C75.3 66.9 75.6 67 75.6 67.1C76 66.8 76.1 66.3 76.8 65.9L77.1 66.1C78.3 65.9 78.7 65.4 79 64.9C79.3 64.4 79.6 63.9 80.5 63.4C80.9 63.5 80.7 64 80.2 64.6C79.7 65.2 78.8 65.7 78.3 66.2C78.9 66.3 78.4 66.6 77.9 66.9C77.4 67.2 76.9 67.4 77.6 67.7C77.6 67.7 77.8 67.5 77.9 67.4C78 67.2 78.2 67.1 78.2 67.1C78.8 66.9 79 67.1 78.7 67.3C79.5 66.9 79.3 67.1 79.5 66.6C80.4 66.1 80.9 65.9 81.1 65.9C81.3 65.9 81.3 66 81.4 66.1C81.4 66.2 81.4 66.4 81.7 66.4C81.9 66.4 82.5 66.2 83.3 65.5C83.1 66 82 66.7 82.4 66.9C82.4 66.9 81.9 67.2 81.3 67.5C81 67.6 80.7 67.8 80.5 67.9C80.3 68 80.1 68 80.1 68L80.3 68.5C83 67.3 84 65.4 84.2 64C84.2 63.8 84.2 63.7 84.3 63.5C84.2 63.6 84.2 63.8 84.1 63.9C83.6 64.7 83.5 64.6 83.4 64.4C83.3 64.2 83.2 63.9 82.7 64.2C82.8 63.7 83.2 63.5 83.5 63.4C83.5 63.2 84.1 62.1 83.8 62.1C84.1 62.2 84.6 61.9 85 61.5C85.4 61.1 85.8 60.5 86.2 60C86.9 59 87.4 58.2 87.9 58.8C88.3 58.1 88.4 56.8 88.5 55.4C88.6 53.9 88.5 52.2 88.5 50.7L88.9 51.5C89.4 49.8 89.1 49 88.6 48.5ZM47.9 80.1C47.9 80.1 48.2 80.2 48.4 80.3C48.7 80.4 48.9 80.5 48.9 80.5C48.5 80.4 48.1 80.3 47.9 80.1ZM69.7 38.8L68.8 38.9C69.1 38.6 69.6 38.1 70 37.7C70.4 37.3 70.8 37 70.8 36.9C71.1 37 71.7 36.8 71.9 37.1L71 37.9L70.8 37.6L70.2 38.4C70.6 38.4 71.8 38.4 72.1 38.8C71.4 39 70.5 39.3 69.4 40C68.9 40.3 68.4 40.7 67.7 41.2C67.6 41.2 67.4 41.2 67.1 41.2C67.2 41.1 67.3 41 67.4 40.9C67.1 40.9 67.3 40.7 67.6 40.4C67.8 40.4 67.8 40.3 67.7 40.3C67.9 40.1 68.2 39.8 68.3 39.7C68.1 40 67.9 40.2 67.7 40.3H67.6V40.4C67.3 40.5 67.2 40.5 67.3 40.3C67.9 39.6 69.4 38.8 69.7 38.8ZM59.1 36.7C59.3 36.6 59.3 36.5 59.5 36.4C59.5 36.5 59.5 36.7 59.4 36.8C59.3 36.7 59.2 36.7 59.1 36.7ZM57.7 32.8L57.8 32.7C57.8 32.7 57.8 32.7 57.9 32.7C57.9 32.7 57.9 32.7 57.8 32.7C57.9 32.6 57.9 32.5 57.9 32.4C58.3 32.2 58.2 32 58.4 31.8C58.5 31.8 58.5 31.8 58.6 31.7C58.6 31.9 58.3 32.4 58.2 32.4H58.3C58.3 32.5 58.3 32.5 58.3 32.6C58.3 32.6 58.3 32.7 58.2 32.7H58.3C58.3 32.7 58.3 32.8 58.4 32.8C58.3 32.8 58.1 32.9 57.8 33V32.8C57.8 32.8 57.7 32.8 57.7 32.8ZM57.5 33.3C57.6 33.3 57.4 33.4 57.2 33.6C57.4 33.3 56.7 33.8 56.7 33.6L56.8 33.5C56.3 33.7 56.5 33.5 56.3 33.5C56.6 33.2 56.9 33.2 57 33.1C57.1 33.1 57.2 33.2 57.3 33.2C56.9 33.4 57.2 33.2 56.9 33.4C57 33.5 57.3 33.3 57.5 33.3ZM57.4 32C57.4 32.1 57.3 32.1 57.1 32.2C57 32.2 57 32.2 56.9 32.3C57 32.2 57.2 32.1 57.2 32C57.4 31.9 57.4 32 57.3 32.1C57.3 32 57.4 32 57.4 32ZM51.7 32.9C51.7 32.7 51.8 32.5 51.7 32.5C51.6 32.1 51.4 33 51.3 32.9V32.8C51.2 32.6 51 32.6 50.9 33C50.8 32.2 51.3 32.8 51.1 32.2C51.2 32.5 51.5 31.9 51.6 31.9C51.4 31.7 51.3 31 51.4 30.6C51.7 30.7 52 30.8 52.2 30.9C52 31.9 51.8 32.9 51.8 32.9C51.8 33 51.8 33 51.8 33.1V32.9C51.8 32.7 51.8 32.8 51.7 32.9ZM51.6 33C51.6 33 51.5 33 51.5 32.9L51.6 33ZM46.1 29.3C46.1 29.1 46.1 29 46.1 28.9L46.2 28.8H46.3C46.3 29 46.4 29.4 46.1 29.3ZM42 29.8C41.9 29.7 41.9 29.7 41.8 29.6C41.9 29.5 42.1 29.3 42 28.9L42.4 29.2C42.3 28.9 42.1 28.4 42.3 28.4C42.9 29.1 42 27.8 42.6 28.1C42.7 28.5 42.7 28.7 42.8 29C42.8 29.1 42.7 29.2 42.7 29.3C42.3 29.5 42.2 29.7 42 29.8ZM41.9 24.6C42 24.8 42 25.2 42.2 25.1C42.1 25.1 42.1 25.1 42 25.1C41.8 24.9 41.8 24.7 41.9 24.6ZM67 41.7C66.9 41.8 66.8 41.9 66.7 42C66.5 42.1 66.3 42.2 66.2 42.2C66 42.1 65.9 42.1 65.8 42C65.9 42 65.9 41.9 66 41.9C66.2 41.8 66.3 41.7 66.5 41.6C66.6 41.7 66.8 41.7 67 41.7ZM59 32H58.6C59.5 31.7 59.5 31.7 59.9 31.6C59.9 31.5 59.9 31.5 60 31.5L60.1 31.6H60C60 31.6 60 31.6 60.1 31.6C60.1 31.6 60.2 31.6 60.2 31.7C60.2 31.9 59.5 32 59.9 32.2C59.8 32.2 59.8 32.2 59.7 32.2H59.8C59.8 32.7 60 32.6 60.3 32.6C60.3 32.6 60.4 32.5 60.5 32.5C60.5 32.5 60.6 32.4 60.6 32.5L60.8 32.7C60.8 32.7 60.8 32.7 60.9 32.8C60.9 32.8 60.9 32.9 60.8 32.9C60.8 32.9 60.8 33 60.9 33H61C61 33 61 33 61 32.9L61.1 33C60.8 33.4 60.6 33.2 60.5 33.1H60.4C60.4 33.2 60.3 32.9 60.5 33.3L60.4 33.2C60.3 33.1 60.3 33 60.2 32.9H60.3C60.3 33 60.5 32.9 60.6 32.9C60.6 32.8 60.5 32.7 60.3 32.9V33C60.2 33 60.2 33 60.2 33C60.2 33 60.2 33 60.2 32.9C60.1 32.8 60.1 32.9 60.1 32.9C60.1 32.9 60.1 32.9 60 33L59.9 33.1C59.9 33.2 60 33.3 60 33.4C60 33.5 60 33.5 60 33.6C59.9 33.6 59.9 33.7 60 33.7L59.9 33.5C59.9 33.5 59.8 33.5 59.8 33.6V33.5C59.8 33.4 59.7 33.4 59.7 33.3V33.2C59.7 33.3 59.7 33.3 59.7 33.4C59.7 33.5 59.6 33.5 59.6 33.5C59.6 33.5 59.6 33.4 59.6 33.3C59.9 33.3 59.7 33.1 60 32.9C60 32.9 59.9 32.9 59.8 32.9C59.8 32.9 59.8 32.9 59.9 32.8C60 32.6 59.8 32.7 59.6 32.8C59.6 32.8 59.6 32.8 59.5 32.8C59.4 32.7 59.2 32.7 59 32.6L59.2 32.5C58.8 32.3 58.5 32.3 59 32ZM51.4 26.8C51.5 26.7 51.6 26.6 51.7 26.6C51.7 26.6 51.6 26.5 51.4 26.4L51.5 26.2C51.8 26.4 52.1 26.5 52.3 26.6C52.2 26.7 52.1 26.8 52 26.7C52 26.8 52 26.8 52.1 26.8C51.8 26.9 51.6 26.8 51.4 26.8ZM48.3 27.1C48.3 27.1 48.4 27.1 48.4 27.2C48.4 27.2 48.4 27.2 48.3 27.1ZM52.6 26.8L52.7 26.9C52.6 26.9 52.6 26.9 52.6 26.8ZM66 42.7C65.9 42.8 65.8 42.9 65.7 43C65.6 43 65.5 42.9 65.4 42.9C65.5 42.8 65.6 42.9 65.7 42.9L65.4 42.8C65.5 42.8 65.6 42.4 66 42.7ZM65.1 40.2C65.1 40.3 65.1 40.3 65.1 40.4H65L65.1 40.2ZM65.1 40.1C65.3 40.1 65.3 40.1 65.4 40.1C65.3 40.4 65.1 40.5 65.1 40.1ZM65.5 40C65.4 39.9 65.3 39.9 65.3 39.8C65.5 39.7 65.6 39.7 65.7 39.7C65.6 39.8 65.5 39.9 65.5 40ZM65.4 41.1L65.3 41.3C65.2 41.3 65 41.4 64.6 41.2C64.7 41.1 65.1 41.1 65.4 41.1ZM65.1 40.7C65.3 40.7 65.5 40.5 65.4 40.8C65.3 40.8 65.2 40.8 65.1 40.7ZM60.9 32C60.9 32.1 60.9 32.1 60.9 32.2C60.9 32.3 60.9 32.4 60.9 32.4C60.7 32.5 60.6 32.5 60.5 32.6H60.4C60.5 32.4 60.7 32.1 60.9 32ZM60.3 25.9C60.4 25.8 60.5 25.8 60.5 25.8C60.6 25.8 60.6 25.9 60.7 25.9C60.6 26 60.5 26.1 60.4 26.2C60.4 26.2 60.4 26 60.3 25.9ZM56.7 26.4C56.6 26.4 56.5 26.4 56.4 26.4V26.2C56.5 26.4 56.8 26.1 56.7 26.4ZM59.2 33.5C59.2 33.5 59.2 33.4 59.2 33.3C59.2 33.3 59.2 33.4 59.2 33.5ZM59.2 33.5C59.3 33.6 59.3 33.6 59.2 33.5ZM64.5 43.7C64.2 43.5 64.9 43.3 65.2 43.2C65.3 43.2 65.3 43.1 65.4 43.1C65.2 43.3 65 43.5 64.8 43.7C64.7 43.8 64.6 43.9 64.5 44C64.5 44 64.6 43.9 64.7 43.8L64.8 43.7C64.7 43.7 64.7 43.7 64.6 43.8C64.6 43.8 64.6 43.7 64.5 43.7ZM66.3 37.3C66.3 37.2 66.2 37.2 66.2 37.2C66.2 37 66 36.9 65.9 36.9C65.9 36.9 66 36.8 66.1 36.7C66 36.7 65.9 36.8 65.8 36.8C65.7 36.7 65.6 36.5 65.6 36.1C65.9 36.3 66.2 36.5 66.4 36.7C66.4 36.7 66.3 36.8 66.3 36.9C66.5 36.9 66.5 37 66.5 37.2L66.3 37.3ZM66.5 36.5C66.6 36.2 65.9 36.1 65.8 35.8C66.2 35.5 66.5 35.4 66.9 35.9C66.8 36.5 66.7 36.5 66.5 36.5ZM56.3 26.5C56 26.5 55.8 26.6 55.5 26.6C55.5 26.4 55.4 26.3 55.4 26.1L55.5 26C55.8 26.2 56 26.3 56.3 26.5ZM45.4 28.4C45.3 28.4 45.2 28.5 45.1 28.5C45.2 28.3 45.3 28.3 45.4 28.4ZM46.2 28.5C46.2 28.3 46.3 28.2 46.3 28C46.4 28 46.5 28.2 46.6 28.5C46.4 28.5 46.3 28.5 46.2 28.5ZM48.4 27.5C48.4 27.4 48.4 27.4 48.4 27.3H48.5V27.4C48.5 27.4 48.4 27.5 48.4 27.5ZM53.4 30.8C53.5 30.8 53.5 30.8 53.6 30.8C53.6 30.9 53.5 31 53.5 31C53.5 31 53.4 31 53.4 30.9C53.3 30.8 53.4 30.8 53.4 30.8ZM53.8 31.2C53.7 31.1 53.6 31.1 53.5 31C53.7 30.9 53.8 31 53.8 31.2ZM55.9 31.8H55.8C55.9 31.7 55.9 31.7 56 31.6C55.9 31.7 55.9 31.7 55.9 31.8ZM56.4 31.3C56.5 31.3 56.5 31.3 56.5 31.3C56.4 31.3 56.3 31.3 56.2 31.4C56.3 31.4 56.3 31.3 56.4 31.3ZM59.3 34.1C59.4 34.1 59.4 34.1 59.5 34.1C59.4 34.1 59.5 34 59.5 33.9C59.5 34 59.5 34.1 59.5 34.2C59.3 34.3 59.2 34.2 59.3 34.1ZM63.5 43.8V43.7H64C64.5 43.8 63.9 44 64.2 44.1C64 44.2 63.8 44.3 63.6 44.4H63.5C63.5 44.4 63.5 44.4 63.5 44.3V44.2C63.6 44.1 63.6 44 63.5 43.8C63.6 43.9 63.6 43.9 63.5 43.8C63.6 43.9 63.7 44 63.9 44C63.6 44 63.8 43.7 63.5 43.8ZM67.1 41.6C66.9 41.6 66.7 41.6 66.5 41.6C66.6 41.5 66.7 41.4 66.8 41.4C66.9 41.4 67 41.5 67.1 41.6C67.2 41.6 67.2 41.6 67.2 41.6C67.2 41.5 67.2 41.6 67.1 41.6ZM65.2 27.1C65.1 27 64.9 26.9 64.8 26.8C65.1 26.7 65.3 26.8 65.2 27.1ZM60.7 22C60.7 22 60.8 22.2 61 22.3C61.1 22.5 61.3 22.6 61.3 22.6C61.2 22.6 61.1 22.7 61 22.7C61.2 22.7 61.3 22.7 61.4 22.7C61.7 22.8 61.7 23.1 62.3 22.9C62.4 23.3 61.7 23 61.9 23.2C61.8 23.2 61.8 23.2 61.7 23.2C61.4 23.1 61.2 23 61 22.8C60.9 22.9 60.8 22.9 60.7 23C60.4 22.8 60.3 22.9 59.9 22.5C60 22.1 60.7 22.4 60.7 22ZM57.1 23C57 23.1 56.9 23.2 56.9 23.3C56.7 23.3 56.5 23.3 56.3 23.3C56.3 23.3 56.3 23.3 56.2 23.2V23.1C56.3 22.9 56.7 23 57.1 23ZM43.1 24.3C43 24.3 43 24.2 42.9 24.2C43 24.2 43.1 24.1 43.1 24.1C43.1 24.2 43.1 24.2 43.1 24.3ZM42.2 25.1C42.2 25.3 42 25.5 41.8 25.6C41.9 25.5 41.7 25.3 41.7 25.2C41.8 25.1 42 25.1 42.2 25.1ZM52.4 74.8C52.1 74.7 51.9 74.7 51.8 74.6C52.1 74.7 52.3 74.7 52.4 74.8C52.5 74.8 52.5 74.8 52.4 74.8ZM54.3 75.6C54 75.5 54 75.3 53.9 75.1C54.1 75.1 54.3 75.2 54.5 75.2L54.3 75.6ZM62.2 76C61.9 76.3 61.4 76.6 61.3 76.9C61.1 77 60.6 77.2 60.1 77.3C59.6 77.3 59.2 77.3 59.4 77C60.1 77 60.3 76.7 60.5 76.4C60.7 76.1 60.9 76 61.6 76.2C61.6 75.8 61.3 75.8 60.8 75.8C60.9 75.7 61 75.6 60.9 75.5C61.3 75.4 61.7 75.3 62 75.2C62.3 75.1 62.6 75 62.6 75.2C62.8 75.4 62.6 75.7 62.2 76ZM64 74.1L63.9 74.2C63.9 74.1 63.9 74.1 64 74.1V73.9C64.9 72.9 65.1 72.1 65.2 71.6C65.3 71.1 65.2 70.9 64.9 71C64.5 71.1 63.6 72 62.3 72.4C63.3 71.5 63.9 70.2 64.1 68.8L63.8 68.9C64 68.5 63.6 68.1 64 67.8C64.1 67.8 64.5 68.4 64.8 69.3C65.2 70.1 65.4 71.3 65.4 71.8C65.2 72.7 64.6 73.7 64 74.1ZM65.9 64.8L66.2 64.6L66.4 64.5L66.3 64.4C66.3 64.4 66.3 64.4 66.3 64.3C66.3 64.2 66.4 64.1 66.4 64L66.7 63.8C66.7 63.8 66.7 63.8 66.8 63.7L67.1 63.6C67.1 63.6 67.1 63.7 67.2 63.8H67.3L67.2 63.9C67.2 64 67.2 64 67.2 64.1L67.4 64L67.5 63.9H67.6L67.8 63.8V63.9C67.9 63.9 67.9 63.9 67.9 63.9C68 63.9 68.1 63.9 68.1 64L68.2 63.9C68.2 63.9 68.2 63.9 68.2 64C68.4 64 68.6 64.1 68.7 64.1C69.4 64.4 70.1 65 69.8 65.3L69.5 65.5C69.4 65.5 69.3 65.5 69.3 65.6C69.4 65.6 69.5 65.6 69.5 65.6L68.2 66.3C68.1 66.3 68 66.2 67.9 66.2C67.9 66.3 67.9 66.4 67.8 66.5L67.6 66.6C67.7 66.4 67.7 66.2 67.6 66.1C67.6 66.1 67.4 66.3 67.3 66.4C67.1 66.6 67 66.7 67 66.7C67 66.4 66.7 65.7 67.1 65.7C66.9 65.6 66.6 65.2 66.6 66.1L66.3 65.3C66.2 65.3 66.2 65.4 66.1 65.4C66.1 65.3 66.1 65.2 66.1 65.1L66.3 65C66.2 65 66.2 64.9 66.1 64.9C66.1 64.9 66 64.8 65.9 64.8ZM66.5 63.8C66.6 63.8 66.7 63.8 66.8 63.8L66.5 63.9V63.8ZM65.9 65.2L66 65.3C65.9 65.3 65.8 65.3 65.7 65.3L65.9 65.2ZM66.1 66.9C66.2 67 66.4 67 66.4 67.1L66.1 67.3C66.1 67.2 66.1 67 66.1 66.9ZM71.5 69.1L70.7 69.3C70.7 69.2 70.7 69.2 70.7 69.1C70.9 69.1 71.2 69.1 71.5 69.1ZM75.4 65.7C74.8 65.9 74 66.2 73.6 66.5C72.8 66.9 71.3 66.3 71.6 66C71.6 66.3 71.3 66.4 70.9 66.4C71 66.2 71.1 66 71.3 66L71 65.5C71.2 65.5 71.4 65.4 71.6 65.3C70.3 65.6 71.7 64.2 70.1 64.6C69.8 63.8 71.4 64.4 72.2 64.7C71.8 64.8 72.1 65.1 72 65.2C73.3 65 72.7 64.5 71.9 64.2C71.9 64.2 72.2 64.1 72.6 64.1C72.9 64 73.3 63.9 73.3 63.9H73.2C73.7 63.9 74.1 63.8 74.5 63.7C74.7 64.3 74.8 64.6 74.4 64.5C74.4 64.5 74.6 64.6 74.8 64.7C75 64.8 75.2 64.9 75.2 64.9C75.2 64.9 74.9 65 74.6 65C74.3 65.1 74 65.1 74 65.1C74.5 65.6 75.4 65.1 76 65C76.3 65.2 75.9 65.4 75.4 65.7ZM77.8 56.2C77.9 56.3 78 56.2 78.1 56.1C78.2 55.3 77.7 54.8 77.2 55.1L77.3 55.4C77.3 55.4 77.2 55.5 77 55.6C76.9 55.7 76.7 55.8 76.7 55.8C77.1 56 77.1 56.4 77.1 56.8C77 57.2 76.9 57.3 77 57.6C76.8 57.1 76 56.8 76.7 56.4L76.2 56.3C76.3 55.9 76.9 55.5 76.5 55V55.7L76.2 55.6C76.1 56 76.4 56.6 76 56.7C76.2 56.9 76.6 57.2 76.4 57.5L76.3 57.6L76.2 57.5C76.5 57.9 76.2 58 75.9 57.9C75.8 57.9 75.6 57.8 75.6 57.8C75.5 57.8 75.5 57.8 75.4 57.9C75.5 58.4 75.7 58.4 75.8 58.3C76 58.3 76.1 58.1 76.3 58.2C76.3 58.6 75.9 58.3 76.3 58.7C76 59.4 75.7 58.1 75.4 58.9L75.8 59C75.7 59.5 75.1 59.4 74.9 59.9C75 60.5 75.5 59.8 76.1 59.8C76.1 59.8 76.1 59.9 76.1 60.1C76.1 60.2 76 60.4 76 60.4C76 60.4 76.3 60.2 76.5 59.9C76.7 59.7 76.8 59.4 76.8 59.4C76.6 58.6 76.4 58.7 76.4 58C76.9 58.2 77.7 58.6 78 59.1C77.6 59.1 77.3 59.6 77 59.2C77.1 59.8 76.4 60.6 76.8 61L76.7 61.1C76 60.8 75.2 60.6 73.9 60.5C73.6 60.5 73.6 60.9 73.7 61.3C73.4 61.2 73.1 61 72.8 61C73.1 60.8 73.2 60.5 73.6 60.5C73.6 60.5 73.1 60.5 72.5 60.4C71.9 60.3 71.3 60.1 71.3 60.1L71.5 59.9C71.5 59.9 71.2 59.9 71 60C70.7 60 70.5 60.1 70.5 60.1C71.1 60.1 71.9 60.4 71.6 60.8C70.4 61 69.8 60.3 68.6 60.7C68.9 59.8 68.5 59.5 69 59.1C69.1 59.1 69.1 59.2 69.1 59.2C69.6 58.8 70.5 58.5 71.1 58.4C70.2 58.1 69.8 57.9 69.5 57.9C69.1 57.8 68.8 57.8 68.1 57.5L67.1 57.1L61.5 59.2L60.5 61.5C60.5 61.6 60.4 61.9 60.3 62.2C60.1 62.3 60.1 61.9 60.1 61.4L60.3 59.7L59.7 59.9L59.8 61.2C59.9 62.4 60 63.7 59.8 65.4C59.4 65.4 59.4 65.9 59.4 66.3C59.4 66.7 59.4 67 59 66.9C59.2 65.9 58.9 66 58.5 66.3C58.6 66.6 58.8 66.9 58.9 67.2C58.9 67.4 59 67.3 59 67.4C59 67.4 59 67.5 58.9 67.5C58.5 67.4 58.2 67.4 58.1 67.2C57.9 67.3 58 67.2 58.6 67.7C58.9 68.2 58.4 67.8 58.1 67.6C58 67.5 58 67.5 58 67.6L57.8 67.3V67.4C57.8 67.4 57.9 67.5 57.9 67.6C58 67.7 58 67.8 58 67.8V68.3C57.9 68.7 58.2 68.8 58.3 69C58.3 69 58.3 68.9 58.2 68.7C58.2 68.6 58.1 68.4 58.1 68.4C58.3 68.5 58.2 68 58.5 68.3C58.3 68.5 58.6 68.9 58.6 69.1L58.8 68.8L59.1 69.1C59.2 69 59.3 69 59.4 68.9C59.5 68.8 59.6 68.5 59.4 68.2C59.2 68.2 59.6 68.7 59.3 68.5C58.9 67.9 58.9 67.6 58.7 67.3C58.9 67.4 58.9 67.3 59 67.4C59.1 67.4 59 67.5 59 67.5C59.3 67.6 59.4 67.9 59.7 67.6C60.2 67.8 60.8 68.6 61 68.7C61 69.1 60.8 69.6 60.5 69.7L60.4 69.6C60.3 69.6 60.3 69.7 60.2 69.8C60.1 70.1 59.8 70.5 59.6 70.1C59.5 70.3 59.1 70.6 59.7 70.7C59.7 70.7 59.5 70.9 59.3 71C59.1 71.1 58.9 71.2 58.9 71.2C58.8 70.8 58.6 70.5 58.4 70.3C58.3 70.1 58.3 69.9 58.4 69.4C58.4 69.4 58.2 69.6 57.8 69.7V69.6C57.8 69.6 57.8 69.5 57.8 69.4C57.9 69.4 57.9 69.4 58 69.5C58.1 68.9 57.7 68.7 57.5 68.7L57.4 69.2C57.3 69.1 57 68.9 56.7 68.7C56.4 69 56 68.9 55.4 69C55.4 69 54.7 69.4 54 69.8C53.3 70.2 52.7 70.5 52.7 70.5C52.5 70.5 52.2 70.5 52 70.5C51.7 70.2 50.7 70.1 51.2 69.7C51.2 69.5 51.5 69.4 51.9 69.6C52 69.7 51.8 69.7 51.9 69.8C52.1 69.5 52.2 69.2 51.8 68.8C52.3 69 52.3 69 52.7 68.9L52.2 68.7C53 68.7 54.3 68.2 54.4 67.8C54.1 68.4 53.6 67.7 53.2 67.5C53.5 67.4 54.3 67.2 53.8 67.1C53.6 67.3 52.2 67.4 53.1 67.8C52.7 67.9 52.1 68.1 51.7 67.8C52.3 67.6 52 67.3 52.2 67C51.7 67.3 51.6 67.7 51.5 67.8C51 67.4 50.7 66.9 50.5 66.5L50.4 66.4C50.4 66.4 50.4 66.4 50.3 66.3L50.2 66.2C50 66.1 49.8 65.9 49.6 65.8C49.2 65.6 48.6 65.4 48.1 65.3C47.9 65.3 48.3 65.4 48.6 65.5C49 65.6 49.3 65.8 49.2 66C48.2 66 47.8 65.6 47.4 65.3C47 64.9 46.7 64.5 46.3 64.5C46.3 64.5 46.3 64.7 46.3 64.9C46.3 65.1 46.3 65.3 46.3 65.3C46 65.3 45.3 65.2 45.3 65.2C45.3 65.1 45.3 65.1 45.4 65C45.5 64.9 45.5 64.8 45.6 64.7C45.6 64.7 45.6 64.6 45.7 64.6C45.7 64.6 45.7 64.7 45.6 64.7H45.5C45.4 64.7 45.4 64.7 45.5 64.7C45.5 64.7 45.5 64.6 45.6 64.6C45.6 64.6 45.7 64.6 45.7 64.5H45.8C45.8 64.6 45.7 64.6 45.7 64.6C46.2 63.9 45.6 64.8 45.8 64.4L45.6 64.6C45.3 64.8 45 65 44.7 65.2C44.3 65 44.2 65 44 65.1C43.9 65.1 43.8 65.1 43.7 65.1C43.5 65.1 43.3 65.1 43.1 65.1C42.7 65.1 42.5 65.2 42.2 65.2C42 65.2 41.7 65.3 41.5 65.3C40.7 65.5 39.8 65.6 39.1 65.3C39.2 65.4 39.4 65.4 39.6 65.5C39.8 65.5 39.8 65.6 40 65.6C40.3 65.7 40.5 65.7 41.2 65.8C39.9 65.8 40.9 65.9 40.7 66.2C40 65.8 38.6 65.6 39.6 65.7C39.3 65.6 39 65.5 38.8 65.4C38.8 65.5 38.7 65.6 38.4 65.6C38.3 65.6 38.2 65.6 38.1 65.7H38.4C38.5 65.7 38.6 65.7 38.7 65.7C38.7 65.7 38.5 65.8 38.4 65.8C38.2 65.8 37.8 65.8 37.5 65.9C37.4 65.9 37.2 65.9 37.1 65.9H36.9V65.8V65.5C36.9 65.1 36.9 64.8 36.8 64.4C36.8 63.7 36.7 63 36.7 62.4C36.6 62.4 36.6 62.4 36.5 62.5C36.4 62.6 36.2 62.6 36.1 62.7C35.9 62.8 35.7 63 35.5 63.1C35.9 63 36.2 62.9 36.5 62.8H36.6V62.9V63.1V63.5C36.6 64.1 36.7 64.6 36.7 65.2C36.7 65.5 36.7 65.7 36.8 66H36.9H37C37.4 65.9 37.8 65.9 38.3 65.8C38.5 65.7 38.6 65.7 38.7 65.6C38.7 65.6 38.7 65.6 38.7 65.5L38.8 65.6C38.9 65.6 38.9 65.7 38.9 65.7C38.9 65.7 38.9 65.7 38.8 65.7C38.7 65.7 38.5 65.6 38.8 65.9C38.8 65.9 39 66 39.2 66.1C39.4 66.2 39.8 66.2 39.8 66.2C39.8 66.2 39.7 66.1 39.5 66.1C39.4 66 39.3 66 39.3 66C39.4 66 39.5 66 39.7 66C39.9 66 40.1 66.1 40.4 66.2C40.9 66.3 41.6 66.4 41.6 66.2C42 66.4 42.6 66.5 43 66.6C43.2 66.5 43.5 66.4 43.7 66.3C43.9 66.2 44.3 66 44.2 66.1C44.3 66.2 44.4 66.3 44.8 66.8C45.1 66.6 44.8 66.5 44.6 66.3C45.1 66.5 45.3 65.8 46 66.6C46.4 66.9 46.3 66.1 45.6 65.8C46.2 66.1 46.9 66.2 47.8 66.6C47.8 66.6 47 65.8 47.1 65.8L48.1 66.1L47.4 65.5C47.9 65.6 48.4 65.8 48.9 66C49.2 66.1 49.4 66.2 49.7 66.3L50.1 66.5L50.3 66.6H50.4C50.8 66.9 51.2 67.2 51.4 67.6C51.1 67.7 50.8 67.7 50.5 67.6C50.2 67.6 50 67.5 49.3 67.3C48 67.2 47 67 46.5 67.2C46.7 67.5 48 67.1 48.2 68C48.2 68 48.4 67.9 48.5 67.9C48.7 67.8 48.9 67.8 48.9 67.8C49.1 67.8 49.3 67.9 49.5 67.9C49.7 68 49.8 68 49.9 68C50.1 68.1 50.3 68.2 50.3 68.5C50 68.5 49.8 68.5 49.6 68.5C49.5 68.5 49.4 68.5 49.3 68.5C49.2 68.5 49 68.5 48.9 68.5C48.4 68.5 48 68.6 47.5 68.6C47.5 68.7 47.3 68.7 47.1 68.6C46.6 68.5 45.9 68.2 45.5 68.1C45.1 67.8 45.5 67.7 45.6 67.6C44.9 67 44.3 67 43.8 67.1H43.5H43.4L43.2 67.2L42.6 67.4L42.3 67.5C42.2 67.5 42.1 67.5 42.1 67.5C41.9 67.5 41.8 67.4 41.6 67.4C41.3 67.3 41.1 67.2 40.8 67.1C40.8 67 40.5 66.8 40.2 66.6C39.9 66.4 39.7 66.3 40 66.3C39.8 66.2 39.6 66.1 39.4 66C39.3 65.9 39.1 65.9 39 65.8C38.9 65.7 38.8 65.7 38.7 65.6C38.6 65.5 38.6 65.6 38.6 65.7C38.6 65.8 38.6 65.8 38.5 65.9C38.5 65.9 38.4 66.1 38.1 66.1C37.8 66.2 37.4 66.1 37.8 66C37.8 66 37.5 66.1 37.2 66.1C37 66.1 36.9 66.2 36.8 66.2C36.7 66.5 36.6 65.4 36.6 65.5C36.6 65 36.5 64.6 36.5 64.1V63.7C36.5 63.6 36.5 63.7 36.4 63.6H36.3C36.1 63.6 36 63.6 35.8 63.7C35.5 63.8 35.2 63.9 34.8 64C34.2 64.2 33.5 64.5 33.3 64.3C32.7 64.6 32.7 64.8 32.6 65C32.5 65.1 32.5 65.2 32.5 65.2L32.4 65.3C32.4 65.3 32.3 65.3 32.2 65.3C32.2 65.2 32.1 65.1 32.3 65.1C32.1 65 31.3 65 30.9 65.4C31.5 65.5 31.1 65.5 31.7 65.6C31.7 65.9 31 66.3 30 66C30.6 65.7 30.4 65.5 30 65.4C29.7 65.3 29.2 65.2 29.5 65C27.3 64.9 26.2 65.8 24.5 66.3C23.5 66.3 22.5 66 21.7 65.8C20.8 65.6 20.1 65.3 19.4 65.2L19.5 65.3L18.7 65.2C18.3 64.9 19.1 64.7 18.5 64.4C18.8 64.3 19 64.4 19.3 64.6C19.6 64.8 19.9 65 20.3 65C20 64.5 20.3 64.5 20.6 64.5C20.9 64.5 21.3 64.5 21.1 64.2C20.9 64.4 20.6 64.5 20.4 64.4C20.3 64.4 20.2 64.3 20 64.3C19.9 64.2 19.8 64.1 19.6 64C19.3 63.8 19.2 63.6 18.9 63.4C18.7 63.2 18.4 63 18.2 62.9C17.8 62.1 18.9 62.9 18.6 62.5H18.1C18 62.1 18 62 18.2 61.8C17.8 60.9 17.3 60.1 16.6 59.3C17.2 60.3 15.9 59.1 16.2 60.2C16.1 60.1 15.9 59.8 15.7 59.5C15.6 59.2 15.5 58.8 15.4 58.5C15.7 59.1 16.1 57.5 16.2 59C16.7 58.7 16 58.3 16 57.6C16.2 57.9 16.7 58.6 16.7 58.5C16.5 58.3 16.4 58 16.3 57.7C16.3 57.4 16.3 57 16.5 56.7C16.6 56.5 16.6 56.4 16.6 56.3C16.7 56.2 16.7 56 16.8 55.9C16.9 55.7 16.9 55.5 16.8 55.4C16.7 55.2 16.6 55 16.6 54.8C16.6 54.6 16.5 54.3 16.5 54.1C16.5 53.6 16.5 53.1 16.4 52.8C16.5 52.8 16.5 52.8 16.6 52.8H16.7C16.7 52.8 16.6 52.9 16.6 52.8C16.6 52.8 16.6 52.8 16.8 52.8L17.4 52.6C18.2 52.4 19 52.1 19.9 52C20 51.9 20.1 51.8 20.1 51.7V52.1C20.4 51.7 20.7 51.2 21 50.8C21.3 50.3 21.7 49.9 22 49.6H22.3C22.5 49.4 22.8 49.1 23.1 48.8C23.2 48.7 23.4 48.6 23.5 48.6L23.6 48.5H23.5H23.4C23.4 48.5 23.4 48.5 23.3 48.5C23.3 48.5 23.3 48.5 23.2 48.5L23.1 48.4C23.1 48.4 23.1 48.4 23.1 48.5C23 48.5 22.9 48.5 22.9 48.5C22.8 48.5 22.8 48.5 22.8 48.4L22.6 48.3C22.2 48.1 22.1 48 22.3 48.1C22.1 48 22 47.8 21.9 47.7C21.8 47.6 21.6 47.4 21.5 47.3C21.1 46.8 20.8 46.4 20.6 45.5C21 46.1 21.2 46.6 21.6 47.3C21.4 46.9 21.2 46.5 21.1 45.9C21.3 46.2 21.5 46.9 21.8 47.3C22.2 48 22.8 48.2 22.7 48.2C22.4 48.1 22.2 47.8 22 47.4C21.6 46.8 21.4 46 21.1 45.1C21 44.7 20.9 44.3 20.8 43.9C20.8 43.7 20.7 43.5 20.7 43.3C20.7 43.2 20.7 43.1 20.6 43C20.6 43 20.6 43 20.6 42.9L20.8 42.8L21.1 42.7C21.2 42.7 21.3 42.6 21.3 42.6V42.5C21.3 42.5 21.3 42.4 21.4 42.4C21.4 42.3 21.5 42.3 21.5 42.2C21.5 42 21.5 41.9 21.5 41.7C21.5 41.4 21.4 40.9 21.5 40.6C21.5 40.4 21.6 40.2 21.7 40C21.8 39.9 22.1 39.7 22.3 39.9V40.1C22.5 39.5 22.7 39 22.9 38.3C23.1 37.6 23.4 36.9 23.7 36.3L24.6 36.2C25.3 35.6 25.1 35.5 24.9 35.4C24.7 35.2 24.4 35.1 25.2 34.3C25.6 34.4 26.1 34 26.6 33.8C27.2 33.6 27.7 33.7 27.8 34C28.2 34 28.3 34 28.4 33.6C28.1 33.5 27.3 33.6 27.7 33.2C28.4 33 28.8 33.5 29.4 33.5C29.3 33.6 28.9 33.8 29.2 33.8C29.5 33.8 30 33.9 30.4 33.9C31 34 31.6 34.1 32.2 34.2C33.4 34.4 34.6 34.6 35.6 34.4C35 34.3 34.8 34.6 34.1 34.1C34.2 33.9 34.6 34 34.8 34C34.9 33.5 33.9 34 33.2 33.4C33.2 33.4 33.6 33.4 34 33.4C34.4 33.4 34.8 33.4 34.8 33.4L34.2 32.8C34.2 32.8 34.2 32.8 34.3 32.8C34.5 33 34.4 33 34.5 33.1C34.9 33.4 34.4 32.7 34.8 32.8L35.1 33.4L35.6 33.6C35.6 33.6 35.7 33.9 35.9 34.3C36.1 34.6 36.2 34.9 36.2 34.9C36.8 34.7 35.5 33.4 36.3 33.4C36.4 33.6 36.5 33.6 36.6 33.7C36.5 33.4 36.6 33.3 36.5 33L36.7 32.8C36.9 33 37.3 33.5 37.1 33.6C37.3 33.4 37.4 33 37.4 32.6C37.8 32.6 38 32.6 38 32.6C37.8 32.5 37.6 32.4 37.5 32.3C37.6 31.9 37.7 31.6 38.1 31.5C38.2 31.6 38.1 31.7 38.2 31.7C38.2 31.5 38.2 31.3 38.1 31.1C38.2 31.2 38.3 31.4 38.2 31.4C38.4 30.9 39 31.4 39 31C39.2 31.3 39 31.3 39.1 31.4C39.6 31.4 39.1 30.4 39.5 30.2C39.6 30.7 39.8 30.5 40.1 30.7C40.1 30.2 40.7 29.7 41 29.2C41.3 29.9 41.4 29.6 41.6 29.5C41.5 29.6 41.3 29.7 41.2 29.8C41.2 30.1 41.4 30.3 41.4 30.6C41.4 30.5 41.4 30.5 41.5 30.4L42.2 30.9C42.1 30.6 42.3 30.5 42.4 30.3C42.4 30.3 42.5 30.7 42.6 31.1C42.7 31.5 42.8 31.8 42.8 31.8C43.2 31.9 43.4 31.8 43.5 31.6C43.6 31.4 43.7 31.2 43.9 31.2C43.5 31 43.5 30.9 43.5 30.8C43.5 30.7 43.4 30.6 43 30.8L42.7 29.8C42.7 29.8 42.9 29.7 43.1 29.6C43.3 29.5 43.5 29.5 43.5 29.5C43.4 29.3 43.6 29.2 43.6 29L43.7 28.8C43.6 28.8 43.6 28.7 43.5 28.5C43.5 28.6 43.5 28.7 43.5 28.8H43.4L43.3 28.9C43.3 28.8 43.3 28.6 43.4 28.5L43.5 28.4C43.6 28.3 43.7 28.3 43.8 28.2C43.8 28.4 43.8 28.5 44 28.8C44.1 28.6 44.1 27.9 44.4 28.2V28.3C44.6 27.7 44.7 28.4 45 28.3V28.4C45 28.4 44.9 28.4 44.9 28.3C44.9 28.4 44.5 28.6 44.3 28.7C44.1 28.9 44.1 29 44.8 29C44.9 29.6 44.1 29.3 43.9 29.6C44.2 29.7 44 30 44.2 30.2C44.3 30.1 44.4 29.9 44.6 29.9C44.8 30.2 44.6 30.4 44.3 30.4C44.7 30.6 44.2 31 44.7 31.1C45 30.9 45.3 30.8 45.6 30.6C45.9 30.4 46 30.1 46.9 29.7C46.8 29.7 46.6 29.7 46.5 29.8H46.3H46.2C46 29.8 45.9 29.9 45.8 29.9C45.5 29.9 45.2 29.9 45 29.8C45 29.8 45 29.7 45 29.5C45 29.4 45 29.2 45 29.2C45.4 29.4 45.6 29.5 45.8 29.4C46.1 29.4 46.2 29.3 46.7 29.3C46.7 29.3 46.6 29.3 46.3 29.3C46.1 29.3 46 29.2 45.8 29.2C45.4 29.1 45.1 29.1 45.1 29.1C44.3 28.7 44.7 28.5 45.3 28.4C45.2 28.4 45.1 28.4 45.1 28.3L45.2 27.9C45.3 27.9 45.4 28 45.5 28.1C45.6 28.2 45.8 28.2 45.8 28.3C45.9 28.4 46 28.6 46 28.6V28.7C46.3 29.2 46.6 28.6 46.8 28.8C46.6 28.5 46.6 28.5 46.5 28C46.6 28 46.7 28 46.7 28C46.8 28.2 46.8 28.3 46.8 28.4C47.1 28.2 47.4 28.5 47.7 28.3C47.7 28.3 47.7 28.3 47.7 28.2C47.8 28.3 48 28.4 48.1 28.5C48.1 28.5 48.1 28.5 48.2 28.5C48.3 28.6 48.4 28.7 48.5 28.8C49 29 48.5 29.3 48.3 29.6C48.3 29.4 48.4 29.3 48.3 29.2C48.1 29.5 47.6 29 47.8 30C47.7 30.1 47.6 29.9 47.5 29.7C47.5 30.8 46.6 29.4 46.9 30.8C47 30.7 47.1 30.7 47.2 30.4L47.4 31.3C47.6 31.2 47.3 30.6 47.5 30.5H47.4C47.5 30.2 47.9 30.3 48.1 30.2C48.1 30.5 48.3 30.5 48.3 31C48.4 30.9 48.5 30.7 48.6 30.3C48.7 30.4 48.8 30 48.9 30.2C48.9 30 48.9 29.7 48.9 29.6C49.1 29.5 49.2 29.4 49.4 29.3C49.1 30.1 48.9 31.5 48.7 32.3C48.6 31.8 48.3 32 48.1 31.9C48.1 31.4 48.2 31.2 48.3 31.1C48.2 31.1 48.1 31.1 48 31.1L48.1 32.1C47.7 32.3 48.1 31.3 47.8 31.1C47.7 31.2 47.7 31.6 47.7 31.7C48 31.3 47.9 33 48.2 32.7C48.3 33.4 48.1 33.5 48 33.3C47.7 32.7 48 32.8 47.9 32.1C47.8 32.2 47.8 32.4 47.8 32.7C47.5 32.6 47.6 33.6 47.2 32.7C47.1 32.9 47.2 33.2 47.2 33.6C47.4 34.3 47.5 33.9 47.7 34.5C47.7 34.4 47.6 34.3 47.6 34.2L47.8 34.3C47.6 34.1 47.6 33.6 47.7 33.5C47.7 33.5 47.8 33.4 47.9 33.6V33.8C48 34 48 33.2 48.2 33.6C48.2 33.8 48.2 33.8 48.2 33.9C48.2 33.4 48.3 33.4 48.4 33V33.7C48.4 32.9 48.7 33.1 49 33.5C49 33.4 48.9 33.3 48.9 33.2C49 33 49.1 33.5 49.1 33.9C49.1 33.3 49.6 34.4 49.6 33.6C49.6 33.6 49.7 32.7 49.9 31.7C50.1 30.8 50.3 29.9 50.3 29.9C50.3 30 50.2 30.1 50.2 30.1C50.1 29.5 50.1 29.5 50.2 28.9C50.1 29.2 50.1 29.7 49.9 29.8C49.9 29.6 50 29.2 49.9 29C50 29 50.1 28.9 50.3 28.9C50.4 28.9 50.4 29 50.4 29C50.4 29 50.4 29 50.4 29.1C50.4 29.1 50.3 29.2 50.2 29.2L50.4 29.1C50.4 29.2 50.4 29.3 50.4 29.3L50.5 29L51 28.8C51 29 52.7 29.2 51.7 29.5C51.6 29.5 51.3 29.5 51.1 29.4C51.3 29.5 51.4 29.5 51.6 29.6C51.2 30.1 51.5 31.2 51.2 31.5L51 31.3L50.9 32.1C50.8 32.1 51 31.4 50.8 31.5C50.7 31.9 50.6 31.5 50.6 31.8C50.6 31.6 50.6 31.4 50.5 31.4C50.5 31.5 50.5 31.8 50.4 31.8C50.3 31 50.6 31.6 50.5 30.9C50.2 30.9 50.4 31.7 50.3 32C50.3 31.9 50.3 32 50.4 32C50.4 32.3 50.3 32 50.3 32.4C50.3 32.4 50.4 32.4 50.4 32.3C50.3 32.6 50.5 32.9 50.6 32.9C50.8 32.5 51.1 32.7 51.3 32.6C51.3 32.6 51.2 32.7 51.3 32.8C51.6 32.8 51.7 33 52 32.9L52.1 32.3C52.4 32.3 52.5 30.6 52.6 30.5C52.7 30.5 52.8 30.1 52.8 30.4L52.7 30.6C52.9 30.5 52.9 30.3 52.9 30.2C53.1 30.3 53.2 30.3 53.4 30.4C53.3 30.5 53.3 30.5 53.1 30.5C52.9 31.1 52.8 31.5 52.7 32C52.8 31.9 52.9 31.4 53 31.4C53.1 31.6 52.9 31.7 52.9 31.9C53.2 31.2 53 32.6 53.3 31.9C53.4 31.2 53.4 31.2 53.4 30.8C53.6 30.6 53.6 31.1 53.5 31.7L53.6 31.2C53.6 31.3 53.7 31.4 53.7 31.5L53.8 31.2C53.8 30.8 53.8 30.5 53.6 30.7C53.6 30.6 53.6 30.6 53.7 30.5C54 30.6 54.2 30.7 54.4 30.8C54.4 30.9 54.5 30.9 54.6 30.9C54.5 31 54.3 30.7 54.1 31.1C54.1 31.6 54.4 31 54.4 31.1C54.2 31.3 54.2 31.5 54.2 31.8L54.3 31.5C54.3 31.5 54.4 31.5 54.4 31.6C54.4 31.5 54.4 31.4 54.4 31.4C54.5 31.3 54.5 31.2 54.6 31.2C54.7 31.3 54.7 31.4 54.7 31.4H54.6C54.5 31.9 54.7 31.4 54.7 31.5L54.5 32C54.5 32.1 54.7 31.6 54.8 31.4C54.9 31.4 54.9 31.4 55 31.4C54.9 31.6 54.8 31.5 54.7 31.9C54.8 31.8 55 31.4 55.1 31.4C55.1 31.4 55.1 31.4 55.1 31.5C54.9 31.9 55 31.9 54.8 32.1C54.8 32.1 54.9 31.9 55.1 31.7C55.2 31.5 55.4 31.3 55.4 31.3C55.4 31.4 55.5 31.5 55.7 31.3C55.6 31.4 55.6 31.4 55.6 31.3C55.6 31.3 55.6 31.2 55.7 31.2C55.8 31.2 55.8 31.2 55.9 31.2C55.9 31.3 55.8 31.5 56 31.4L55.8 31.6C55.8 31.8 56 31.6 56.3 31.5L56 31.9C56.5 31.3 56.7 31.3 56.9 31.2C56.7 31.3 56.7 31.2 56.7 31.1C56.9 30.8 56.8 30.4 57.7 30.4C57.7 30.4 57.5 30.3 57.3 30.2C57.3 30.2 57.3 30.2 57.2 30.2C57.3 30.1 57.5 30 57.7 29.8C57.7 29.9 57.7 30 57.6 30.1C57.7 30 57.9 29.8 58.1 29.7C58.2 29.7 58.2 29.7 58.3 29.7V29.8C58.3 30.2 59.4 29.1 59.4 29.6C58.9 30.1 58.6 30 58.1 30.2C57.8 30.7 57.7 30.2 57.2 31L57.5 30.7C57.5 30.8 57.3 31 57.2 31C57.4 31 57.2 31.1 57.5 30.8C57.7 30.9 57.5 31.1 57.2 31.3C57 31.5 56.9 31.6 56.9 31.8C56.7 31.9 56.7 31.8 56.4 32.1V31.9L56 32.3C56.1 32.4 56.5 32.1 57.2 31.7V31.8C57.1 31.9 57 31.9 57 31.9C56.9 32.1 56.5 32.4 56.4 32.5C56.7 32.4 57 32 57.2 31.8C57.2 31.9 57.3 31.9 57.4 32C57.2 32.2 57 32.4 56.5 32.6C56.2 32.9 57 32.7 57.2 33L56.8 33.1C55.9 33.8 57.7 33 58.1 33.1C57.6 33.1 57.7 33.4 57.3 33.6C57.7 33.6 58.5 33.5 58.5 33.8C58 34 57.2 34.2 57.2 34.4H57.7C57.7 34.6 58.1 34.7 57.8 34.8C57.6 35 58.3 34.9 58.4 34.7L58.7 34.8H58.5C58.9 35 59.7 35 59.9 35.4C59.4 35.4 59 35.8 58.8 35.5C59.1 35.6 59.3 35.4 59.5 35.3C59.6 35.2 59 35.1 59 35.1C58.7 35.2 58 35.3 57.6 35.3C58.5 35.4 57.8 36.1 59.2 36.1C59.2 36.4 59.5 36.8 59.3 37.2C59.4 37.2 59.5 37.1 59.6 37.1L59 37.5L58.9 37.4L58.5 37.6C58.3 37.6 58.1 37.6 58 37.5C57.9 37.5 58.1 37.4 58.2 37.4C57.7 37.2 58 37.6 57.5 37.5C57.6 37.4 57.5 37.4 57.5 37.3C57.2 37.6 58 37.7 57.3 37.9C57.8 38 58.3 38.3 57.9 38.5C57.6 38.4 58 38.8 57.3 38.7C57.6 38.8 57.2 39 57.6 39.1C57.5 39.1 57.5 39 57.6 38.9C57.8 39 58.1 39 58.1 39.1C58 39.1 57.9 39.1 57.9 39.1C58.2 39.3 59.2 39.1 59.2 39.4C59.5 40.2 57.8 39.3 57.6 39.4C57.9 39.4 58.2 39.8 57.9 40H57.8C57.9 40.1 58.2 40.2 57.9 40.3C58.4 40.3 58.9 40.4 59.2 40.5L59.3 40.9L59 40.8C59.1 40.9 59.1 41 59.2 41C58.8 41 58.9 40.9 58.8 40.8C58.5 40.9 58.5 41 58.9 41V40.9C59.1 41 59.7 41.3 59.8 41C60.2 41.2 59.4 41.3 59.6 41.4C59.3 41.4 59.2 41.3 58.9 41.4C58.8 41.6 58.8 41.7 59 41.8C59.1 41.7 59.3 41.8 59.5 41.6C59.7 41.7 59.8 41.9 59.9 41.8C59.8 41.7 59.7 41.7 59.9 41.6C60.1 41.8 60.1 42 59.9 42.2C59.8 42.2 59.7 42.2 59.7 42.2C60 42.3 60.1 42.5 60.2 42.6C60.2 44.5 60.1 46.8 60 48.7C59.8 48.6 59.6 49.4 59.3 49.9C59.5 50.1 59.7 50.2 59.8 50.3C59.8 50.4 59.9 50.3 60 50.3C60.1 50.3 60.1 50.3 60.1 50.3C60.3 50.3 60.4 50.4 61 50.6C61 50.6 61 50.1 61 49.7C61 49.4 61 49 61 49C61.1 49.1 61.3 49.1 61.5 49.2C61.7 49.3 61.9 49.3 62 49.3C62.8 48.6 63.4 48.2 63.8 48.2C62.8 47.8 66.9 45.3 68.3 44.1C69 43.9 69.8 43.2 70.5 42.8C70.8 42.6 71.2 42.4 71.4 42.2C71.7 42.1 71.9 42 72.1 42.1L71.9 42.2C71.9 42.2 72 42.1 72.2 42C72.4 41.9 72.7 41.8 72.9 41.7C73.4 41.5 74 41.4 74 41.4L73.8 42.4L74.1 42.3C74.2 42.3 74.3 42.3 74.3 42.3C74.5 42.3 74.6 42.2 74.8 42.2C75.2 42.1 75.3 42.1 75.4 42C75.6 41.8 75.8 41.6 75.7 41.5C76.3 41.7 75.9 41.8 76 42.2C75.8 42.3 75.6 42.6 75.4 42.7C75.4 42.7 75 42.9 74.8 42.9C74.6 42.9 74.4 42.9 74.3 42.7C74.4 42.7 74.7 42.7 74.8 42.6C74.6 42.6 74.4 42.6 74.2 42.7C74 42.8 73.8 42.9 73.6 42.9C73.3 43 73 43.2 72.8 43.3C71.2 45 71 45.2 71 45.4C70.9 45.8 71.1 46.1 69.7 47.1C70.4 46.7 70.9 46.5 71.5 46.2C71.8 46.1 72.1 46 72.4 45.9C72.7 45.8 73.1 45.6 73.3 45.5C73.4 45.5 73.6 45.4 73.9 45.3C74 45.3 74.2 45.2 74.3 45.2L74.4 45.1C74.6 45 74.8 44.8 75 44.7C74.8 44.9 74.7 44.9 74.5 44.8C74.4 44.8 74.3 44.7 74.3 44.6C74.3 44.6 74.1 44.6 74 44.5C73.9 44.5 73.8 44.5 73.6 44.5C73.8 44.5 74 44.4 74.1 44.4C74.3 44.3 74.2 44.3 74.3 44.3C74.4 44.2 74.5 44.2 74.6 44.3L74.5 44.4L74.8 44.1C74.9 44.6 75.5 44.4 75.1 44.9C75.4 44.8 75.3 44.5 75.6 44.4C75.6 44.4 75.5 44.3 75.3 44.2C75.1 44.1 75 44.1 75 44.1L75.1 43.6C75.5 43.3 75.5 43.7 75.8 43.7L75.9 43.1C75.9 43.1 75.9 43.1 76 43.2C76 43.3 76.1 43.4 76.1 43.4C76.2 43.6 76.3 43.7 76.3 43.7C76.4 43.3 76.8 43.7 76.9 43.7C77.1 44.1 76.3 44.7 77.1 44.6V44.5C77.5 44.6 77.7 44.7 77.9 45.2C77.8 45.2 77.7 45.2 77.6 45.1C77.7 45.5 78.1 45.8 78.4 46.2C78.7 46.6 78.8 47.1 78.5 47.4C78 47.5 78.2 47.1 77.7 47.2C77.8 46.5 77.5 46.4 77.2 46.4C76.9 46.3 76.5 46.3 76.4 45.8C76.8 45.4 76.5 45.3 76.3 45.3C76 45.3 75.8 45.4 76.1 44.8C76.2 44.9 76.4 44.9 76.6 44.9C76.8 44.9 77.1 44.8 77.1 44.8C76.7 44.5 76.4 44.3 76.2 44.1C76.2 44.5 75.8 45.1 75.5 45.4C75.9 45.2 76 46.4 76.3 47.2L76.9 46.8C77.7 47.4 76.3 47 76.5 47.6C76.5 47.6 76.6 47.6 76.8 47.6C76.9 47.6 77.1 47.7 77.1 47.7V47.8C77.1 47.8 77.8 48.1 77.9 48.1C77.8 47.7 77.3 48 77.5 47.6C77.6 47.2 78 47.4 78.4 47.4C78.3 47.7 78.6 48.7 78 48.2C78 48.2 78.2 48.4 78.5 48.7C78.7 49 78.9 49.3 78.9 49.3C78.6 49.3 78.5 49 78.3 48.9C78.3 48.9 78.4 49.1 78.4 49.3C78.5 49.5 78.5 49.8 78.5 49.8H78.4C78.8 50.6 78.7 51.8 79.1 52.5C79.8 51 79.6 53.3 80 53.2C79.8 53.8 78.6 53.8 78.3 52.5C78.7 52.2 78.3 51.4 78.3 50.8C78 51.5 78.3 51.7 78.3 52.3C78 51.8 77.8 53 77.5 53C77.3 52.9 76.8 52.6 77.1 51.9C77.2 50.9 77.8 51.8 77.7 51.5C78 51.4 78 51 78 50.6C77.9 50.2 77.8 49.8 77.8 49.5C77.9 49.4 77.9 49.6 78 49.7C78 49.2 77.8 48.2 77.3 48.3L77.8 49.3C77.7 49.6 77.4 49 77.1 49.4C77.2 49.6 77.3 50 77.2 50.3L77 50.2C76.6 50.9 76.7 52.2 76.7 53.3C77.7 53.7 78.2 54.4 79.2 55.1C79.1 55.9 78.9 56.6 78.7 57.1C78.6 57.4 78.5 57.6 78.3 57.8C78.2 58 78 58.1 77.9 58.3L77.8 58.4C77.8 58.3 77.7 58.2 77.7 58.2C77.6 58 77.7 57.8 77.7 57.6C77.7 57.4 77.8 57.3 77.9 56.9L78 57.3C78.2 57.1 77.9 56.6 77.8 56.2ZM44.9 65.1L45 64.9C45 65 44.9 65 44.9 65.1C45.1 64.8 45.2 64.6 45.3 64.5C45.3 64.6 45.2 64.6 45.2 64.7L45.3 64.5C45.2 64.6 45.1 64.7 45.1 64.9L44.9 65.1ZM23.6 48.9C23.7 48.9 23.7 48.8 23.8 48.8C23.8 48.8 23.8 48.8 23.9 48.8C23.9 48.8 23.8 48.8 23.8 48.9C23.7 49 23.7 49 23.8 49C23.4 49.2 23.3 49.2 22.9 49.3C22.8 49.3 23.2 49 23.6 48.9ZM48.3 30.5C48.2 30.6 48.2 30.5 48.3 30.5ZM87.8 56.9C87.4 57.5 87.2 57.2 87.2 56.7C87.1 56.2 87.1 55.6 87.1 55.6C87.1 55.6 87.1 56 87 56.4C87 56.8 86.9 57.3 86.9 57.3C86.7 56.5 86.2 57.2 86.1 56.2C86.1 57.2 85.6 57.2 85.7 58.3C85.4 57.6 85.2 58 85 58.4C84.8 58.9 84.5 59.5 84.2 59.5C84.4 58.3 85.6 56.4 85.7 56.7C85.5 56.7 85.8 55.4 86.1 54.9L85.5 54C85.4 54.9 85.5 56 84.9 55.6C84.9 55.6 84.9 55.9 85 56.2C85 56.5 85 56.8 85 56.8C84.3 55.4 84.3 55.5 84 54.4C83.5 55.4 83.5 56.4 83.5 57.3C83.5 58.2 83.4 59.2 82.7 59.9V59.6C82.4 60.5 81.9 61.1 81.5 61.5C80.8 62.1 80.2 62.3 79.6 62.3C79.1 62.3 78.6 62.1 78.2 61.9C78.5 61.6 78.8 61.3 79.1 61L79.5 61.3C79.8 61.1 80.1 60.8 80.3 60.5C81.1 59.1 80.7 57.8 81.3 56C81.7 56.4 81.2 57.2 81.5 57.1C81.9 55.8 80.6 55.7 81.5 54.5C81.3 56.5 81.9 53.3 82.1 55.2C82 53.9 82.2 52.6 82.4 51.5C82.6 50.3 82.8 49.3 82.6 48.5C82.3 49 82 48 81.9 48C81.9 47.6 82.2 47.7 82.3 48C82.4 47.2 82.8 46.9 83.2 47C83.2 47 83.3 47.4 83.4 47.9C83.5 48.3 83.5 48.8 83.5 48.8C83.6 48.2 83.8 47.8 83.8 47.3C83.8 47.1 83.7 46.8 83.5 46.6C83.3 46.3 83.2 46.4 83 46.5C82.5 46 81.9 45.5 81.2 45H81.3C81.3 45 81.1 44.6 80.8 44.3C80.6 44 80.3 43.6 80.3 43.6H80.6C80.6 43.6 80.4 43.4 80.1 43.3C79.9 43.2 79.6 43.1 79.6 43.1C80 42.8 79.6 42.7 79.9 42.5C80 42 79.5 41.6 78.9 41.3C78.3 41 77.5 40.9 77 40.5L77.3 40.3C77.1 40.3 76.8 40.3 76.5 40.3C76.2 40.2 75.9 40.2 75.5 40.1C74.8 39.9 74 39.8 73.3 39.8V39.7C74.1 39.4 74.2 39.1 73.9 38.9C74.2 38.8 74.6 38.7 74.9 38.6C75.4 38.6 76.8 38.7 76.7 39.2C75.8 39 75.8 39.1 76.2 39.5C76.4 39.4 76.7 39.5 77 39.5C77.3 39.6 77.6 39.6 77.9 39.7C78.4 39.8 78.9 40 79 39.6C80.2 40.3 79.3 39.9 79.9 40.7C79.9 41 79.5 40.9 79.1 40.8C79.1 40.8 79.9 41.3 80.6 41.9C81.3 42.5 81.9 43.3 81.9 43.3C82.2 43.2 82 42.6 81.8 42.1C81.6 41.6 81.5 41.2 82.2 41.6C82.5 41.8 83.3 41.2 83.9 42.7C83.8 42.8 83.7 42.7 83.6 42.6C84 43.2 83.9 43.4 84.1 44.1C83.7 44.5 83.4 43.4 82.8 43.2C83.1 43.5 83.6 43.9 83.7 44.4H83.5C83.5 44.4 83.7 44.7 83.8 45.1C84 45.4 84.1 45.8 84.1 45.8C84.7 46.3 83.8 44.7 84 44.5C84 44.5 84.2 44.7 84.3 44.9C84.5 45.1 84.6 45.3 84.6 45.3C84.8 45.8 85.2 46.8 85.3 47.9C85.4 48.9 85.3 49.9 84.9 50.4C84.6 51.6 85.3 51.1 85.6 51.4C86 52.2 85.4 52.9 85.5 53.6C85.9 53.6 85.8 54.5 86.3 54.6L86 55.8C86.7 56.6 86.4 54.4 86.7 54.1C87.5 53.5 86.8 55 87.3 54.7C87.3 53.7 87 53.6 86.9 53.1C86.9 52.5 87.1 52.2 87.4 52.3C87 53.9 87.9 53.2 87.6 54.5H87.4C88.3 54.5 87.7 56.2 87.8 56.9Z" fill="#fff"/>
<path d="M38.6 71.2L38.5 71.1C38.6 71.1 38.6 71.2 38.6 71.2Z" fill="#fff"/>
<path d="M44.9 65.1C45 65 45 64.9 45 64.9C45 64.9 44.9 65 44.9 65.1Z" fill="#fff"/>
<path d="M66.7 64.6L67.7 64.1V64H67.6H67.4C67.3 64.1 67.3 64.2 67.2 64.3C67.2 64.2 67.2 64.2 67.2 64.1L66.5 64.5C66.5 64.5 66.6 64.6 66.7 64.6Z" fill="#fff"/>
<path d="M67.2 63.9C67.1 63.9 67 63.9 66.9 63.8H66.8C66.6 64 66.5 64.1 66.5 64.3L67.2 63.9Z" fill="#fff"/>
<path d="M45.4 64.3L45.3 64.4C45.7 63.9 45.4 64.3 45.4 64.3Z" fill="#fff"/>
<path d="M66.9 64.7C66.8 64.7 66.8 64.6 66.7 64.6L66.5 64.7C66.6 64.8 66.7 64.8 66.9 64.7Z" fill="#fff"/>
<path d="M63 55.6L62.2 57.4L67 57.1L63 55.6Z" fill="#fff"/>
<path d="M66.2 64.9L66.5 64.8C66.4 64.8 66.3 64.8 66.3 64.7C66.2 64.7 66.2 64.8 66.2 64.9Z" fill="#fff"/>
<path d="M67 64.8C66.9 64.8 66.8 64.8 66.8 64.8L66.4 65C66.7 65.2 66.9 65.4 67.1 65.7H67.2C67.3 65.8 67.5 65.9 67.7 66C67.8 66 67.8 66.1 67.9 66.1C68.1 65.3 68.1 64.8 68.2 64.1H68.1L66.9 64.7L67 64.8Z" fill="#fff"/>
<path d="M69.3 56.8C69.3 56.8 71 57.5 70.9 57.5C70.6 57.5 70.6 57.6 70.4 57.6C71.6 57.5 71.9 58 72.6 57.5C73 57.8 71.9 57.8 72.3 58C71.9 58.1 71.3 58.6 71 59C72.2 59.4 71.9 58.4 72.8 58.3C72.8 58.3 73 58.4 73.1 58.6C73.3 58.7 73.4 58.8 73.4 58.8C73.8 58.7 73.3 58.5 73.3 58.4C73.7 58.3 73.9 58.6 74.2 58.6C74.1 58.4 74 58.2 74 58C74.5 58.4 74.8 58 75.4 58.7C75.1 58.4 75.3 57.7 75.4 57.6C75.4 57.6 75.2 57.5 75 57.3C74.8 57.2 74.6 57 74.6 57C74.2 57.2 73.9 57.2 73.4 57.2C72.9 57.2 72.3 57.1 71.4 57.1L71.6 56.8C70.1 55.9 69.2 56.2 68.3 56.6L67 57.1L68.1 57C68.7 57 69.5 57.1 69.3 56.8Z" fill="#fff"/>
<path d="M60.3 57.5L60.1 59.6L61.5 59.1L62.2 57.4L60.3 57.5Z" fill="#fff"/>
<path d="M23.5 45.1C23.5 45.6 23.5 46.1 23.6 46.5C23.6 46.1 23.6 45.6 23.5 45.1Z" fill="#fff"/>
<path d="M25.5 43H25.7V42.9C25.7 42.8 25.7 42.8 25.7 42.7V42.4V42C25.7 41.9 25.7 41.7 25.7 41.7C25.7 41.6 25.7 41.4 25.7 41.3C25.7 41.4 25.7 41.6 25.6 41.7C25.6 42 25.6 42.5 25.6 42.9V43C25.6 43 25.4 43 25.3 43.1C24.8 43.2 24.3 43.3 23.8 43.4H23.6C23.5 43.4 23.5 43.4 23.5 43.4V43.5V43.6C23.5 43.9 23.5 44.2 23.5 44.6C23.5 44.8 23.5 45 23.5 45.2C23.5 45.1 23.5 45.1 23.5 45V44.1V43.7V43.5C23.4 43.5 23.8 43.4 24 43.4L24.7 43.2L25.5 43Z" fill="#fff"/>
<path d="M69.2 44.6C66.5 46.6 64.7 48.5 61.7 50.8C63.3 50.1 65 48.7 66.3 47.5C67.7 46.3 68.8 45.3 70.2 44.8C70.1 44.8 69.1 44.6 69.2 44.6Z" fill="#fff"/>
<path d="M69.5 46C67.4 47.5 68.4 47.4 66.4 48.6L67.1 48.9C67 48.6 67.7 47.9 68.3 47.3C69.1 46.7 69.7 46.1 69.5 46Z" fill="#fff"/>
<path d="M68.3 36.4C68.3 36.4 68.4 36.4 68.5 36.3C68.6 36.3 68.7 36.2 68.7 36.2H68.6L68.3 36.4Z" fill="#fff"/>
<path d="M75.6 44.7L75.5 44.8L75.7 45.1C75.6 45.1 75.6 44.7 75.6 44.7Z" fill="#fff"/>
<path d="M69.6 34.9L69.7 34.5L69.4 34.7L69.6 34.9Z" fill="#fff"/>
<path d="M70.2 37.9L69.6 38.3C69.7 38.2 70.3 38.2 70.2 37.9Z" fill="#fff"/>
<path d="M76.8 46L77.2 46.2V46.1C77.2 46.1 76.8 45.9 76.8 46Z" fill="#fff"/>
<path d="M75.3 34.8C74.2 34.8 74.4 35 74.6 35.2C74.5 34.8 76.6 35.2 75.3 34.8Z" fill="#fff"/>
<path d="M74.7 35.3L74.6 35.2C74.6 35.2 74.7 35.2 74.7 35.3Z" fill="#fff"/>
<path d="M83.1 44.1C82.9 43.8 82.9 43.3 82.7 43.2C82.7 43.7 82.8 43.8 83.1 44.1Z" fill="#fff"/>
<path d="M84.4 48.2V47.9C84.7 48.2 84.6 48.1 84.4 47.8C84.3 47.4 84.2 47.5 84.1 47.5C84 47.4 84 47.4 83.9 47.3C84 47.4 84.1 47.5 84.1 47.6C84.1 48.1 84.2 48.4 84.4 48.2Z" fill="#fff"/>
<path d="M75.6 56.7C75.6 56.8 75.6 56.8 75.5 56.8C75.4 56.8 75.4 56.8 75.4 57C75.6 57.1 75.7 57.1 76 57.3C76 57.3 76.1 57.3 76.1 57.2C76.1 57.1 75.7 56.8 75.6 56.7Z" fill="#fff"/>
<path d="M87.3 42.1L87.1 41.8C87.1 41.8 86.9 41.7 86.7 41.6C86.5 41.5 86.3 41.4 86.3 41.4C86.3 41.4 86.6 41.6 86.8 41.7C87.1 42 87.3 42.1 87.3 42.1Z" fill="#fff"/>
<path d="M75.2 56.9C75.2 56.9 75.2 56.9 75.3 57C75.1 56.7 75.1 56.9 75.2 56.9Z" fill="#fff"/>
<path d="M81.6 60.4C81.9 60.4 82.1 59.7 82.3 59.4C82 59.9 81.3 59.9 81.6 60.4Z" fill="#fff"/>
<path d="M74.3 58.7C74.4 58.7 74.6 58.9 74.6 59.2C74.8 59 74.9 58.4 74.3 58.7Z" fill="#fff"/>
<path d="M80.2 62.1H80.4C80.4 62.1 80.5 61.9 80.6 61.7C80.7 61.5 80.8 61.3 80.8 61.3C80.8 61.3 80.7 61.5 80.5 61.7C80.3 61.9 80.2 62.1 80.2 62.1Z" fill="#fff"/>
<path d="M85.9 62.1C85.5 62.4 85.1 62.5 85.5 61.4C84.6 62.6 84.7 62.6 85 62.6C85.2 62.6 85.6 62.5 85 63.4C85.9 62.4 86.6 62 86.7 62.2C86.8 61.4 86.3 61.9 85.9 62.1Z" fill="#fff"/>
<path d="M84.9 63.4C84.8 63.6 84.6 63.7 84.5 63.9C84.7 63.7 84.8 63.6 84.9 63.4Z" fill="#fff"/>
<path d="M80.9 66.7C80.7 67 80.3 67.3 79.8 67.5C79.4 67.8 78.9 68 78.4 68.2C77.5 68.6 76.8 68.9 76.9 69.2C78 69.1 79.3 68.5 79.7 68L79.2 68.1C79.2 68.1 79.6 67.8 80 67.4C80.6 67.1 80.9 66.7 80.9 66.7Z" fill="#fff"/>
<path d="M58.2 66.7C58.2 66.5 58.1 66.4 58.1 66.4L57.9 67.1C58 66.9 58.5 67.3 58.2 67C58.3 67 58.2 66.9 58.2 66.7Z" fill="#fff"/>
<path d="M72.1 65.7C72.6 65.8 73 65.8 73.4 65.7C73.2 65.6 72 65.4 72.1 65.7Z" fill="#fff"/>
<path d="M58.9 68.2C59 68.2 58.9 68 58.9 68V68.2Z" fill="#fff"/>
<path d="M57.6 67.9L57.7 68V67.8L57.6 67.7V67.9Z" fill="#fff"/>
<path d="M69.8 71.1C69.8 71.1 69.7 71.6 69.6 72.1C69.5 72.6 69.3 73.1 69.3 73.1C69.9 72.8 69.5 72.6 69.9 71.5C69.9 71.5 69.9 71.9 70 72.2C70 72.6 70 72.9 70 72.9C70.4 71.9 69.9 70.8 69.8 71.1Z" fill="#fff"/>
<path d="M36.6 60.8C36.6 60.7 36.6 60.7 36.6 60.8C36.5 60.7 36.5 60.7 36.6 60.8C36.5 60.7 36.5 60.6 36.3 60.5C35.5 60.7 34.9 60.7 34.2 60.8C33.6 60.9 32.9 61 32.4 61.3C32.7 61.4 32.7 61.6 32.4 61.8C32.3 61.9 32.1 62 31.8 62.2C31.7 62.2 31.7 62.3 31.7 62.3V62.4L31.6 62.5C31.6 62.5 31.3 62.4 31 62.6L30.5 62.7H30.3C30.2 62.6 30.3 62.5 30.7 62.3C30.6 62.4 30.2 62.4 29.9 62.5C29.6 62.5 29.2 62.6 29.3 62.8C29.3 62.8 28.6 62.8 27.9 62.8C27.2 62.8 26.6 62.8 26.6 62.8C26.5 62.8 26.5 62.7 26.4 62.6C26.3 62.7 26.3 62.7 26.3 62.8C26.3 62.8 25.6 62.8 24.8 62.7C24 62.6 23.1 62.4 22.5 62.1C22 61.9 21.6 61.6 21.3 61.2C21 60.8 20.8 60.5 20.8 60.5C20.8 60.6 20.8 60.8 20.8 60.9C20.8 61 20.8 61.2 20.9 61.4C20.5 61.4 20.6 61.5 20.7 61.7C20.8 61.8 20.9 62 20.7 62.2C20.6 62.2 20.4 62.1 20.3 62C20.2 61.9 20.2 61.7 20.2 61.6C19.9 61.7 19.9 62.1 19.6 62.3C19.7 62.6 19.8 62.7 20 62.7C20.2 62.8 20.3 62.8 20.5 62.7C20.7 62.7 20.9 62.6 21 62.7C21.2 62.7 21.3 62.7 21.4 62.9C21.2 63.2 20.8 63.3 21.3 63.6H21.1C22 63.6 21.4 64.7 22.3 64L22 64.2C22.6 64 23.5 64.2 24.2 64.3L24.1 64.4C25 64.2 25.3 64.2 25.6 64.2C25.9 64.2 26.2 64.3 27.4 64.2L26.3 64.8C27.1 65.1 27.3 64.4 27.9 64.5C27.9 64.6 27.9 64.9 27.6 65C27.9 64.9 28.4 64.8 28.9 64.6C29.3 64.5 29.7 64.4 30 64.3C30.3 64.2 30.4 64.1 30.4 64.1C31 63.7 30.3 63.7 30.2 63.5C30.3 63.3 30.7 63.3 30.9 63.3C31.2 63.3 31.3 63.4 31.4 63.6C31.3 63.8 30.9 63.9 31.2 64.1C31.2 64.1 31.4 63.9 31.5 63.7C31.5 63.6 31.6 63.5 31.6 63.4C31.6 63.3 31.6 63.3 31.6 63.3C31.8 63.5 31.9 63.8 31.7 64.1C31.6 64.4 31 64.7 30.7 64.8C31.3 64.8 31.6 64.7 31.8 64.5L31.9 64.4C31.9 64.3 32 64.4 32 64.2L32.1 64.1C32.2 64 32.4 64 32.5 63.9C32.8 63.7 33.1 63.6 33.4 63.5C33 63.6 32.7 63.7 32.4 63.8C32.3 63.8 32.1 63.9 32 63.9H31.9C31.9 63.8 31.9 63.6 31.9 63.5C32.1 63.3 32.5 63.1 32.9 62.9C33.3 62.7 33.8 62.5 34.3 62.4C34.8 62.3 35.2 62.2 35.6 62.1C34.5 62.1 35.1 61.7 35.9 61.3C36.1 61.3 36.2 61.2 36.2 61.2L36.6 60.8V61.1V61.5V62.2C36.6 62.2 36.6 61.6 36.6 61V60.8Z" fill="#fff"/>
<path d="M27.7 64.9C27.6 64.9 27.5 65 27.5 65C27.6 65 27.7 65 27.7 64.9Z" fill="#fff"/>
<path d="M20.7 60.2C20.7 60.1 20.6 60 20.5 59.8C20.5 59.9 20.7 60.2 20.7 60.2Z" fill="#fff"/>
<path d="M38.8 65.3C38.8 65.3 38.7 65.3 38.4 65.4H38C38 65.5 37.7 65.6 37.8 65.6C38 65.6 38.2 65.6 38.4 65.6C38.8 65.6 38.8 65.5 38.8 65.4C38.8 65.4 38.8 65.3 38.8 65.3C38.9 65.3 39.1 65.3 39.1 65.3H38.8Z" fill="#fff"/>
<path d="M37.3 65.2C37.3 65.2 37.2 65.3 37 65.3C36.9 65.3 36.9 65.4 36.8 65.3C36.8 64.3 36.7 63.3 36.7 62.2C36.7 62.2 36.7 63.5 36.8 65.3C36.9 65.4 37.1 65.3 37.3 65.4C37.7 65.4 38 65.4 38 65.4C38 65.3 37.9 65.2 37.3 65.2Z" fill="#fff"/>
<path d="M36.6 71.6C36.6 71.6 36.2 71.8 36.3 71.9L36.9 71.6H36.6Z" fill="#fff"/>
<path d="M32 72C32.5 72.3 33.5 71.9 33.8 71.7C32.7 72 33.2 71.8 32 72Z" fill="#fff"/>
<path d="M32.7 75.4H32.8C32.8 75.4 33.1 75.3 33.4 75.2C33.7 75.1 34 75 34 75C34 75 33.7 75.1 33.3 75.2C33 75.4 32.7 75.4 32.7 75.4Z" fill="#fff"/>
<path d="M17.7 54.1C17.9 54.3 18 54.4 18 54.4C17.9 54.4 17.8 54.2 17.7 54.1ZM18.1 54.4C18 54.4 18 54.4 18.1 54.4Z" fill="#fff"/>
<path d="M19.7 60.6C20 60.8 20.3 61 20.5 60.6L20 60.3L20.2 60.2C20.2 60.2 19.8 59.6 19.9 59.6C19.6 59.9 19.6 60 19.3 60.1C19.1 59.1 19.6 59.6 19.8 58.9C19.8 58.9 19.7 58.7 19.7 58.4C19.6 58.2 19.6 57.9 19.6 57.9L19.7 58C19.7 57.9 19.6 57.9 19.6 57.9C19.6 57.9 19.5 57.1 19.6 56.4C19.7 56.1 19.8 55.8 19.8 55.6C19.8 55.6 19.8 55.6 19.7 55.5C19.7 55.5 19.6 55.5 19.6 55.4L20.4 55.5L20.8 55.1L19.6 55.4L19.5 55.3C19.1 55.1 18.9 54.9 18.7 54.8C18.7 54.8 18.7 54.8 18.8 54.8L18.9 54.9C18.8 55 18.7 55.2 18.6 55.4C18.4 55.7 18.5 56.1 18.8 56.2C18.7 56.2 18.5 56.1 18.4 56.2L18.9 56.7L19.2 56.4C19.3 56.5 19.4 56.7 19.4 56.9C19.5 57.1 19.5 57.3 19.5 57.5C19.5 57.9 19.4 58.3 19.2 58.5C19.1 58.1 18.8 58 18.7 57.9C18.6 57.8 18.4 57.5 18.7 57C18.5 57 18.2 57.2 18.1 56.9C18.1 57.6 18.1 58.4 18.3 59.1C18.5 59.8 18.8 60.6 19.5 61.1C19.3 60.3 19.5 60.4 19.7 60.6Z" fill="#fff"/>
<path d="M18.6 54.8C18.5 54.7 18.3 54.6 18.1 54.4C18.2 54.5 18.3 54.6 18.6 54.8Z" fill="#fff"/>
<path d="M23.6 47.2L23.4 47C23.5 47.3 23.7 48 23.6 48.1L23.4 47.8L23.6 48.2C23.7 48.4 23.8 48.6 24 48.8C23.9 48.7 23.9 48.5 23.8 48.3C23.7 48 23.7 47.6 23.6 47.2Z" fill="#fff"/>
<path d="M24.1 49C24.2 49 24.3 49.1 24.4 49.1L24.1 49C24.1 48.9 24 48.9 24.1 49Z" fill="#fff"/>
<path d="M22.1 55C21.9 54.9 21.6 54.7 21.3 54.7C21.3 54.7 21.2 54.8 21 55C20.9 55.1 20.7 55.3 20.7 55.3C20.7 55.3 21 55.2 21.4 55.2C21.7 55 22.1 55 22.1 55Z" fill="#fff"/>
<path d="M23.2 52.5C23.3 52.2 23.4 51.8 23.6 51.3C23.6 51.2 23.2 52.4 23.2 52.5Z" fill="#fff"/>
<path d="M22.9 53.6L23.3 52.5C23.1 52.9 23 53.2 22.9 53.6Z" fill="#fff"/>
<path d="M23.5 53.7C23.5 53.7 23.4 53.7 23.3 53.7C23.2 53.7 23 53.7 23 53.7L22.7 55H22.2C22.4 55.1 22.7 55.3 23.1 55.4C23.2 55.2 23.4 54.6 23.5 53.7Z" fill="#fff"/>
<path d="M26.1 74.7L25.1 74.9L25.2 75L26.2 74.8L26.1 74.7Z" fill="#fff"/>
<path d="M20.4 73.6C20.1 73.6 19.9 73.6 19.7 73.6C20 73.7 20.3 73.7 20.4 73.6Z" fill="#fff"/>
<path d="M17.1 73.8C18.5 74 18.8 73.7 19.7 73.6C18.9 73.5 17.8 73 16.7 72.4C15.5 71.7 14.3 71 13.3 70.5C12 70.2 11.9 71.3 11.2 72C11.2 72.1 11.8 72.9 12.6 73.4C13 73.7 13.4 73.9 13.7 74.1C14 74.2 14.3 74.3 14.4 74.1C13.2 72.9 16.6 74.8 14.1 73.1C14.1 72.6 15.5 73 16.6 73.7C16.4 74 15.3 73.3 15.9 74C17 74.1 17.2 74.4 17.1 73.8Z" fill="#fff"/>
<path d="M16.4 76.2C17.1 76.5 17.3 76.6 17.7 76.6C17.8 76.3 17 76.4 16.4 76.2Z" fill="#fff"/>
<path d="M11.4 60.6L11.9 61.9C11.8 61.6 12 61.4 12.1 61.3C12 61.2 11.6 60.4 11.4 60.6Z" fill="#fff"/>
<path d="M11.9 61.9C11.9 62.1 12 62.2 12.2 62.4C12.2 62.5 11.9 61.9 11.9 61.9Z" fill="#fff"/>
<path d="M24.4 49.2C24.3 49.3 24.2 49.5 24.2 49.7C24.2 49.8 24.3 49.4 24.4 49.2Z" fill="#fff"/>
<path d="M27.9 37.9L28.1 38C28 37.9 28 37.9 27.9 37.9Z" fill="#fff"/>
<path d="M36.7 34.1C36.7 34.2 36.8 34.2 36.8 34.3C36.8 34.2 36.8 34.2 36.7 34.1Z" fill="#fff"/>
<path d="M50.1 30.8C50.2 30.7 50.2 30.5 50.2 30.3L50.1 30.8Z" fill="#fff"/>
<path d="M54.9 19.6L54.3 20C54.4 19.8 54.1 19.8 54.3 19.5C54.3 19.5 54.1 19.6 54.1 19.7H54.2C53.8 20.4 53.9 20.6 53.5 21.1C53.7 21.5 53.9 21.2 54.1 20.9C54.2 20.9 54.2 20.8 54.2 20.8L54.8 19.9L54.9 19.6Z" fill="#fff"/>
<path d="M38.1 27.8L38.2 28C38.1 27.9 38.2 27.7 38.1 27.8Z" fill="#fff"/>
<path d="M65.4 26.4L65.7 26.5C65.7 26.4 65.5 26.4 65.4 26.4Z" fill="#fff"/>
<path d="M55.8 21.6L55.6 21.7C55.7 21.6 55.8 21.6 55.8 21.6Z" fill="#fff"/>
<path d="M58.1 43.4C58.2 43.4 58.3 43.4 58.4 43.5C58.3 43.4 58.2 43.3 58.1 43.4Z" fill="#fff"/>
<path d="M58.3 36.1C58.4 36.1 58.4 36.1 58.4 36C58.3 36.1 58.3 36.1 58.3 36.1Z" fill="#fff"/>
<path d="M60.1 31.6C60 31.7 60 31.7 60.1 31.6Z" fill="#fff"/>
<path d="M59.1 44.6L58.9 44.5H58.8L59.1 44.7V44.6Z" fill="#fff"/>
<path d="M34.3 26.8C34.6 26.4 35 26.1 35.5 25.5L34.3 26.8Z" fill="#fff"/>
<path d="M58 38.2L57.6 38.1L57.8 38.2H58Z" fill="#fff"/>
<path d="M56.8 38.3L56.6 38.1L56.5 38.3H56.8Z" fill="#fff"/>
<path d="M58 36C57.5 36.2 57.8 35.8 57.5 36C57.6 36.2 57.8 36.1 58 36Z" fill="#fff"/>
<path d="M56.2 35H56.3L56.8 34.9L56.2 35Z" fill="#fff"/>
<path d="M64.4 24.7C64.7 24.5 64.2 24.3 64.3 24.4C64.4 24.4 64.5 24.5 64.4 24.7Z" fill="#fff"/>
<path d="M55.7 32.8C55.7 32.7 55.9 32.6 56 32.5C56.1 32.4 56.3 32.3 56.3 32.3C55.9 32.5 55.8 32.4 55.3 32.9C55.3 33.1 55.5 33 55.7 32.8Z" fill="#fff"/>
<path d="M59.2 20.8L59 20.6C59 20.7 58.7 21.1 58.9 20.9L59.2 20.8Z" fill="#fff"/>
<path d="M57.1 21.3V21.4H57.5L57.1 21.3Z" fill="#fff"/>
<path d="M56.1 20V19.9L55.8 20.1V20.2L56.1 20Z" fill="#fff"/>
<path d="M42.5 21.8C42.4 22 42.3 22 42.1 21.9C42.2 22.2 42.4 22.4 42.5 22.8C43 23 42.7 21.6 43.2 21.7C43.3 22.1 43.2 22.4 43.5 22.3V22.4C43.8 21.9 44 23.1 44.1 22.1L44.2 22.6C44.3 22.2 44.7 22.1 44.9 22V22.1C45.4 21.4 45.2 21.9 45.9 21.5L45.7 22.2C46 22.4 45.9 21.7 46.1 21.8C46.1 21.9 46.2 22.3 46.1 22.4C46.1 22.4 46.3 22.1 46.4 21.9C46.6 21.6 46.8 21.4 46.8 21.4C47 21 46.7 21 46.6 20.8C46.6 20.4 47 20.6 47.1 20.9C47.1 21 46.9 21.2 47 21.4L47.2 20.5C47.7 21 47 21.6 46.9 22C47.3 22 47.4 21.5 47.8 21.4C47.7 21.3 47.6 21.1 47.5 21C47.4 20.4 47.9 20.6 48.2 20.6C48 20.4 48.1 20.1 48.2 19.9V19.8V19.7C48.2 19.6 48.2 19.6 48.1 19.4C47.9 19.6 47.6 19.1 47.4 19.1C47.7 20 46.9 19.4 46.7 19.7L46.5 19.8H46.4C46.4 19.7 46.4 19.6 46.5 19.4C46.4 19.6 46 19.6 46.1 19.9L45.2 20.1L45.1 20C45.1 20.1 45.1 20.1 45.1 20.2C45.1 20.2 44.2 20.4 43.3 20.7C42.4 21 41.5 21.3 41.5 21.3C41.7 21.3 41.9 21.5 42.1 21.5C42 21.9 42.4 21.2 42.5 21.8Z" fill="#fff"/>
<path d="M41.2 21.1L41.4 21C41.4 21 41.3 21 41.2 21.1Z" fill="#fff"/>
<path d="M48.4 20.1L48.9 20C48.7 19.7 49 19.6 49 19.4L48.4 19.5C48.4 19.6 48.4 19.9 48.4 20.1Z" fill="#fff"/>
<path d="M48.2 19.1C48.2 19.2 48.1 19.4 48.1 19.5H48.4C48.4 19.3 48.3 19.1 48.2 19.1Z" fill="#fff"/>
<path d="M48.6 32.3L48.5 32.5V32.6L48.6 32.3Z" fill="#fff"/>
<path d="M39.6 23.2C39.6 23.3 39.7 23.5 39.8 23.5V22.9L39.5 22.8C39.5 22.1 40.3 22 40.5 22.3C40.2 22.7 40.6 23.2 39.9 23.1C40 23.3 40.2 23.5 40.1 23.7C40.7 23.2 41.4 23.3 41.8 22.5C41.1 22.1 42 21.9 41.6 21.3L41.4 21.6V21.4L41.1 21.6C41.3 21.9 41.4 21.9 41.5 22.2C41 22.2 41.2 21.8 40.7 21.6L40.2 21.9C40.2 21.9 39.8 22.1 39.3 22.4C38.9 22.7 38.4 22.9 38.4 22.9C38.2 23.3 38.9 23.4 38.9 24C39.2 23.8 39.9 23.9 39.6 23.2Z" fill="#fff"/>
<path d="M36 25.6L36.1 25.9L36 25.1L35.6 25.4L35.9 25.8C35.8 25.8 35.8 25.5 36 25.6Z" fill="#fff"/>
<path d="M36.6 25.5C36.5 25.9 36.1 25 36.3 25.7C36.5 26.1 36.7 25.7 36.7 25.6L36.1 24.6C36 24.9 36.3 25.3 36.6 25.5Z" fill="#fff"/>
<path d="M38 23.7L38.1 24H38.3L38 23.7Z" fill="#fff"/>
<path d="M38.1 24H37.9C38 24.2 38.1 24.3 38.2 24.4L38.1 24Z" fill="#fff"/>
<path d="M37.6 24.2H37.3C37.5 24.1 37.5 24.1 37.6 24.2Z" fill="#fff"/>
<path d="M37.9 24C37.7 23.7 37.4 23.3 37.2 23.5L37.6 24H37.9Z" fill="#fff"/>
<path d="M47.5 31.9L47.4 32.1V32.2L47.5 31.9Z" fill="#fff"/>
<path d="M46.6 33.8C46.5 33.4 46.5 32.9 46.6 33.1C46.7 33.5 46.5 33.4 46.7 33.7C46.7 33.3 46.8 33.5 46.6 33C46.6 32.6 46.6 32.3 46.6 31.9C46.5 32.2 46 31.7 46 32.5C46.1 33.2 46.4 34 46.7 34.9C46.8 35.1 47.1 35.1 46.9 34.5C46.7 34.2 46.9 33.9 46.6 33.8Z" fill="#fff"/>
<path d="M47.3 35.4C47.4 35.4 47.4 35.4 47.3 35.4C47.4 35.4 47.3 35 47.3 35.4Z" fill="#fff"/>
<path d="M43.9 29.3L43.8 29.4C43.8 29.4 43.9 29.4 43.9 29.3Z" fill="#fff"/>
<path d="M36.4 24.4C36.5 24.4 36.6 24.4 36.6 24.3C36.4 24.1 36.4 24.3 36.4 24.4Z" fill="#fff"/>
<path d="M32.8 28.5L32.6 28.4C32.7 28.5 32.8 28.6 32.8 28.5Z" fill="#fff"/>
<path d="M36.9 35.3C37 35.2 37.1 35 36.9 34.8C37 35 36.6 34.9 36.9 35.2L36.8 35.1L36.9 35.3Z" fill="#fff"/>
</svg>
