<svg width="89" height="90" viewBox="0 0 89 90" fill="none" xmlns="http://www.w3.org/2000/svg">
<path d="M36 20.3197C35.3 21.7197 36.4 22.3197 37.4 23.1197C37.7 23.3197 37.9 23.7197 38.2 23.9197C38.3 23.9197 39.5 24.4197 39.4 24.4197C39.7 24.7197 39.4 24.8197 39.6 25.2197C39.7 25.4197 40 26.2197 40.1 26.4197C40.1 26.3197 39.6 27.3197 40.2 27.3197C40.9 27.3197 40.7 26.4197 40.7 26.0197C40.7 25.6197 40.5 25.2197 40.7 24.9197C40.8 24.7197 41.5 24.6197 41.7 24.4197C42.2 23.8197 42 23.6197 41.9 22.9197C41.8 22.3197 41.7 22.4197 41.7 21.8197C41.7 21.3197 41.9 20.5197 42 19.9197C42.1 19.5197 42.1 18.7197 42.2 18.4197C42.6 17.6197 42.9 18.0197 43.6 17.5197L44.1 16.7197C43.9 16.3197 43.8 16.7197 43.7 16.6197C43.4 16.3197 43.2 17.0197 42.8 16.5197C42.7 16.4197 43.2 15.5197 42.9 15.5197C42.8 15.7197 42.6 15.8197 42.5 16.0197C42.3 16.0197 42.4 15.1197 42.1 15.2197C42 15.5197 42 16.0197 41.8 16.3197C41.7 16.6197 41.3 16.9197 41.2 17.1197C41.1 17.2197 40.7 17.5197 40.7 17.7197C40.7 18.0197 41.5 18.3197 41.5 18.7197C41.5 18.8197 40.1 19.3197 39.7 19.2197C39.4 19.1197 38.8 18.1197 39.4 18.1197C38.6 18.0197 36.3 19.6197 36 20.3197ZM41.6 19.6197C42.3 20.9197 40.6 19.6197 41.6 19.6197ZM41 24.3197C41 24.5197 40.2 23.4197 40.9 23.4197C41.8 23.8197 41 23.9197 41 24.3197ZM40.7 19.1197C41.3 19.5197 40.8 19.3197 40.6 19.7197C40.4 20.1197 39.5 19.1197 40.7 19.1197Z" fill="black"/>
<path d="M29.1 2.31958C28.5 2.51958 27.8 2.81958 27.2 3.01958C27.6 2.91958 28 2.71958 28.4 2.61958C28.7 2.51958 28.9 2.41958 29.1 2.31958Z" fill="black"/>
<path d="M82.4 50.4197C81.8 49.7197 80.9 49.2197 80.4 48.4197C80 47.8197 80.1 47.2197 80.1 46.6197C80 45.4197 79.8 44.2197 79.2 43.1197C79.1 43.0197 78.9 43.0197 78.9 42.9197C78.5 41.9197 78.6 40.8197 78.6 39.6197C78.6 39.2197 79.2 33.5197 79.4 33.3197C79.2 33.4197 79 33.9197 79 34.0197C79 33.8197 78.7 33.7197 78.9 33.4197C78.2 33.9197 78.4 30.5197 78.4 30.5197C78.4 30.6197 78.1 29.1197 78.1 29.1197C79.5 29.5197 79.4 27.3197 79.5 26.6197C79.6 26.2197 80.5 23.5197 80.6 23.6197C80.7 23.7197 80.7 23.9197 80.8 24.0197V23.9197C81.1 23.9197 81.2 24.4197 81.1 24.6197C81.2 24.4197 81.5 24.6197 81.6 24.8197C81.9 25.4197 81.8 25.7197 81.8 26.3197C81.8 25.9197 81.8 25.9197 82.2 25.6197C82.9 25.2197 82.7 25.4197 83.2 25.3197C83.2 25.2197 82.9 24.9197 83.4 24.9197C83.5 25.0197 83.6 25.1197 83.5 25.2197C84.4 24.6197 82.2 22.8197 83.2 22.6197C83 22.1197 82.8 21.1197 82.6 20.7197C82.5 20.6197 82.1 20.5197 82 20.3197C81.8 20.0197 81.8 19.6197 81.8 19.3197C81.5 18.9197 81.2 18.6197 81 18.2197C80.7 18.0197 80.3 17.8197 80.1 17.6197C80.2 18.0197 79.3 18.7197 80 19.1197C79.8 18.4197 80.7 19.1197 80.4 19.2197C80.5 19.2197 80.6 19.2197 80.8 19.2197C80.9 19.3197 80.9 19.4197 80.8 19.4197C80.8 19.4197 80.9 19.5197 80.9 19.7197C80.9 19.6197 80.9 19.5197 81 19.5197C81.1 19.6197 81.2 18.7197 81.2 19.7197C81.2 20.1197 80.5 19.7197 80.5 19.7197C80.5 19.7197 80.6 19.6197 80.6 19.5197C80.3 19.5197 79.5 19.2197 79.6 19.2197C79.4 19.1197 79.5 18.8197 79.4 18.7197C79.1 18.6197 77 18.4197 77.4 18.2197C77.2 18.2197 76.5 18.4197 76.4 18.1197C76.5 18.3197 76.6 19.1197 76.5 19.3197C76.7 19.0197 79.3 19.8197 79.3 19.7197C79.4 19.5197 79.6 19.8197 79.6 19.9197C79.5 20.1197 79.4 20.1197 79.3 20.0197C79.3 20.2197 79.2 20.4197 79.2 20.4197C79 20.6197 78.1 20.5197 77.8 20.4197C77.7 20.2197 77.8 20.1197 78 20.0197C77.4 20.0197 77.7 20.0197 77.7 19.8197C77.7 20.0197 76.5 20.0197 76.5 20.7197C77.4 21.0197 76.5 21.8197 76.4 22.5197C76.4 23.0197 77.4 22.5197 76.7 23.3197C77 23.0197 77.3 23.6197 77 23.7197C77.2 23.9197 77.2 24.0197 77.2 24.3197C77.2 24.0197 77 25.9197 76.8 25.4197L76.9 25.6197L77.2 25.0197C77.3 25.0197 77.5 25.7197 77.3 25.8197C77.7 25.8197 78.2 25.5197 77.8 26.3197C77.9 26.2197 78 26.4197 77.9 26.5197C78.4 26.8197 78.2 27.2197 78.1 27.7197C78 28.1197 77.6 29.0197 77.6 28.8197C77.5 29.2197 76.6 28.9197 76.6 28.7197C76.3 29.4197 75.3 28.2197 75.5 27.7197C75.3 27.7197 75.2 27.5197 75.3 27.3197C75.3 27.8197 74.9 26.9197 74.8 26.8197C74.6 26.6197 73.9 26.0197 73.8 25.8197C73 24.0197 76.4 23.9197 74.3 22.1197C74.1 21.9197 73.3 21.7197 72.9 21.5197C72.8 21.5197 72.4 21.6197 72.3 21.5197C71.8 21.0197 72.3 21.3197 72.2 20.6197C72.2 20.3197 72.3 20.2197 71.9 20.0197C72.7 19.4197 71.9 18.9197 71.8 18.2197C71.8 18.1197 71.9 17.0197 72 17.3197C71.9 17.3197 71.9 17.2197 71.8 17.1197C71.8 17.1197 71.9 17.1197 71.9 17.0197C71.5 17.1197 70.9 16.6197 70.7 16.2197C70.5 15.8197 70.8 15.5197 70.5 15.2197C70.4 15.1197 70.3 15.1197 70.2 15.0197C70 14.7197 69.6 14.5197 69.4 14.3197C69.4 14.1197 69.6 13.8197 69.7 13.7197C70.4 14.2197 69.9 14.2197 70.2 14.6197C70.5 15.0197 70.8 13.6197 71.1 13.6197C71.2 13.6197 71.6 14.3197 71.6 14.3197C71.7 14.3197 72 14.7197 72.1 14.7197C72.8 14.8197 72 14.7197 72.5 14.1197C71 14.8197 71.5 13.0197 71.2 12.4197C71.1 12.1197 69.3 10.6197 69.4 10.4197C69.5 10.2197 70.3 10.8197 70.4 10.3197C70.4 10.5197 68.9 9.41969 68.8 9.21969C69.1 9.21969 69.7 9.71969 69.8 9.71969C70 9.61969 70.4 8.71969 70.2 8.61969C70 8.71969 69.8 8.71969 69.7 8.81969C69.4 8.61969 69.1 8.41969 68.8 8.21969C69 7.71969 68.6 7.51969 68.4 7.31969C68 6.81969 68.2 6.61969 67.6 6.21969C67.6 6.21969 65.7 5.91969 66 5.61969C66.2 5.41969 66.9 5.51969 67.4 5.61969L67.3 5.51969C66.9 5.41969 66.4 5.41969 66 5.21969C65.5 5.01969 65.2 4.41969 64.7 4.11969C64.6 4.01969 64.4 3.91969 64.2 3.91969C63.5 3.61969 62.9 3.21969 62.2 2.91969C62.3 3.01969 62.3 3.11969 62.2 3.01969C62 2.71969 62.4 3.81969 62.3 3.51969C62.3 3.51969 62.6 3.61969 62.6 3.71969C62.7 3.91969 62.4 4.11969 62.7 4.31969C62.8 4.41969 63 4.41969 63.1 4.51969C63.5 4.91969 64 5.31969 64.4 4.91969C64.7 4.61969 65.7 7.01969 66.3 6.31969C66.3 6.91969 67.4 9.11969 67.4 8.71969C67.3 10.2197 64.8 7.91969 64.5 7.81969C64.6 7.91969 63.6 7.31969 63.9 7.71969C64.7 8.91969 66.6 9.41969 67.7 10.4197C68.4 11.0197 68.1 11.1197 68.2 11.7197C68.2 11.8197 68.5 12.8197 68.4 12.9197C67.6 14.4197 64.8 10.5197 64.3 10.0197C63.1 8.81969 61.5 8.31969 60.4 6.91969C60.1 6.51969 59.6 6.21969 59.8 5.61969C59.9 5.41969 61.4 4.21969 61.6 4.31969C60.8 3.91969 60.4 3.91969 59.8 3.41969C59.7 3.31969 59.3 3.31969 59.1 3.21969C58.7 3.01969 58.7 2.41969 58.1 2.31969C58.2 2.31969 57.5 2.01969 57.5 2.21969C57.5 3.11969 57.9 2.71969 57.1 2.91969C56.6 3.01969 55.7 2.71969 55.2 2.61969C54.9 2.61969 52.3 2.21969 52.3 1.81969C52.3 1.51969 57.1 3.01969 57 2.01969C57 1.61969 56.4 1.41969 56.2 1.41969C55.5 1.21969 54.5 1.61969 53.8 1.41969C53 1.21969 52.4 0.819694 51.4 0.719694C50.9 0.719694 47.2 0.919694 47.1 0.819694C47.2 1.01969 48.7 2.01969 47.2 1.81969C46.9 1.71969 46.4 1.11969 46.1 1.01969C45.3 0.619694 44.6 0.219694 43.8 0.119694C42.3 -0.180306 40.1 0.119694 38.7 0.619694C39 0.819694 40.4 0.919694 40.4 1.01969C40.3 1.81969 37.8 1.11969 37.3 1.21969C36 1.41969 34.5 1.81969 33.3 2.41969C31.9 3.01969 30.3 4.51969 29 5.51969C28.2 6.01969 27.3 7.11969 26.3 6.51969C26.1 6.41969 27.8 5.51969 27.3 5.31969C27 5.11969 26.1 5.91969 25.9 5.61969C26.1 5.81969 25.8 4.21969 25.8 4.41969C25.9 4.11969 26.5 4.11969 26.5 3.81969C26.5 3.71969 26.2 3.71969 25.9 3.81969C10.5 11.1197 0 26.4197 0 44.3197C0 69.1197 20.1 89.1197 44.8 89.1197C47.2 89.1197 49.5 88.9197 51.8 88.5197C50.8 88.5197 49.8 88.3197 48.8 87.8197C47.2 87.1197 45.2 86.0197 44.3 84.4197C43.7 83.2197 44.3 81.8197 44.6 80.6197C44.6 80.5197 44.7 80.3197 44.8 80.2197C44.9 80.1197 45 80.1197 45 80.0197C45.1 79.9197 45.1 79.7197 45.1 79.6197C45.1 78.9197 44.9 77.6197 44.4 77.1197C44.3 77.0197 44.2 77.0197 44.1 77.0197C43.5 76.9197 43 76.4197 42.5 76.3197C42.4 76.3197 42.3 76.3197 42.3 76.3197C41.8 76.4197 41.1 76.2197 40.7 75.8197C40.3 75.4197 40.5 75.4197 40.5 74.9197C40.5 74.4197 40.1 74.3197 39.8 74.0197C39.5 73.7197 39.5 73.5197 39.3 73.1197C39.2 73.0197 39.1 72.8197 39 72.7197C38.4 72.1197 38.2 71.1197 37.7 70.6197C37.5 70.5197 37.3 70.4197 37.1 70.4197C36.8 70.3197 36.6 70.2197 36.4 69.9197C36.3 69.6197 36.4 69.3197 36.6 69.2197C36.6 69.1197 36.4 68.8197 36.3 68.9197C37.4 68.4197 36.5 67.0197 37 66.2197C37.5 65.4197 38.6 65.0197 39 64.2197C39.5 63.3197 39.3 61.0197 38.4 60.2197C37.9 59.8197 36.7 59.9197 37.2 60.9197C36.9 60.9197 36.1 60.9197 35.9 60.7197C35.8 60.6197 36.1 60.3197 35.8 60.1197C35.6 60.0197 35.4 60.3197 35 60.1197C34.7 59.9197 34.5 59.5197 34.2 59.2197C33.9 59.0197 33.5 58.9197 33.2 58.6197C32.8 58.2197 32.8 57.6197 32.5 57.1197C32 55.9197 30.6 55.4197 29.6 54.7197C28.6 54.1197 27.8 53.2197 27.1 52.3197C27.1 52.4197 27.1 52.6197 27 52.7197C26.8 52.6197 26.6 52.4197 26.4 52.3197C26 52.3197 25.6 52.4197 25.2 52.2197C24.8 52.1197 24.6 51.6197 24.3 51.5197C24.4 51.5197 24.5 51.6197 24.7 51.6197C24 51.2197 23.4 50.7197 22.7 50.2197C22.7 50.1197 22.8 50.1197 22.8 50.0197C22.4 49.7197 22.1 49.5197 21.7 49.2197C21.8 49.2197 21.9 49.3197 22.1 49.3197C21.7 49.3197 21.3 48.8197 21.5 48.4197C21 48.4197 20.7 48.0197 20.6 47.5197C20.5 47.1197 20.6 46.6197 20.7 46.2197C20.7 46.1197 21 45.5197 21 45.5197C20.9 45.1197 20.8 45.1197 20.9 44.7197C20.9 44.8197 20.8 45.0197 20.7 45.1197C19.5 43.1197 18.4 40.4197 18.6 38.0197C18.6 37.8197 18.6 37.6197 18.5 37.4197C18.4 37.2197 18.2 37.1197 18 37.2197C17.8 37.3197 17.8 37.6197 17.9 37.8197C18.2 39.1197 18.5 40.5197 18.6 41.8197C18.6 42.1197 19.1 44.2197 18.7 44.4197C18.1 44.7197 17.8 42.1197 17.8 42.0197C17.8 41.6197 18 41.7197 17.9 41.4197C17.9 41.3197 17.7 41.2197 17.7 41.1197C17.5 40.6197 17 40.4197 17 39.7197C17 39.5197 17.5 39.6197 17.5 39.2197C17.5 38.7197 17.2 38.3197 17.2 37.8197C17.2 37.5197 17.2 37.0197 17.3 36.7197C17.3 36.3197 17.4 35.8197 17.3 35.4197C17.3 35.1197 17.3 34.9197 17.2 34.6197C17.1 34.4197 16.4 33.9197 16.4 33.8197C16.4 33.5197 17.3 33.9197 17.1 33.7197C16.9 33.4197 16.7 33.6197 16.7 32.6197C16.6 31.7197 16.6 30.8197 16.8 30.0197C16.9 29.6197 17 29.2197 17.2 28.9197C17.5 28.5197 17.8 28.7197 18.2 28.4197C18.7 28.1197 18.3 27.5197 18.4 27.1197C18.5 26.6197 18.8 26.3197 19.1 26.0197C19.7 25.3197 20.5 24.8197 20.9 24.0197C21.2 23.3197 20.7 22.0197 21 21.2197C21.2 20.7197 21.6 20.0197 21.9 19.4197C22 19.1197 22.3 18.7197 22.4 18.3197C22.5 18.0197 22.3 17.8197 22.3 17.5197C22.6 15.9197 24.2 14.6197 23.7 12.9197C23.6 12.5197 23.3 12.1197 23 12.0197C22.9 11.9197 22.6 11.9197 22.6 11.7197C22.6 11.6197 22.8 11.4197 22.7 11.3197C22.3 11.0197 21.6 12.6197 20.8 12.1197C21 12.0197 21.1 11.7197 21.2 11.6197C20.9 11.6197 18.1 10.7197 18.6 10.2197C18.8 10.0197 19.9 10.7197 20.2 10.8197C21.3 11.1197 21.2 10.9197 21.8 10.3197C22.6 9.41969 22.7 8.21969 24.2 8.01969C24.7 7.91969 25.5 8.21969 25.8 8.11969C26.1 8.01969 26.2 7.01969 26.8 6.81969C27.2 6.61969 27.3 7.01969 27.7 6.91969C28.1 6.81969 28.8 6.21969 29.2 6.21969C29.8 6.41969 30.9 6.51969 31.1 7.11969C31.3 7.71969 30.4 9.01969 30.8 9.81969C31.2 10.5197 31.9 10.2197 32.5 10.6197C33.1 11.0197 33.2 12.2197 33.7 12.5197C33.8 12.5197 34.6 11.3197 34.6 11.2197C34.3 11.0197 33.9 11.3197 33.8 10.9197C33.7 10.3197 34.4 10.1197 34.8 9.81969C35.4 9.41969 35.8 9.21969 36.3 9.71969C36.7 10.0197 36.5 10.7197 36.8 10.9197C37.2 11.2197 37.7 10.7197 38 10.9197C38.7 11.3197 38 11.2197 37.9 11.7197C37.8 12.1197 37.6 12.4197 37.5 12.7197C37.5 12.5197 37.6 13.8197 37.5 13.6197C37.7 14.1197 38.8 12.9197 38.9 12.8197C38.3 12.5197 37.8 11.6197 38.6 11.3197C39 11.2197 39.9 11.6197 40.1 11.3197C40.2 11.2197 39.3 10.4197 39.2 10.1197C38.9 11.1197 37.1 10.3197 36.9 9.51969C36.7 8.81969 37.2 7.81969 38.1 8.51969C38.4 8.71969 38.2 9.21969 38.2 9.61969C38.3 9.51969 38.7 9.21969 38.8 9.21969C38.9 9.21969 38.9 9.71969 39.1 9.71969C39.3 9.71969 39.4 9.51969 39.6 9.61969C39.8 9.71969 40.2 9.81969 40.5 9.91969C40.6 9.91969 40.5 10.4197 40.6 10.4197C40.5 10.4197 41 9.51969 41 9.41969C41 9.41969 39.5 8.51969 40.6 8.31969C40.7 8.31969 41.4 8.81969 41.5 8.91969C41.8 9.51969 41.2 9.61969 41.6 9.91969C41.4 9.81969 42.3 9.81969 42.2 9.81969C42 9.81969 41.8 8.41969 42.1 8.01969C42.5 7.51969 43.8 7.31969 44.3 7.31969C45.2 7.21969 46.1 7.61969 46.8 7.51969C47.5 7.31969 47.9 6.51969 48.6 6.41969C49 6.31969 49.4 6.51969 49.8 6.51969C49.7 6.51969 50.9 6.41969 50.7 6.41969C51.4 6.61969 51.8 7.51969 52.5 8.01969C53.1 8.41969 54 8.61969 54.6 9.21969C55.1 9.71969 55.3 10.3197 55.8 10.7197C56.7 11.6197 57.3 11.9197 56.6 13.3197C56.4 13.7197 56.1 13.9197 56 14.3197C55.9 14.7197 56 15.1197 55.8 15.5197C55.7 15.8197 55.4 16.1197 55.3 16.4197C55.2 16.6197 55.3 16.8197 55.3 17.1197C55.4 17.7197 55.5 18.2197 55.6 18.8197C55.7 19.1197 55.7 19.5197 55.5 19.7197C55.4 19.8197 55.2 19.8197 55 19.8197C54.1 19.8197 53 19.1197 52.3 18.5197C51.7 17.9197 51.1 17.3197 50.7 16.6197C50.5 16.2197 50.1 15.8197 50.1 15.3197C50.1 15.3197 50.3 14.2197 50.4 14.3197C50.3 14.2197 49.7 14.4197 49.4 14.2197C49.5 14.3197 49 13.3197 49 13.3197C48.7 12.8197 48.2 11.8197 47.8 11.3197C47 10.6197 46.5 11.2197 45.6 10.8197C45.3 10.6197 44.9 10.2197 44.9 9.81969C44.9 9.21969 45.2 9.61969 45.4 9.21969C45.4 9.21969 46.3 8.11969 45.4 8.61969C44.9 8.91969 44.3 9.71969 44 10.2197C43.4 11.1197 43.6 11.5197 42.4 11.5197C42.2 11.5197 40.6 11.1197 40.6 11.1197C40.8 11.2197 40.9 11.4197 41 11.6197C40.7 12.2197 39.9 12.1197 39.8 12.8197C39.7 13.1197 39.8 13.4197 39.9 13.7197C40 14.1197 40.2 14.4197 40.5 14.7197C40.8 15.1197 41.1 14.5197 41 14.2197C40.9 13.9197 40.4 13.9197 40.4 13.5197C40.4 12.3197 41.1 11.8197 42.1 11.7197C43.5 11.7197 44.7 12.8197 45.7 13.7197C46.2 14.2197 46.1 14.7197 46.5 15.1197C46.7 15.3197 47.9 15.7197 48.1 16.0197C48.4 17.0197 47.7 17.0197 47.2 17.3197C47.3 17.2197 47.6 18.4197 47.6 18.5197C47.6 19.1197 47.1 19.0197 47.1 19.0197C47.1 19.3197 48.1 19.5197 47.3 19.6197C47.1 19.6197 45.9 19.2197 45.6 19.0197C45.3 18.9197 43.6 16.9197 43.1 17.8197C43.1 17.9197 42.9 18.3197 42.9 18.4197C43.1 17.9197 45.7 19.8197 45.8 20.0197C46 20.4197 46 21.5197 46.7 21.3197C47.3 21.2197 47.1 20.1197 47.6 19.9197C48 19.8197 50 23.1197 50.3 23.4197C50.9 23.8197 51.7 23.9197 52.1 24.5197C52.5 25.1197 52.4 25.7197 52.6 26.3197C52.9 27.1197 52.3 26.6197 53 27.2197C53.5 27.7197 53.6 27.3197 54 28.1197C54 28.1197 54.8 29.4197 54.3 29.4197C54.2 29.4197 54 29.2197 54 29.2197C54.6 28.8197 53 29.3197 52.9 29.4197C52.5 29.3197 51.1 29.0197 51.1 29.0197C50.8 28.6197 52.1 26.6197 51.6 26.4197C52 26.7197 48.7 27.5197 48.8 27.4197C48.7 27.5197 49.9 28.0197 49.6 28.2197C48.8 28.5197 48.4 27.4197 47.9 27.4197C47.4 27.4197 46.1 28.2197 45.9 28.7197C45.9 28.6197 47.3 28.2197 47.5 28.2197C48.6 28.2197 47.9 28.4197 48.3 29.0197C48.3 29.3197 48.2 29.6197 48.2 29.9197C48.4 29.9197 48.6 30.0197 48.7 30.0197C48.5 29.8197 49.8 30.7197 49.6 30.6197C50 30.7197 50.1 29.7197 50.4 29.7197C51.8 29.7197 49.3 31.4197 49.4 31.4197C49.2 31.5197 49 31.6197 48.8 31.7197C48.8 31.7197 48.1 32.4197 47.9 32.3197C47.2 32.3197 48.1 31.1197 48.1 31.1197C48.1 30.8197 46.2 32.0197 46.1 32.1197C45.7 32.3197 45.1 32.4197 45 32.9197C44.9 33.3197 45.5 33.7197 45.4 34.0197C45.3 34.3197 43.5 34.8197 43.1 35.1197C42.7 35.5197 42 36.7197 41.8 37.3197C41.5 38.4197 42.1 38.5197 41.2 39.2197C40.7 39.6197 39.9 39.8197 39.4 40.2197C38.4 40.9197 37.7 41.5197 37.8 42.8197C37.8 43.2197 39.1 46.8197 37.7 46.8197C36.6 46.8197 36.7 43.1197 35.9 42.6197C35.8 42.6197 35.1 42.6197 35 42.6197C34.7 42.5197 34.6 42.2197 34.3 42.1197C34 42.0197 33.2 42.0197 32.9 42.1197C32.5 42.2197 32.8 42.6197 32.5 42.8197C31.9 43.2197 30.1 41.7197 29.3 41.8197C28.5 41.9197 27.4 42.5197 27 43.1197C26.4 44.0197 25.9 46.0197 26 47.1197C26 47.7197 26.3 48.8197 26.7 49.4197C27.3 50.3197 28.3 50.6197 29.4 50.3197C30.5 50.0197 30.3 49.1197 31.3 48.7197C35.2 47.2197 31.4 52.1197 31.7 52.9197C32 53.6197 34.5 53.1197 35.1 53.9197C35.7 54.6197 35.3 54.7197 35.2 55.4197C34.6 57.5197 34.6 58.4197 35.6 59.2197C36.7 60.2197 37.1 59.3197 38.4 59.5197C39.4 59.7197 39.3 60.4197 40.2 60.0197C40.9 59.7197 40.9 59.0197 41.6 58.6197C42 58.4197 42.7 58.2197 43.2 58.1197C43.9 57.9197 43.8 57.7197 44.4 57.9197C44.5 57.9197 44 58.4197 44 58.3197C44.9 58.6197 44.6 58.1197 45.3 57.8197C45.5 57.7197 46.5 58.6197 46.7 58.6197C47.2 58.8197 47.4 58.9197 48.1 58.9197C48.4 58.9197 51.4 58.7197 51.4 58.6197C51.4 58.5197 51.1 59.0197 51.1 58.9197C51.1 58.9197 51.4 59.0197 51.5 59.0197C51.9 58.9197 51.8 58.1197 52.3 58.4197C52.2 58.4197 52.3 59.9197 52.2 59.8197C52.5 60.2197 53.7 60.3197 54.4 60.8197C55.1 61.3197 55.1 61.5197 55.9 61.6197C56.7 61.7197 57.7 61.3197 58.6 61.6197C59.2 61.8197 59.5 62.2197 59.9 62.6197C60.4 63.2197 60.5 64.6197 61.3 64.9197C61.5 65.0197 61.7 65.0197 61.8 65.1197C61.9 65.2197 61.9 65.5197 61.7 65.5197C61.9 65.6197 62.1 65.4197 62.3 65.2197C62.6 65.0197 63.1 65.0197 63.4 65.1197C63.8 65.2197 64.3 65.3197 64.7 65.5197C65 65.6197 65.3 65.8197 65.2 66.1197C65.3 65.9197 65.6 65.9197 65.7 66.0197C65.6 66.0197 65.5 65.8197 65.6 65.7197C66 65.8197 66.4 65.9197 66.7 66.0197C66.6 65.9197 66.7 65.8197 66.8 65.7197C67.2 65.5197 68.4 65.2197 68.6 65.8197C68.5 65.8197 68.4 65.8197 68.3 65.8197C69.2 66.0197 69.7 66.1197 70.5 66.1197C70.6 66.2197 70.6 66.3197 70.4 66.3197C71.8 66.1197 70.8 68.7197 70.4 69.2197C69.5 70.4197 68.4 71.4197 68 72.8197C66.8 77.1197 65.1 80.9197 61.8 84.2197C60.6 85.4197 59 86.5197 57.3 87.3197C72.8 82.9197 84.9 70.3197 88.6 54.4197C86.8 55.5197 83.3 51.6197 82.4 50.4197ZM81.1 19.8197C81.2 19.9197 81.2 20.0197 81.2 20.1197C81 20.0197 81 19.9197 81.1 19.8197ZM80.9 22.4197C80.7 22.2197 80.7 22.0197 80.9 21.8197C80.9 21.9197 81.3 22.4197 80.9 22.4197ZM80.6 21.8197C80.7 21.9197 80.7 22.0197 80.6 22.1197C80.5 22.0197 80.5 21.9197 80.6 21.8197ZM79.5 22.5197C79.3 22.4197 79.2 22.3197 79.2 22.1197C79.3 22.1197 79.5 22.5197 79.5 22.5197ZM78.7 21.6197C78.8 21.8197 79.1 21.7197 79.1 22.0197C79.1 22.3197 78.4 21.7197 78.7 21.6197ZM71.5 12.2197C71.5 12.3197 71.9 12.6197 71.4 12.7197C71.2 12.8197 71.2 12.2197 71.5 12.2197ZM71.3 12.0197C71 12.0197 71.2 11.8197 71.1 11.7197C71.2 11.9197 71.3 11.5197 71.3 12.0197ZM66.8 6.81969C66.5 7.01969 66.7 6.41969 66.7 6.51969C66.7 6.51969 67.1 6.61969 66.8 6.81969ZM28.7 65.8197C28.5 65.6197 28.5 65.4197 28.6 65.1197C29 65.4197 29.1 66.0197 28.7 65.8197ZM29.5 55.1197C29.3 55.1197 28.6 54.4197 28.7 54.4197C28.8 54.5197 29.8 54.9197 29.5 55.1197ZM28.6 54.5197C28.4 54.5197 28.3 54.0197 28.3 54.0197C28.3 54.0197 28.8 54.5197 28.6 54.5197ZM24.1 51.7197C24 51.7197 24 51.7197 24.1 51.7197C23.9 51.8197 23.8 51.7197 23.7 51.6197C23.8 51.5197 23.9 51.5197 24.1 51.7197ZM21.6 18.4197C21.7 18.7197 21.7 19.2197 21.1 19.6197C21.1 19.5197 21 18.4197 21.6 18.4197ZM24.9 7.41969C25 7.21969 25.1 7.01969 25.4 6.91969C25.9 6.91969 24.9 7.91969 24.9 7.41969ZM31.5 4.31969C32.3 5.21969 30.5 4.31969 31.5 4.31969ZM37.7 1.71969C37.8 1.51969 38 1.51969 38.2 1.51969C38.7 1.51969 37.7 2.01969 37.7 1.71969ZM38.4 9.41969C38.3 9.01969 39.1 9.01969 39.3 9.01969C39.5 9.41969 38.6 9.81969 38.4 9.41969ZM50.4 3.11969C50.4 2.91969 50.5 2.91969 50.7 2.91969C50.9 2.91969 51.3 2.91969 51.4 3.21969C51.4 3.51969 50.5 3.31969 50.4 3.11969ZM51.5 3.41969C51.7 3.41969 51.9 3.51969 52 3.61969C52 4.21969 51.1 3.51969 51.5 3.41969ZM53.5 6.31969C53.3 6.21969 52 5.01969 52.9 5.01969C53.9 5.51969 55 5.21969 55.5 6.31969C55.6 6.41969 53.8 6.41969 53.5 6.31969ZM45.9 21.3197C45.7 21.2197 45.7 21.1197 45.9 21.0197C46.1 21.1197 46.1 21.2197 45.9 21.3197ZM49.5 30.5197C49.4 30.4197 49.4 30.4197 49.5 30.3197C49.7 30.3197 49.7 30.4197 49.5 30.5197ZM42.7 50.9197C42.8 50.7197 42.4 51.5197 42.5 51.1197C42.5 50.9197 42.6 50.9197 42.7 50.9197ZM42.2 49.7197C42.4 49.7197 42.4 50.0197 42.2 50.0197C42 50.0197 42.1 49.7197 42.2 49.7197ZM39.7 48.7197C39.5 48.8197 38.8 47.7197 39.4 47.8197C39.6 47.8197 39.8 48.7197 39.7 48.7197ZM39.5 46.3197C39.4 46.5197 39.3 46.4197 39.2 46.4197C39.3 46.4197 39.4 46.3197 39.5 46.3197ZM35.8 50.2197C35.6 50.1197 35.6 50.0197 35.8 49.9197C36 50.0197 36 50.1197 35.8 50.2197ZM39 53.0197C39.1 52.9197 39.2 52.8197 39.4 52.8197C39.7 52.8197 40.3 52.9197 40.4 53.2197C40.4 53.4197 39 53.7197 39 53.0197ZM39.6 51.7197C39.7 51.8197 39.2 51.1197 39.1 51.0197C38.7 50.6197 38.4 50.4197 37.8 50.1197C37.4 49.9197 36.6 49.4197 36.2 49.3197C35.9 49.3197 34.9 49.9197 34.7 49.7197C34.2 49.2197 36.1 48.9197 36.2 48.9197C37.2 48.9197 38.4 49.3197 39.3 49.7197C39.5 49.8197 42 51.7197 42 51.7197C41.8 51.9197 39.9 51.9197 39.6 51.7197ZM45.9 53.2197C45.6 53.3197 44.9 53.1197 44.6 53.0197C44.7 53.1197 44.6 53.1197 44.5 53.2197C44.4 53.2197 44.3 53.1197 44.4 53.0197C44.4 53.0197 41.9 53.7197 41.9 53.0197C41.9 52.9197 42.9 52.7197 43.1 52.5197C43.4 52.2197 42.9 52.2197 42.8 52.0197C42.7 51.8197 43.1 51.8197 43.2 51.8197C43.7 52.0197 47.6 52.7197 45.9 53.2197ZM47.2 53.3197C47.2 53.0197 47.4 52.9197 47.7 53.0197C47.9 53.0197 48.5 52.9197 48.5 53.2197C48.6 53.4197 47.4 53.5197 47.2 53.3197ZM51.6 54.7197C51.4 54.6197 51.4 54.5197 51.6 54.4197C51.6 54.5197 51.9 54.6197 51.6 54.7197ZM59.9 15.5197C59.4 15.4197 58.4 15.1197 58.3 14.6197C58.3 14.5197 59.7 13.4197 60 13.4197C61.7 13.4197 61.7 15.7197 59.9 15.5197ZM64 14.3197C63.9 14.2197 63.9 14.2197 64 14.1197C64.1 14.2197 64.1 14.3197 64 14.3197ZM69.2 12.4197C69.4 12.3197 69.5 12.2197 69.7 12.2197C70.5 12.2197 68.9 12.9197 69.2 12.4197ZM69.8 13.9197C69.4 13.9197 69.3 13.6197 69.3 13.4197C69.9 13.6197 69.9 13.5197 69.8 13.9197ZM67.6 6.61969C69.5 8.31969 66.8 7.21969 67.6 6.61969ZM68.1 9.41969C68 9.51969 67.8 9.01969 68 9.01969C68 9.01969 68.3 9.31969 68.1 9.41969ZM67.8 8.11969C67.8 7.91969 67.9 7.91969 68.1 7.81969C68.1 7.91969 68.3 8.31969 68.4 8.31969C68.3 8.41969 67.8 8.21969 67.8 8.11969ZM69.5 20.2197C68.7 20.2197 67.4 17.9197 68.4 17.5197C68.8 17.7197 70.7 20.2197 69.5 20.2197ZM70.2 32.9197C70.1 32.8197 70.1 32.8197 70.3 32.7197C70.4 32.8197 70.4 32.8197 70.2 32.9197ZM71.3 20.1197C71.1 20.0197 70.9 19.2197 70.8 19.0197C70.2 19.4197 70.1 18.2197 69.7 17.8197C69.1 17.2197 68.1 17.1197 67.4 16.5197C67.3 16.5197 67.1 16.4197 67.1 16.4197C67.1 16.4197 66.1 15.3197 66.8 15.4197C67.2 15.9197 68 15.3197 67.8 16.4197H67.9C67.8 16.3197 67.8 16.2197 67.9 16.1197C68 16.2197 68 16.3197 68 16.4197C68.6 16.2197 70.5 16.9197 71 17.2197C71.6 17.6197 71.9 18.1197 71.9 18.8197C71.9 18.9197 71.4 20.0197 71.3 20.1197ZM77.1 37.4197C77 37.3197 77 37.3197 77 37.2197C77.1 37.2197 77.4 37.3197 77.1 37.4197Z" fill="black"/>
<path d="M77.1 14.3196C77.3 14.5196 78.3 15.7196 78.6 15.6196C78.9 15.5196 78.8 15.1196 78.6 14.8196C77.7 13.7196 76.7 12.7196 75.7 11.8196C76 12.7196 76.2 13.3196 77.1 14.3196Z" fill="black"/>
<path d="M35 33.6198C35.6 34.4198 35.7 33.4198 35.9 32.9198C36 32.6198 36.9 31.3198 36.9 31.1198C36.8 31.1198 36.7 31.0198 36.6 31.0198C35.9 31.1198 34.6 33.0198 35 33.6198Z" fill="black"/>
<path d="M33.9 29.7197C33.9 30.1197 35.3 29.8197 35.4 29.8197C35.6 29.9197 35.7 30.1197 35.8 30.1197C36.1 30.2197 36 30.4197 36.5 30.4197C38.1 30.4197 36.8 28.7197 36.1 28.8197C36 28.8197 33.9 29.5197 33.9 29.7197Z" fill="black"/>
<path d="M39 31.3197C38.8 31.2197 37.9 31.2197 37.6 31.2197C37.6 31.4197 37.6 33.2197 38.2 33.2197C38.5 33.2197 38.8 31.8197 38.9 31.8197C39.1 31.9197 39.3 32.1197 39.5 32.2197C40 32.4197 39.1 31.4197 39 31.3197Z" fill="black"/>
</svg>
