<svg width="105" height="41" viewBox="0 0 105 41" fill="none" xmlns="http://www.w3.org/2000/svg">
<path d="M77.0304 18.9316C77.0304 14.2822 77.0094 9.63496 77.0472 4.9856C77.0535 4.06036 76.7327 3.4989 75.9255 3.07413C74.2649 2.19935 72.6443 1.25097 71.0005 0.340449C69.8956 -0.271475 69.5978 -0.0969398 69.5978 1.18368C69.5916 5.44822 69.5957 9.71066 69.5957 13.9752C69.5957 14.5703 69.6188 15.1654 69.5853 15.7563C69.5538 16.3051 69.2917 16.5238 68.7571 16.2126C68.1281 15.8446 67.4677 15.5187 66.8638 15.1128C66.1677 14.6439 65.5597 14.6775 64.8385 15.1023C61.7837 16.9065 58.7079 18.6771 55.6259 20.4309C54.9067 20.8409 54.6069 21.3751 54.6153 22.2078C54.6446 25.7384 54.6425 29.2691 54.6153 32.7976C54.609 33.6283 54.9046 34.1582 55.6301 34.5703C58.6828 36.3052 61.7313 38.0547 64.7462 39.8547C65.5429 40.3321 66.1866 40.3111 66.9624 39.8526C69.9249 38.0989 72.9 36.364 75.8982 34.6734C76.7327 34.2044 77.0556 33.6261 77.0472 32.6652C77.0073 28.0873 77.0304 23.5094 77.0304 18.9316ZM68.6585 32.4065H63.0018L60.1714 27.4922L63.0018 22.5758H68.6585L71.489 27.4922L68.6585 32.4065Z" fill="white"/>
<path d="M49.7155 27.6861C49.7155 29.4672 49.6946 31.2483 49.7281 33.0294C49.7407 33.7402 49.4933 34.1923 48.8706 34.5498C45.8221 36.2972 42.782 38.0594 39.7649 39.8594C38.985 40.3242 38.3392 40.3389 37.5509 39.8699C34.5317 38.072 31.4874 36.3162 28.4347 34.5771C27.7784 34.2028 27.5038 33.7192 27.508 32.9748C27.5269 29.3432 27.5352 25.7095 27.5143 22.0779C27.5101 21.3566 27.8099 20.873 28.3907 20.5365C31.5776 18.686 34.7728 16.8461 37.9597 14.9935C38.5237 14.6654 39.0206 14.8273 39.5259 15.1196C42.6289 16.9133 45.734 18.7029 48.8329 20.5008C49.4493 20.8583 49.7428 21.384 49.7281 22.1347C49.6946 23.9852 49.7176 25.8357 49.7176 27.6882L49.7155 27.6861Z" fill="white"/>
<path d="M22.3963 29.1072H22.3858C22.3858 31.5549 22.3942 34.0026 22.3837 36.4481C22.3795 37.5668 22.0419 37.7603 21.0607 37.2031C19.3352 36.2231 17.6306 35.2075 15.8967 34.2486C15.2027 33.8638 14.905 33.3444 14.9155 32.56C14.9281 31.3719 14.9176 30.1838 14.9176 28.9957L15.035 28.9263V24.4893L11.2023 22.2709L7.37178 24.4893V28.9263L7.48709 28.9936C7.48709 30.1481 7.47871 31.3046 7.49758 32.4591C7.51225 33.3296 7.18937 33.8911 6.41991 34.3096C4.6797 35.26 2.97933 36.282 1.24961 37.2535C0.392083 37.7351 0.0251718 37.529 0.0230752 36.5491C0.00839873 31.5843 0.0188819 26.6195 1.21882e-05 21.6547C-0.00208445 20.9797 0.266285 20.5339 0.832376 20.2101C4.02974 18.3743 7.22711 16.5343 10.4203 14.6881C10.957 14.3768 11.456 14.3789 11.9907 14.6902C15.1838 16.5364 18.3791 18.3764 21.5807 20.2101C22.195 20.5613 22.413 21.0638 22.4067 21.7662C22.3795 24.2118 22.3963 26.6595 22.3963 29.1072Z" fill="white"/>
<path d="M101.899 26.4933C100.643 27.2398 99.3826 27.98 98.112 28.7012C97.785 28.8863 97.5082 28.9683 97.3006 28.9473L98.2441 27.3092L95.7219 22.9269H90.6753L88.1509 27.3092L90.6753 31.6936H93.2478C95.2606 32.8375 97.2608 34.0067 99.2673 35.1653C100.358 35.7941 100.345 36.1768 99.2358 36.8013C97.5376 37.756 95.8309 38.6918 94.141 39.6591C93.468 40.0439 92.8684 40.0397 92.187 39.6444C89.1489 37.878 86.0962 36.1369 83.0351 34.4146C82.316 34.0109 81.9847 33.4957 82.0057 32.6525C82.0518 30.8693 82.0204 29.0861 82.0204 27.3029C82.0204 25.5197 82.0497 23.808 82.0078 22.0605C81.9889 21.2299 82.2762 20.6979 83.0058 20.2836C86.0899 18.5278 89.1594 16.7467 92.2163 14.9424C92.9313 14.5198 93.5288 14.5177 94.2458 14.9424C97.2671 16.7361 100.307 18.5025 103.358 20.2479C104.115 20.681 104.41 21.2509 104.389 22.1215C104.314 25.5007 104.811 24.7668 101.899 26.4933Z" fill="white"/>
</svg>
