<svg width="84" height="66" viewBox="0 0 84 66" fill="none" xmlns="http://www.w3.org/2000/svg">
<path d="M79.387 20.5527C79.2918 20.4371 79.1679 20.3486 79.0277 20.296L73.2008 18.0713L72.773 16.2745C72.7381 16.1085 72.6548 15.9566 72.5334 15.8381L69.8809 13.2712L69.6243 10.1396C69.6106 9.98596 69.5558 9.83883 69.4654 9.71382C69.375 9.5888 69.2525 9.49054 69.1109 9.42944L66.39 8.23155L67.2456 6.41761C67.303 6.30042 67.3329 6.17164 67.3329 6.04113C67.3329 5.91062 67.303 5.78185 67.2456 5.66465L66.1162 3.49134C66.0152 3.29489 65.8421 3.1451 65.6332 3.07334C65.4243 3.00157 65.1957 3.01339 64.9953 3.10631L61.838 4.58655L57.0464 3.2261L51.8699 0.120146C51.7025 0.0209157 51.5063 -0.0183193 51.3137 0.00891258L42.6119 1.16402L39.1894 0.359724C38.9921 0.313827 38.785 0.339365 38.6049 0.431799C38.4247 0.524234 38.2831 0.677572 38.2054 0.864546L37.153 3.43145C37.0768 3.61604 37.0677 3.82145 37.127 4.01209C37.1864 4.20273 37.3106 4.3666 37.4781 4.47532L38.4963 5.14271L36.6567 7.31602L33.5336 6.89676L33.2855 5.40796C33.2647 5.2909 33.2197 5.17946 33.1534 5.08075C33.0871 4.98205 33.0009 4.89825 32.9005 4.83469C32.8004 4.7694 32.6879 4.72577 32.57 4.70661C32.4521 4.68746 32.3315 4.69319 32.2159 4.72345L27.2875 6.0668C27.171 6.09639 27.0628 6.15197 26.9709 6.22937L25.1655 7.71817H22.8639L20.0574 5.76733C19.8885 5.64722 19.6818 5.59249 19.4756 5.61331L12.7161 6.35771L9.58444 4.53522C9.45436 4.46012 9.30681 4.42058 9.15662 4.42058C9.00642 4.42058 8.85887 4.46012 8.7288 4.53522C8.59823 4.6106 8.48989 4.71915 8.41477 4.84987C8.33964 4.98059 8.30039 5.12885 8.30098 5.27962V10.3107L3.54366 10.6102C3.41154 10.619 3.28327 10.6584 3.16894 10.7252C3.05462 10.792 2.95736 10.8845 2.88482 10.9952L0.138239 15.2135C0.0480202 15.3523 0 15.5143 0 15.6798C0 15.8454 0.0480202 16.0074 0.138239 16.1462C0.228977 16.2851 0.358177 16.3947 0.510099 16.4616C0.662021 16.5284 0.830106 16.5496 0.993873 16.5226L4.24528 16.0093L3.74046 18.9099C3.71521 19.0535 3.72711 19.2013 3.77504 19.339C3.82296 19.4768 3.90531 19.6001 4.01426 19.697L12.1086 26.8758C12.2016 26.9554 12.3091 27.0164 12.4251 27.0555L20.5109 29.5112C20.6595 29.5566 20.8176 29.5606 20.9684 29.5229C21.1191 29.4853 21.2568 29.4072 21.3665 29.2973L23.2147 27.4576L28.8191 26.602L26.8682 30.1614H24.9088C24.7158 30.1626 24.5289 30.2289 24.3783 30.3497L21.5975 32.5829L15.745 33.6096L13.5974 31.154C13.5181 31.0638 13.4208 30.9913 13.3117 30.9411C13.2026 30.891 13.0842 30.8644 12.9642 30.8631C12.8444 30.8542 12.7242 30.8745 12.614 30.9222C12.5037 30.9699 12.4066 31.0435 12.331 31.1369L10.5 33.1048C10.4141 33.2047 10.3524 33.3231 10.3197 33.4507C10.2871 33.5783 10.2843 33.7118 10.3117 33.8407L10.5941 36.0225C10.6188 36.2068 10.7029 36.378 10.8337 36.5102L18.8253 44.5789L27.8009 54.3759C27.8634 54.4467 27.9389 54.5048 28.0233 54.547L34.6374 58.1407C34.7995 58.2283 34.9855 58.2614 35.1679 58.2348L39.446 57.6016C39.5313 57.585 39.6145 57.5592 39.6942 57.5246L52.9822 51.1929C53.1509 51.1136 53.2891 50.9814 53.3758 50.8164L56.0453 45.7596C56.1397 45.5843 56.17 45.3816 56.1309 45.1864L55.2753 41.0793L55.4464 38.3841L56.302 37.845L57.671 41.1649V44.3735C57.6677 44.5761 57.7365 44.7733 57.8649 44.93C57.9934 45.0867 58.1733 45.1927 58.3727 45.2291L60.2807 45.5885L58.3983 49.3533C58.3512 49.4613 58.3269 49.5778 58.3269 49.6956C58.3269 49.8133 58.3512 49.9299 58.3983 50.0378L62.0091 59.5097L60.5032 61.7429C60.4019 61.882 60.3479 62.0499 60.3492 62.222V65.1055C60.3488 65.2637 60.3922 65.4189 60.4747 65.5539C60.5572 65.6889 60.6755 65.7983 60.8164 65.8701C60.9574 65.9419 61.1155 65.9733 61.2731 65.9606C61.4308 65.948 61.5819 65.8919 61.7096 65.7986L64.7129 63.6424L65.9793 65.5761C66.0576 65.695 66.1643 65.7925 66.2898 65.8598C66.4153 65.927 66.5556 65.9618 66.698 65.9612C66.7662 65.9694 66.8351 65.9694 66.9033 65.9612L70.2745 65.1055C70.4644 65.0587 70.6325 64.9482 70.7508 64.7925C70.8691 64.6368 70.9305 64.4453 70.9248 64.2499L70.9847 58.9621L72.3537 59.8177C72.5318 59.93 72.7451 59.9726 72.9527 59.9375L75.5196 59.5182C75.6926 59.4898 75.8526 59.4088 75.9781 59.2864C76.1036 59.164 76.1885 59.006 76.2212 58.8337L76.9998 54.8978C77.0263 54.7596 77.0182 54.6171 76.9764 54.4828C76.9347 54.3485 76.8604 54.2265 76.7602 54.1277L74.1933 51.5608L76.5463 49.4645L81.0897 47.9757C81.1996 47.9395 81.301 47.8815 81.3877 47.805C81.4745 47.7285 81.5449 47.6352 81.5946 47.5308L82.8609 44.8527C82.925 44.7161 82.9517 44.5649 82.9385 44.4146C82.9253 44.2643 82.8726 44.1202 82.7858 43.9968C82.6989 43.8735 82.5809 43.7753 82.4439 43.7122C82.3068 43.6491 82.1555 43.6234 82.0053 43.6377L76.7774 44.2195L77.1367 41.7895L79.755 39.1028C79.8548 39.0006 79.9275 38.875 79.9664 38.7375C80.0052 38.6 80.009 38.455 79.9774 38.3156L79.1218 34.7134L80.7817 34.1658C80.9106 34.1232 81.0274 34.0505 81.1226 33.9538C81.2178 33.8571 81.2887 33.7391 81.3293 33.6096C81.3694 33.4796 81.3778 33.342 81.354 33.2081C81.3302 33.0741 81.2748 32.9478 81.1924 32.8396L80.3368 31.6588L82.416 30.5379C82.6123 30.4323 82.7597 30.2543 82.8267 30.0417L83.8791 26.6191C83.9224 26.4848 83.9317 26.3418 83.9064 26.203C83.881 26.0641 83.8216 25.9337 83.7337 25.8234L79.387 20.5527ZM81.3293 29.2288L78.6854 30.6492C78.5768 30.7072 78.482 30.7881 78.4074 30.8862C78.3329 30.9843 78.2805 31.0973 78.2537 31.2175C78.2268 31.3378 78.2263 31.4624 78.2521 31.5828C78.2779 31.7033 78.3294 31.8168 78.4031 31.9155L79.1731 32.9508L77.9068 33.3701C77.7052 33.437 77.5357 33.5766 77.4313 33.7617C77.3269 33.9467 77.2951 34.164 77.3421 34.3712L78.1977 38.2728L75.7078 40.8397C75.5835 40.9686 75.5027 41.1332 75.4768 41.3104L74.9121 45.1094C74.8929 45.2389 74.9038 45.3711 74.9438 45.4958C74.9838 45.6205 75.0519 45.7343 75.1428 45.8285C75.2337 45.9228 75.345 45.9949 75.4682 46.0393C75.5914 46.0837 75.7231 46.0993 75.8533 46.0848L80.6619 45.5457L80.2084 46.504L75.8447 47.933C75.7348 47.9742 75.6333 48.0351 75.5452 48.1126L72.388 50.9533C72.3009 51.0296 72.2302 51.1228 72.1802 51.2273C72.1302 51.3317 72.1019 51.4452 72.097 51.5608C72.094 51.6783 72.1153 51.7952 72.1594 51.9042C72.2036 52.0131 72.2697 52.1118 72.3537 52.194L75.2629 55.1032L74.6896 58.0123L72.9783 58.2861L70.5826 56.7716C70.4534 56.6888 70.3043 56.6422 70.1509 56.6367C69.9976 56.6313 69.8455 56.6672 69.7108 56.7406C69.5761 56.8141 69.4636 56.9225 69.3851 57.0544C69.3067 57.1863 69.2651 57.3369 69.2649 57.4904L69.205 63.6509L67.0574 64.19L65.6541 61.991C65.5906 61.8931 65.5078 61.8091 65.4107 61.7444C65.3136 61.6796 65.2042 61.6354 65.0894 61.6145H64.9354C64.758 61.6132 64.5846 61.667 64.4391 61.7685L62.0605 63.4798V62.5044L63.6776 60.1257C63.7542 60.0111 63.802 59.8797 63.8169 59.7426C63.8318 59.6056 63.8134 59.4669 63.7632 59.3385L60.1011 49.7726L62.3257 45.3233C62.3845 45.205 62.4151 45.0746 62.4151 44.9425C62.4151 44.8104 62.3845 44.6801 62.3257 44.5618C62.2671 44.443 62.1817 44.3394 62.0763 44.2592C61.9709 44.1791 61.8483 44.1245 61.7182 44.0997L59.3909 43.6719V41.0023C59.3883 40.8914 59.3681 40.7817 59.331 40.6772L57.4999 36.245C57.4514 36.1291 57.3779 36.0253 57.2848 35.941C57.1916 35.8568 57.081 35.794 56.9609 35.7573C56.8396 35.7193 56.7115 35.7089 56.5857 35.7266C56.4599 35.7444 56.3396 35.7899 56.2336 35.86L54.1972 37.1947C54.0864 37.2673 53.994 37.3645 53.9271 37.4789C53.8603 37.5932 53.821 37.7215 53.8121 37.8536L53.5982 41.0879C53.5894 41.1618 53.5894 41.2365 53.5982 41.3104L54.3854 45.2377L51.9811 49.7811L39.061 55.9331L35.185 56.5064L28.9645 53.1266L20.0317 43.3553L12.2198 35.4749L12.023 33.9776L12.9385 32.985L14.7696 35.0899C14.8674 35.2002 14.992 35.2834 15.1315 35.3314C15.2709 35.3794 15.4203 35.3905 15.5653 35.3637L22.1024 34.2171C22.2454 34.1924 22.3803 34.1337 22.4959 34.046L25.2169 31.8642H27.3731C27.527 31.8646 27.6782 31.8235 27.8107 31.7452C27.9432 31.6669 28.0521 31.5543 28.126 31.4192L31.1464 25.8576C31.2138 25.7231 31.2446 25.5731 31.2356 25.4229C31.2266 25.2727 31.1781 25.1275 31.0951 25.002C31.001 24.8677 30.8704 24.7632 30.7187 24.701C30.567 24.6388 30.4007 24.6215 30.2394 24.6512L22.6414 25.8405C22.465 25.8743 22.3019 25.9573 22.1708 26.0801L20.4595 27.7913L13.0412 25.5325L5.45172 18.7986L6.06778 15.1964C6.0924 15.0616 6.08426 14.9228 6.04406 14.7918C6.00385 14.6607 5.93276 14.5413 5.83676 14.4435C5.75389 14.3515 5.65208 14.2787 5.53833 14.23C5.42459 14.1812 5.30163 14.1577 5.17792 14.1611L2.61102 14.5632L4.07415 12.3129L9.20796 11.9878C9.42587 11.9747 9.63054 11.8788 9.78006 11.7197C9.92958 11.5607 10.0126 11.3505 10.0123 11.1321V6.75986L12.1 7.98342C12.2623 8.07124 12.4466 8.10989 12.6305 8.09465L19.3387 7.31602L22.1024 9.2412C22.2454 9.34106 22.4156 9.3948 22.5901 9.39521H25.4736C25.6735 9.39561 25.8672 9.32598 26.0212 9.19842L27.9207 7.63261L31.7539 6.58874L31.9507 7.76951C31.9801 7.95009 32.0666 8.11649 32.1975 8.24431C32.3283 8.37212 32.4968 8.45462 32.678 8.47969L36.8963 9.03585C37.0395 9.055 37.1852 9.03759 37.3198 8.98522C37.4545 8.93286 37.5737 8.84725 37.6663 8.73638L40.4129 5.43363C40.4903 5.34066 40.5471 5.23235 40.5795 5.11584C40.612 4.99932 40.6193 4.87725 40.6012 4.75768C40.5836 4.63829 40.541 4.52396 40.4761 4.42221C40.4112 4.32046 40.3255 4.23359 40.2247 4.16729L38.9926 3.363L39.4888 2.18222L42.3723 2.85817C42.4739 2.8794 42.5788 2.8794 42.6803 2.85817L51.2367 1.70307L56.2678 4.74912C56.3322 4.78646 56.4013 4.81522 56.4732 4.83469L61.6497 6.30638C61.8494 6.35785 62.0607 6.33974 62.2487 6.25504L64.9525 4.9887L65.5087 6.0668L64.4819 8.29145C64.435 8.3947 64.4091 8.50624 64.4056 8.6196C64.4022 8.73295 64.4214 8.84586 64.462 8.95175C64.5026 9.05764 64.5638 9.1544 64.6422 9.23641C64.7205 9.31841 64.8143 9.38403 64.9183 9.42944L67.99 10.7386L68.2296 13.6734C68.2456 13.8811 68.3369 14.0758 68.4863 14.221L71.1901 16.8563L71.6264 18.8585C71.6568 18.9972 71.7212 19.126 71.8138 19.2336C71.9065 19.3411 72.0243 19.4239 72.1569 19.4746L78.2063 21.7848L82.1336 26.5934L81.3293 29.2288Z" fill="#646464"/>
<path d="M41.6023 51.4309L38.5477 52.9026L35.6813 53.3219L31.0095 50.755L28.3827 47.8801C28.2257 47.7298 28.0173 47.6449 27.7999 47.6426C27.5826 47.6404 27.3725 47.721 27.2124 47.868C27.0523 48.0151 26.9541 48.2175 26.9379 48.4343C26.9216 48.6511 26.9885 48.8659 27.1249 49.0352L29.8459 52.0128C29.908 52.0862 29.9835 52.1471 30.0683 52.1925L35.1166 54.9305C35.2402 54.9972 35.3783 55.0325 35.5187 55.0332H35.6471L38.9241 54.5454C39.0072 54.5358 39.0881 54.5127 39.1637 54.477L42.3638 52.954C42.5692 52.8564 42.7273 52.6812 42.8036 52.467C42.8798 52.2528 42.8678 52.0171 42.7702 51.8117C42.6726 51.6063 42.4975 51.4481 42.2832 51.3719C42.069 51.2957 41.8333 51.3077 41.6279 51.4053L41.6023 51.4309Z" fill="white"/>
<path d="M45.444 49.6001L43.7841 50.3958C43.6102 50.48 43.4699 50.6206 43.3861 50.7948C43.3022 50.9689 43.2798 51.1663 43.3225 51.3547C43.3652 51.5432 43.4704 51.7117 43.621 51.8328C43.7716 51.9539 43.9588 52.0204 44.152 52.0215C44.2795 52.0207 44.4052 51.9915 44.5199 51.9359L46.1799 51.1488C46.2816 51.1004 46.3727 51.0326 46.4482 50.949C46.5237 50.8655 46.5819 50.7679 46.6197 50.6618C46.6574 50.5557 46.6739 50.4433 46.6681 50.3308C46.6624 50.2184 46.6346 50.1082 46.5863 50.0065C46.538 49.9048 46.4701 49.8136 46.3866 49.7382C46.303 49.6627 46.2054 49.6044 46.0993 49.5667C45.9933 49.529 45.8808 49.5125 45.7684 49.5182C45.6559 49.5239 45.5457 49.5517 45.444 49.6001Z" fill="white"/>
</svg>
