<svg width="79" height="76" viewBox="0 0 79 76" fill="none" xmlns="http://www.w3.org/2000/svg">
<path d="M72.793 19.6001C73.4595 19.6001 73.9998 19.1225 73.9998 18.5334C73.9998 17.9443 73.4595 17.4667 72.793 17.4667C72.1264 17.4667 71.5861 17.9443 71.5861 18.5334C71.5861 19.1225 72.1264 19.6001 72.793 19.6001Z" fill="#646464"/>
<path d="M67.9654 23.8667C68.6319 23.8667 69.1723 23.3891 69.1723 22.8C69.1723 22.2109 68.6319 21.7333 67.9654 21.7333C67.2988 21.7333 66.7585 22.2109 66.7585 22.8C66.7585 23.3891 67.2988 23.8667 67.9654 23.8667Z" fill="#646464"/>
<path d="M72.793 23.8667C73.4595 23.8667 73.9998 23.3891 73.9998 22.8C73.9998 22.2109 73.4595 21.7333 72.793 21.7333C72.1264 21.7333 71.5861 22.2109 71.5861 22.8C71.5861 23.3891 72.1264 23.8667 72.793 23.8667Z" fill="#646464"/>
<path d="M77.2068 23.8667C77.8733 23.8667 78.4137 23.3891 78.4137 22.8C78.4137 22.2109 77.8733 21.7333 77.2068 21.7333C76.5402 21.7333 75.9999 22.2109 75.9999 22.8C75.9999 23.3891 76.5402 23.8667 77.2068 23.8667Z" fill="#646464"/>
<path d="M43.8274 23.8667C44.494 23.8667 45.0343 23.3891 45.0343 22.8C45.0343 22.2109 44.494 21.7333 43.8274 21.7333C43.1609 21.7333 42.6205 22.2109 42.6205 22.8C42.6205 23.3891 43.1609 23.8667 43.8274 23.8667Z" fill="#646464"/>
<path d="M58.3102 23.8667C58.9768 23.8667 59.5171 23.3891 59.5171 22.8C59.5171 22.2109 58.9768 21.7333 58.3102 21.7333C57.6437 21.7333 57.1033 22.2109 57.1033 22.8C57.1033 23.3891 57.6437 23.8667 58.3102 23.8667Z" fill="#646464"/>
<path d="M63.1378 23.8667C63.8044 23.8667 64.3447 23.3891 64.3447 22.8C64.3447 22.2109 63.8044 21.7333 63.1378 21.7333C62.4713 21.7333 61.9309 22.2109 61.9309 22.8C61.9309 23.3891 62.4713 23.8667 63.1378 23.8667Z" fill="#646464"/>
<path d="M67.9654 28.1335C68.6319 28.1335 69.1723 27.6559 69.1723 27.0668C69.1723 26.4777 68.6319 26.0001 67.9654 26.0001C67.2988 26.0001 66.7585 26.4777 66.7585 27.0668C66.7585 27.6559 67.2988 28.1335 67.9654 28.1335Z" fill="#646464"/>
<path d="M72.793 28.1335C73.4595 28.1335 73.9998 27.6559 73.9998 27.0668C73.9998 26.4777 73.4595 26.0001 72.793 26.0001C72.1264 26.0001 71.5861 26.4777 71.5861 27.0668C71.5861 27.6559 72.1264 28.1335 72.793 28.1335Z" fill="#646464"/>
<path d="M43.8274 28.1335C44.494 28.1335 45.0343 27.6559 45.0343 27.0668C45.0343 26.4777 44.494 26.0001 43.8274 26.0001C43.1609 26.0001 42.6205 26.4777 42.6205 27.0668C42.6205 27.6559 43.1609 28.1335 43.8274 28.1335Z" fill="#646464"/>
<path d="M48.6551 28.1335C49.3216 28.1335 49.862 27.6559 49.862 27.0668C49.862 26.4777 49.3216 26.0001 48.6551 26.0001C47.9885 26.0001 47.4482 26.4777 47.4482 27.0668C47.4482 27.6559 47.9885 28.1335 48.6551 28.1335Z" fill="#646464"/>
<path d="M53.4826 28.1335C54.1491 28.1335 54.6895 27.6559 54.6895 27.0668C54.6895 26.4777 54.1491 26.0001 53.4826 26.0001C52.816 26.0001 52.2757 26.4777 52.2757 27.0668C52.2757 27.6559 52.816 28.1335 53.4826 28.1335Z" fill="#646464"/>
<path d="M58.3102 28.1335C58.9768 28.1335 59.5171 27.6559 59.5171 27.0668C59.5171 26.4777 58.9768 26.0001 58.3102 26.0001C57.6437 26.0001 57.1033 26.4777 57.1033 27.0668C57.1033 27.6559 57.6437 28.1335 58.3102 28.1335Z" fill="#646464"/>
<path d="M63.2068 28.1335C63.8733 28.1335 64.4137 27.6559 64.4137 27.0668C64.4137 26.4777 63.8733 26.0001 63.2068 26.0001C62.5402 26.0001 61.9999 26.4777 61.9999 27.0668C61.9999 27.6559 62.5402 28.1335 63.2068 28.1335Z" fill="#646464"/>
<path d="M67.9654 32.4001C68.6319 32.4001 69.1723 31.9225 69.1723 31.3334C69.1723 30.7443 68.6319 30.2667 67.9654 30.2667C67.2988 30.2667 66.7585 30.7443 66.7585 31.3334C66.7585 31.9225 67.2988 32.4001 67.9654 32.4001Z" fill="#646464"/>
<path d="M72.793 32.4001C73.4595 32.4001 73.9998 31.9225 73.9998 31.3334C73.9998 30.7443 73.4595 30.2667 72.793 30.2667C72.1264 30.2667 71.5861 30.7443 71.5861 31.3334C71.5861 31.9225 72.1264 32.4001 72.793 32.4001Z" fill="#646464"/>
<path d="M43.8274 32.4001C44.494 32.4001 45.0343 31.9225 45.0343 31.3334C45.0343 30.7443 44.494 30.2667 43.8274 30.2667C43.1609 30.2667 42.6205 30.7443 42.6205 31.3334C42.6205 31.9225 43.1609 32.4001 43.8274 32.4001Z" fill="#646464"/>
<path d="M48.6551 32.4001C49.3216 32.4001 49.862 31.9225 49.862 31.3334C49.862 30.7443 49.3216 30.2667 48.6551 30.2667C47.9885 30.2667 47.4482 30.7443 47.4482 31.3334C47.4482 31.9225 47.9885 32.4001 48.6551 32.4001Z" fill="#646464"/>
<path d="M53.4826 32.4001C54.1491 32.4001 54.6895 31.9225 54.6895 31.3334C54.6895 30.7443 54.1491 30.2667 53.4826 30.2667C52.816 30.2667 52.2757 30.7443 52.2757 31.3334C52.2757 31.9225 52.816 32.4001 53.4826 32.4001Z" fill="#646464"/>
<path d="M58.3102 32.4001C58.9768 32.4001 59.5171 31.9225 59.5171 31.3334C59.5171 30.7443 58.9768 30.2667 58.3102 30.2667C57.6437 30.2667 57.1033 30.7443 57.1033 31.3334C57.1033 31.9225 57.6437 32.4001 58.3102 32.4001Z" fill="#646464"/>
<path d="M43.8274 36.6667C44.494 36.6667 45.0343 36.1892 45.0343 35.6001C45.0343 35.011 44.494 34.5334 43.8274 34.5334C43.1609 34.5334 42.6205 35.011 42.6205 35.6001C42.6205 36.1892 43.1609 36.6667 43.8274 36.6667Z" fill="#646464"/>
<path d="M48.6551 36.6667C49.3216 36.6667 49.862 36.1892 49.862 35.6001C49.862 35.011 49.3216 34.5334 48.6551 34.5334C47.9885 34.5334 47.4482 35.011 47.4482 35.6001C47.4482 36.1892 47.9885 36.6667 48.6551 36.6667Z" fill="#646464"/>
<path d="M53.4826 36.6667C54.1491 36.6667 54.6895 36.1892 54.6895 35.6001C54.6895 35.011 54.1491 34.5334 53.4826 34.5334C52.816 34.5334 52.2757 35.011 52.2757 35.6001C52.2757 36.1892 52.816 36.6667 53.4826 36.6667Z" fill="#646464"/>
<path d="M29.3447 2.53342C30.0113 2.53342 30.5516 2.05586 30.5516 1.46675C30.5516 0.877648 30.0113 0.400085 29.3447 0.400085C28.6782 0.400085 28.1378 0.877648 28.1378 1.46675C28.1378 2.05586 28.6782 2.53342 29.3447 2.53342Z" fill="#646464"/>
<path d="M19.6896 6.80002C20.3561 6.80002 20.8965 6.32246 20.8965 5.73335C20.8965 5.14425 20.3561 4.66669 19.6896 4.66669C19.023 4.66669 18.4827 5.14425 18.4827 5.73335C18.4827 6.32246 19.023 6.80002 19.6896 6.80002Z" fill="#646464"/>
<path d="M24.5171 6.80002C25.1837 6.80002 25.724 6.32246 25.724 5.73335C25.724 5.14425 25.1837 4.66669 24.5171 4.66669C23.8506 4.66669 23.3102 5.14425 23.3102 5.73335C23.3102 6.32246 23.8506 6.80002 24.5171 6.80002Z" fill="#646464"/>
<path d="M24.5171 2.53342C25.1837 2.53342 25.724 2.05586 25.724 1.46675C25.724 0.877648 25.1837 0.400085 24.5171 0.400085C23.8506 0.400085 23.3102 0.877648 23.3102 1.46675C23.3102 2.05586 23.8506 2.53342 24.5171 2.53342Z" fill="#646464"/>
<path d="M29.3447 6.80002C30.0113 6.80002 30.5516 6.32246 30.5516 5.73335C30.5516 5.14425 30.0113 4.66669 29.3447 4.66669C28.6782 4.66669 28.1378 5.14425 28.1378 5.73335C28.1378 6.32246 28.6782 6.80002 29.3447 6.80002Z" fill="#646464"/>
<path d="M24.5171 11.0667C25.1837 11.0667 25.724 10.5892 25.724 10.0001C25.724 9.41097 25.1837 8.93341 24.5171 8.93341C23.8506 8.93341 23.3102 9.41097 23.3102 10.0001C23.3102 10.5892 23.8506 11.0667 24.5171 11.0667Z" fill="#646464"/>
<path d="M29.3447 11.0667C30.0113 11.0667 30.5516 10.5892 30.5516 10.0001C30.5516 9.41097 30.0113 8.93341 29.3447 8.93341C28.6782 8.93341 28.1378 9.41097 28.1378 10.0001C28.1378 10.5892 28.6782 11.0667 29.3447 11.0667Z" fill="#646464"/>
<path d="M19.6896 15.3335C20.3561 15.3335 20.8965 14.8559 20.8965 14.2668C20.8965 13.6777 20.3561 13.2001 19.6896 13.2001C19.023 13.2001 18.4827 13.6777 18.4827 14.2668C18.4827 14.8559 19.023 15.3335 19.6896 15.3335Z" fill="#646464"/>
<path d="M24.5171 15.3335C25.1837 15.3335 25.724 14.8559 25.724 14.2668C25.724 13.6777 25.1837 13.2001 24.5171 13.2001C23.8506 13.2001 23.3102 13.6777 23.3102 14.2668C23.3102 14.8559 23.8506 15.3335 24.5171 15.3335Z" fill="#646464"/>
<path d="M29.3447 15.3335C30.0113 15.3335 30.5516 14.8559 30.5516 14.2668C30.5516 13.6777 30.0113 13.2001 29.3447 13.2001C28.6782 13.2001 28.1378 13.6777 28.1378 14.2668C28.1378 14.8559 28.6782 15.3335 29.3447 15.3335Z" fill="#646464"/>
<path d="M34.1722 15.3335C34.8388 15.3335 35.3791 14.8559 35.3791 14.2668C35.3791 13.6777 34.8388 13.2001 34.1722 13.2001C33.5057 13.2001 32.9653 13.6777 32.9653 14.2668C32.9653 14.8559 33.5057 15.3335 34.1722 15.3335Z" fill="#646464"/>
<path d="M19.6896 19.6001C20.3561 19.6001 20.8965 19.1225 20.8965 18.5334C20.8965 17.9443 20.3561 17.4667 19.6896 17.4667C19.023 17.4667 18.4827 17.9443 18.4827 18.5334C18.4827 19.1225 19.023 19.6001 19.6896 19.6001Z" fill="#646464"/>
<path d="M24.5171 19.6001C25.1837 19.6001 25.724 19.1225 25.724 18.5334C25.724 17.9443 25.1837 17.4667 24.5171 17.4667C23.8506 17.4667 23.3102 17.9443 23.3102 18.5334C23.3102 19.1225 23.8506 19.6001 24.5171 19.6001Z" fill="#646464"/>
<path d="M29.3447 19.6001C30.0113 19.6001 30.5516 19.1225 30.5516 18.5334C30.5516 17.9443 30.0113 17.4667 29.3447 17.4667C28.6782 17.4667 28.1378 17.9443 28.1378 18.5334C28.1378 19.1225 28.6782 19.6001 29.3447 19.6001Z" fill="#646464"/>
<path d="M34.1722 19.6001C34.8388 19.6001 35.3791 19.1225 35.3791 18.5334C35.3791 17.9443 34.8388 17.4667 34.1722 17.4667C33.5057 17.4667 32.9653 17.9443 32.9653 18.5334C32.9653 19.1225 33.5057 19.6001 34.1722 19.6001Z" fill="#646464"/>
<path d="M14.8619 19.6001C15.5285 19.6001 16.0688 19.1225 16.0688 18.5334C16.0688 17.9443 15.5285 17.4667 14.8619 17.4667C14.1954 17.4667 13.655 17.9443 13.655 18.5334C13.655 19.1225 14.1954 19.6001 14.8619 19.6001Z" fill="#646464"/>
<path d="M19.6896 23.8667C20.3561 23.8667 20.8965 23.3891 20.8965 22.8C20.8965 22.2109 20.3561 21.7333 19.6896 21.7333C19.023 21.7333 18.4827 22.2109 18.4827 22.8C18.4827 23.3891 19.023 23.8667 19.6896 23.8667Z" fill="#646464"/>
<path d="M24.5171 23.8667C25.1837 23.8667 25.724 23.3891 25.724 22.8C25.724 22.2109 25.1837 21.7333 24.5171 21.7333C23.8506 21.7333 23.3102 22.2109 23.3102 22.8C23.3102 23.3891 23.8506 23.8667 24.5171 23.8667Z" fill="#646464"/>
<path d="M29.3447 23.8667C30.0113 23.8667 30.5516 23.3891 30.5516 22.8C30.5516 22.2109 30.0113 21.7333 29.3447 21.7333C28.6782 21.7333 28.1378 22.2109 28.1378 22.8C28.1378 23.3891 28.6782 23.8667 29.3447 23.8667Z" fill="#646464"/>
<path d="M34.1722 23.8667C34.8388 23.8667 35.3791 23.3891 35.3791 22.8C35.3791 22.2109 34.8388 21.7333 34.1722 21.7333C33.5057 21.7333 32.9653 22.2109 32.9653 22.8C32.9653 23.3891 33.5057 23.8667 34.1722 23.8667Z" fill="#646464"/>
<path d="M38.9999 23.8667C39.6665 23.8667 40.2068 23.3891 40.2068 22.8C40.2068 22.2109 39.6665 21.7333 38.9999 21.7333C38.3334 21.7333 37.793 22.2109 37.793 22.8C37.793 23.3891 38.3334 23.8667 38.9999 23.8667Z" fill="#646464"/>
<path d="M10.0344 23.8667C10.7009 23.8667 11.2412 23.3891 11.2412 22.8C11.2412 22.2109 10.7009 21.7333 10.0344 21.7333C9.3678 21.7333 8.82745 22.2109 8.82745 22.8C8.82745 23.3891 9.3678 23.8667 10.0344 23.8667Z" fill="#646464"/>
<path d="M14.8619 23.8667C15.5285 23.8667 16.0688 23.3891 16.0688 22.8C16.0688 22.2109 15.5285 21.7333 14.8619 21.7333C14.1954 21.7333 13.655 22.2109 13.655 22.8C13.655 23.3891 14.1954 23.8667 14.8619 23.8667Z" fill="#646464"/>
<path d="M19.6896 28.1335C20.3561 28.1335 20.8965 27.6559 20.8965 27.0668C20.8965 26.4777 20.3561 26.0001 19.6896 26.0001C19.023 26.0001 18.4827 26.4777 18.4827 27.0668C18.4827 27.6559 19.023 28.1335 19.6896 28.1335Z" fill="#646464"/>
<path d="M24.5171 28.1335C25.1837 28.1335 25.724 27.6559 25.724 27.0668C25.724 26.4777 25.1837 26.0001 24.5171 26.0001C23.8506 26.0001 23.3102 26.4777 23.3102 27.0668C23.3102 27.6559 23.8506 28.1335 24.5171 28.1335Z" fill="#646464"/>
<path d="M29.3447 28.1335C30.0113 28.1335 30.5516 27.6559 30.5516 27.0668C30.5516 26.4777 30.0113 26.0001 29.3447 26.0001C28.6782 26.0001 28.1378 26.4777 28.1378 27.0668C28.1378 27.6559 28.6782 28.1335 29.3447 28.1335Z" fill="#646464"/>
<path d="M34.1722 28.1335C34.8388 28.1335 35.3791 27.6559 35.3791 27.0668C35.3791 26.4777 34.8388 26.0001 34.1722 26.0001C33.5057 26.0001 32.9653 26.4777 32.9653 27.0668C32.9653 27.6559 33.5057 28.1335 34.1722 28.1335Z" fill="#646464"/>
<path d="M38.9999 28.1335C39.6665 28.1335 40.2068 27.6559 40.2068 27.0668C40.2068 26.4777 39.6665 26.0001 38.9999 26.0001C38.3334 26.0001 37.793 26.4777 37.793 27.0668C37.793 27.6559 38.3334 28.1335 38.9999 28.1335Z" fill="#646464"/>
<path d="M10.0344 28.1335C10.7009 28.1335 11.2412 27.6559 11.2412 27.0668C11.2412 26.4777 10.7009 26.0001 10.0344 26.0001C9.3678 26.0001 8.82745 26.4777 8.82745 27.0668C8.82745 27.6559 9.3678 28.1335 10.0344 28.1335Z" fill="#646464"/>
<path d="M14.8619 28.1335C15.5285 28.1335 16.0688 27.6559 16.0688 27.0668C16.0688 26.4777 15.5285 26.0001 14.8619 26.0001C14.1954 26.0001 13.655 26.4777 13.655 27.0668C13.655 27.6559 14.1954 28.1335 14.8619 28.1335Z" fill="#646464"/>
<path d="M19.6896 32.4001C20.3561 32.4001 20.8965 31.9225 20.8965 31.3334C20.8965 30.7443 20.3561 30.2667 19.6896 30.2667C19.023 30.2667 18.4827 30.7443 18.4827 31.3334C18.4827 31.9225 19.023 32.4001 19.6896 32.4001Z" fill="#646464"/>
<path d="M24.5171 32.4001C25.1837 32.4001 25.724 31.9225 25.724 31.3334C25.724 30.7443 25.1837 30.2667 24.5171 30.2667C23.8506 30.2667 23.3102 30.7443 23.3102 31.3334C23.3102 31.9225 23.8506 32.4001 24.5171 32.4001Z" fill="#646464"/>
<path d="M29.3447 32.4001C30.0113 32.4001 30.5516 31.9225 30.5516 31.3334C30.5516 30.7443 30.0113 30.2667 29.3447 30.2667C28.6782 30.2667 28.1378 30.7443 28.1378 31.3334C28.1378 31.9225 28.6782 32.4001 29.3447 32.4001Z" fill="#646464"/>
<path d="M34.1722 32.4001C34.8388 32.4001 35.3791 31.9225 35.3791 31.3334C35.3791 30.7443 34.8388 30.2667 34.1722 30.2667C33.5057 30.2667 32.9653 30.7443 32.9653 31.3334C32.9653 31.9225 33.5057 32.4001 34.1722 32.4001Z" fill="#646464"/>
<path d="M38.9999 32.4001C39.6665 32.4001 40.2068 31.9225 40.2068 31.3334C40.2068 30.7443 39.6665 30.2667 38.9999 30.2667C38.3334 30.2667 37.793 30.7443 37.793 31.3334C37.793 31.9225 38.3334 32.4001 38.9999 32.4001Z" fill="#646464"/>
<path d="M5.20677 32.4001C5.87332 32.4001 6.41367 31.9225 6.41367 31.3334C6.41367 30.7443 5.87332 30.2667 5.20677 30.2667C4.54022 30.2667 3.99988 30.7443 3.99988 31.3334C3.99988 31.9225 4.54022 32.4001 5.20677 32.4001Z" fill="#646464"/>
<path d="M10.0344 32.4001C10.7009 32.4001 11.2412 31.9225 11.2412 31.3334C11.2412 30.7443 10.7009 30.2667 10.0344 30.2667C9.3678 30.2667 8.82745 30.7443 8.82745 31.3334C8.82745 31.9225 9.3678 32.4001 10.0344 32.4001Z" fill="#646464"/>
<path d="M14.8619 32.4001C15.5285 32.4001 16.0688 31.9225 16.0688 31.3334C16.0688 30.7443 15.5285 30.2667 14.8619 30.2667C14.1954 30.2667 13.655 30.7443 13.655 31.3334C13.655 31.9225 14.1954 32.4001 14.8619 32.4001Z" fill="#646464"/>
<path d="M19.6896 36.6667C20.3561 36.6667 20.8965 36.1892 20.8965 35.6001C20.8965 35.011 20.3561 34.5334 19.6896 34.5334C19.023 34.5334 18.4827 35.011 18.4827 35.6001C18.4827 36.1892 19.023 36.6667 19.6896 36.6667Z" fill="#646464"/>
<path d="M24.5171 36.6667C25.1837 36.6667 25.724 36.1892 25.724 35.6001C25.724 35.011 25.1837 34.5334 24.5171 34.5334C23.8506 34.5334 23.3102 35.011 23.3102 35.6001C23.3102 36.1892 23.8506 36.6667 24.5171 36.6667Z" fill="#646464"/>
<path d="M29.3447 36.6667C30.0113 36.6667 30.5516 36.1892 30.5516 35.6001C30.5516 35.011 30.0113 34.5334 29.3447 34.5334C28.6782 34.5334 28.1378 35.011 28.1378 35.6001C28.1378 36.1892 28.6782 36.6667 29.3447 36.6667Z" fill="#646464"/>
<path d="M34.1722 36.6667C34.8388 36.6667 35.3791 36.1892 35.3791 35.6001C35.3791 35.011 34.8388 34.5334 34.1722 34.5334C33.5057 34.5334 32.9653 35.011 32.9653 35.6001C32.9653 36.1892 33.5057 36.6667 34.1722 36.6667Z" fill="#646464"/>
<path d="M38.9999 36.6667C39.6665 36.6667 40.2068 36.1892 40.2068 35.6001C40.2068 35.011 39.6665 34.5334 38.9999 34.5334C38.3334 34.5334 37.793 35.011 37.793 35.6001C37.793 36.1892 38.3334 36.6667 38.9999 36.6667Z" fill="#646464"/>
<path d="M5.20677 36.6667C5.87332 36.6667 6.41367 36.1892 6.41367 35.6001C6.41367 35.011 5.87332 34.5334 5.20677 34.5334C4.54022 34.5334 3.99988 35.011 3.99988 35.6001C3.99988 36.1892 4.54022 36.6667 5.20677 36.6667Z" fill="white"/>
<path d="M1.20677 32.4001C1.87332 32.4001 2.41367 31.9225 2.41367 31.3334C2.41367 30.7443 1.87332 30.2667 1.20677 30.2667C0.540224 30.2667 -0.00012207 30.7443 -0.00012207 31.3334C-0.00012207 31.9225 0.540224 32.4001 1.20677 32.4001Z" fill="#646464"/>
<path d="M10.0344 36.6667C10.7009 36.6667 11.2412 36.1892 11.2412 35.6001C11.2412 35.011 10.7009 34.5334 10.0344 34.5334C9.3678 34.5334 8.82745 35.011 8.82745 35.6001C8.82745 36.1892 9.3678 36.6667 10.0344 36.6667Z" fill="#646464"/>
<path d="M14.8619 36.6667C15.5285 36.6667 16.0688 36.1892 16.0688 35.6001C16.0688 35.011 15.5285 34.5334 14.8619 34.5334C14.1954 34.5334 13.655 35.011 13.655 35.6001C13.655 36.1892 14.1954 36.6667 14.8619 36.6667Z" fill="#646464"/>
<path d="M43.8274 40.9334C44.494 40.9334 45.0343 40.4559 45.0343 39.8668C45.0343 39.2777 44.494 38.8001 43.8274 38.8001C43.1609 38.8001 42.6205 39.2777 42.6205 39.8668C42.6205 40.4559 43.1609 40.9334 43.8274 40.9334Z" fill="#646464"/>
<path d="M48.6551 40.9334C49.3216 40.9334 49.862 40.4559 49.862 39.8668C49.862 39.2777 49.3216 38.8001 48.6551 38.8001C47.9885 38.8001 47.4482 39.2777 47.4482 39.8668C47.4482 40.4559 47.9885 40.9334 48.6551 40.9334Z" fill="#646464"/>
<path d="M53.4826 40.9334C54.1491 40.9334 54.6895 40.4559 54.6895 39.8668C54.6895 39.2777 54.1491 38.8001 53.4826 38.8001C52.816 38.8001 52.2757 39.2777 52.2757 39.8668C52.2757 40.4559 52.816 40.9334 53.4826 40.9334Z" fill="#646464"/>
<path d="M43.8274 45.2001C44.494 45.2001 45.0343 44.7225 45.0343 44.1334C45.0343 43.5443 44.494 43.0668 43.8274 43.0668C43.1609 43.0668 42.6205 43.5443 42.6205 44.1334C42.6205 44.7225 43.1609 45.2001 43.8274 45.2001Z" fill="#646464"/>
<path d="M48.6551 45.2001C49.3216 45.2001 49.862 44.7225 49.862 44.1334C49.862 43.5443 49.3216 43.0668 48.6551 43.0668C47.9885 43.0668 47.4482 43.5443 47.4482 44.1334C47.4482 44.7225 47.9885 45.2001 48.6551 45.2001Z" fill="#646464"/>
<path d="M43.8274 49.4667C44.494 49.4667 45.0343 48.9891 45.0343 48.4C45.0343 47.8109 44.494 47.3334 43.8274 47.3334C43.1609 47.3334 42.6205 47.8109 42.6205 48.4C42.6205 48.9891 43.1609 49.4667 43.8274 49.4667Z" fill="#646464"/>
<path d="M19.6896 40.9334C20.3561 40.9334 20.8965 40.4559 20.8965 39.8668C20.8965 39.2777 20.3561 38.8001 19.6896 38.8001C19.023 38.8001 18.4827 39.2777 18.4827 39.8668C18.4827 40.4559 19.023 40.9334 19.6896 40.9334Z" fill="#646464"/>
<path d="M24.5171 40.9334C25.1837 40.9334 25.724 40.4559 25.724 39.8668C25.724 39.2777 25.1837 38.8001 24.5171 38.8001C23.8506 38.8001 23.3102 39.2777 23.3102 39.8668C23.3102 40.4559 23.8506 40.9334 24.5171 40.9334Z" fill="#646464"/>
<path d="M29.3447 40.9334C30.0113 40.9334 30.5516 40.4559 30.5516 39.8668C30.5516 39.2777 30.0113 38.8001 29.3447 38.8001C28.6782 38.8001 28.1378 39.2777 28.1378 39.8668C28.1378 40.4559 28.6782 40.9334 29.3447 40.9334Z" fill="#646464"/>
<path d="M34.1722 40.9334C34.8388 40.9334 35.3791 40.4559 35.3791 39.8668C35.3791 39.2777 34.8388 38.8001 34.1722 38.8001C33.5057 38.8001 32.9653 39.2777 32.9653 39.8668C32.9653 40.4559 33.5057 40.9334 34.1722 40.9334Z" fill="#646464"/>
<path d="M38.9999 40.9334C39.6665 40.9334 40.2068 40.4559 40.2068 39.8668C40.2068 39.2777 39.6665 38.8001 38.9999 38.8001C38.3334 38.8001 37.793 39.2777 37.793 39.8668C37.793 40.4559 38.3334 40.9334 38.9999 40.9334Z" fill="#646464"/>
<path d="M10.0344 40.9334C10.7009 40.9334 11.2412 40.4559 11.2412 39.8668C11.2412 39.2777 10.7009 38.8001 10.0344 38.8001C9.3678 38.8001 8.82745 39.2777 8.82745 39.8668C8.82745 40.4559 9.3678 40.9334 10.0344 40.9334Z" fill="#646464"/>
<path d="M14.8619 40.9334C15.5285 40.9334 16.0688 40.4559 16.0688 39.8668C16.0688 39.2777 15.5285 38.8001 14.8619 38.8001C14.1954 38.8001 13.655 39.2777 13.655 39.8668C13.655 40.4559 14.1954 40.9334 14.8619 40.9334Z" fill="#646464"/>
<path d="M19.6896 45.2001C20.3561 45.2001 20.8965 44.7225 20.8965 44.1334C20.8965 43.5443 20.3561 43.0668 19.6896 43.0668C19.023 43.0668 18.4827 43.5443 18.4827 44.1334C18.4827 44.7225 19.023 45.2001 19.6896 45.2001Z" fill="#646464"/>
<path d="M24.5171 45.2001C25.1837 45.2001 25.724 44.7225 25.724 44.1334C25.724 43.5443 25.1837 43.0668 24.5171 43.0668C23.8506 43.0668 23.3102 43.5443 23.3102 44.1334C23.3102 44.7225 23.8506 45.2001 24.5171 45.2001Z" fill="#646464"/>
<path d="M29.3447 45.2001C30.0113 45.2001 30.5516 44.7225 30.5516 44.1334C30.5516 43.5443 30.0113 43.0668 29.3447 43.0668C28.6782 43.0668 28.1378 43.5443 28.1378 44.1334C28.1378 44.7225 28.6782 45.2001 29.3447 45.2001Z" fill="#646464"/>
<path d="M34.1722 45.2001C34.8388 45.2001 35.3791 44.7225 35.3791 44.1334C35.3791 43.5443 34.8388 43.0668 34.1722 43.0668C33.5057 43.0668 32.9653 43.5443 32.9653 44.1334C32.9653 44.7225 33.5057 45.2001 34.1722 45.2001Z" fill="#646464"/>
<path d="M38.9999 45.2001C39.6665 45.2001 40.2068 44.7225 40.2068 44.1334C40.2068 43.5443 39.6665 43.0668 38.9999 43.0668C38.3334 43.0668 37.793 43.5443 37.793 44.1334C37.793 44.7225 38.3334 45.2001 38.9999 45.2001Z" fill="#646464"/>
<path d="M14.8619 45.2001C15.5285 45.2001 16.0688 44.7225 16.0688 44.1334C16.0688 43.5443 15.5285 43.0668 14.8619 43.0668C14.1954 43.0668 13.655 43.5443 13.655 44.1334C13.655 44.7225 14.1954 45.2001 14.8619 45.2001Z" fill="#646464"/>
<path d="M19.6896 49.4667C20.3561 49.4667 20.8965 48.9891 20.8965 48.4C20.8965 47.8109 20.3561 47.3334 19.6896 47.3334C19.023 47.3334 18.4827 47.8109 18.4827 48.4C18.4827 48.9891 19.023 49.4667 19.6896 49.4667Z" fill="#646464"/>
<path d="M24.5171 49.4667C25.1837 49.4667 25.724 48.9891 25.724 48.4C25.724 47.8109 25.1837 47.3334 24.5171 47.3334C23.8506 47.3334 23.3102 47.8109 23.3102 48.4C23.3102 48.9891 23.8506 49.4667 24.5171 49.4667Z" fill="#646464"/>
<path d="M29.3447 49.4667C30.0113 49.4667 30.5516 48.9891 30.5516 48.4C30.5516 47.8109 30.0113 47.3334 29.3447 47.3334C28.6782 47.3334 28.1378 47.8109 28.1378 48.4C28.1378 48.9891 28.6782 49.4667 29.3447 49.4667Z" fill="#646464"/>
<path d="M34.1722 49.4667C34.8388 49.4667 35.3791 48.9891 35.3791 48.4C35.3791 47.8109 34.8388 47.3334 34.1722 47.3334C33.5057 47.3334 32.9653 47.8109 32.9653 48.4C32.9653 48.9891 33.5057 49.4667 34.1722 49.4667Z" fill="#646464"/>
<path d="M38.9999 49.4667C39.6665 49.4667 40.2068 48.9891 40.2068 48.4C40.2068 47.8109 39.6665 47.3334 38.9999 47.3334C38.3334 47.3334 37.793 47.8109 37.793 48.4C37.793 48.9891 38.3334 49.4667 38.9999 49.4667Z" fill="#646464"/>
<path d="M14.8619 49.4667C15.5285 49.4667 16.0688 48.9891 16.0688 48.4C16.0688 47.8109 15.5285 47.3334 14.8619 47.3334C14.1954 47.3334 13.655 47.8109 13.655 48.4C13.655 48.9891 14.1954 49.4667 14.8619 49.4667Z" fill="#646464"/>
<path d="M19.6896 53.7334C20.3561 53.7334 20.8965 53.2559 20.8965 52.6668C20.8965 52.0777 20.3561 51.6001 19.6896 51.6001C19.023 51.6001 18.4827 52.0777 18.4827 52.6668C18.4827 53.2559 19.023 53.7334 19.6896 53.7334Z" fill="#646464"/>
<path d="M24.5171 53.7334C25.1837 53.7334 25.724 53.2559 25.724 52.6668C25.724 52.0777 25.1837 51.6001 24.5171 51.6001C23.8506 51.6001 23.3102 52.0777 23.3102 52.6668C23.3102 53.2559 23.8506 53.7334 24.5171 53.7334Z" fill="#646464"/>
<path d="M29.3447 53.7334C30.0113 53.7334 30.5516 53.2559 30.5516 52.6668C30.5516 52.0777 30.0113 51.6001 29.3447 51.6001C28.6782 51.6001 28.1378 52.0777 28.1378 52.6668C28.1378 53.2559 28.6782 53.7334 29.3447 53.7334Z" fill="#646464"/>
<path d="M34.1722 53.7334C34.8388 53.7334 35.3791 53.2559 35.3791 52.6668C35.3791 52.0777 34.8388 51.6001 34.1722 51.6001C33.5057 51.6001 32.9653 52.0777 32.9653 52.6668C32.9653 53.2559 33.5057 53.7334 34.1722 53.7334Z" fill="#646464"/>
<path d="M38.9999 53.7334C39.6665 53.7334 40.2068 53.2559 40.2068 52.6668C40.2068 52.0777 39.6665 51.6001 38.9999 51.6001C38.3334 51.6001 37.793 52.0777 37.793 52.6668C37.793 53.2559 38.3334 53.7334 38.9999 53.7334Z" fill="#646464"/>
<path d="M14.8619 53.7334C15.5285 53.7334 16.0688 53.2559 16.0688 52.6668C16.0688 52.0777 15.5285 51.6001 14.8619 51.6001C14.1954 51.6001 13.655 52.0777 13.655 52.6668C13.655 53.2559 14.1954 53.7334 14.8619 53.7334Z" fill="#646464"/>
<path d="M19.6896 58.0001C20.3561 58.0001 20.8965 57.5225 20.8965 56.9334C20.8965 56.3443 20.3561 55.8668 19.6896 55.8668C19.023 55.8668 18.4827 56.3443 18.4827 56.9334C18.4827 57.5225 19.023 58.0001 19.6896 58.0001Z" fill="#646464"/>
<path d="M24.5171 58.0001C25.1837 58.0001 25.724 57.5225 25.724 56.9334C25.724 56.3443 25.1837 55.8668 24.5171 55.8668C23.8506 55.8668 23.3102 56.3443 23.3102 56.9334C23.3102 57.5225 23.8506 58.0001 24.5171 58.0001Z" fill="#646464"/>
<path d="M29.3447 58.0001C30.0113 58.0001 30.5516 57.5225 30.5516 56.9334C30.5516 56.3443 30.0113 55.8668 29.3447 55.8668C28.6782 55.8668 28.1378 56.3443 28.1378 56.9334C28.1378 57.5225 28.6782 58.0001 29.3447 58.0001Z" fill="#646464"/>
<path d="M34.1722 58.0001C34.8388 58.0001 35.3791 57.5225 35.3791 56.9334C35.3791 56.3443 34.8388 55.8668 34.1722 55.8668C33.5057 55.8668 32.9653 56.3443 32.9653 56.9334C32.9653 57.5225 33.5057 58.0001 34.1722 58.0001Z" fill="#646464"/>
<path d="M19.6896 62.2668C20.3561 62.2668 20.8965 61.7892 20.8965 61.2001C20.8965 60.611 20.3561 60.1334 19.6896 60.1334C19.023 60.1334 18.4827 60.611 18.4827 61.2001C18.4827 61.7892 19.023 62.2668 19.6896 62.2668Z" fill="#646464"/>
<path d="M24.5171 62.2668C25.1837 62.2668 25.724 61.7892 25.724 61.2001C25.724 60.611 25.1837 60.1334 24.5171 60.1334C23.8506 60.1334 23.3102 60.611 23.3102 61.2001C23.3102 61.7892 23.8506 62.2668 24.5171 62.2668Z" fill="#646464"/>
<path d="M29.3447 62.2668C30.0113 62.2668 30.5516 61.7892 30.5516 61.2001C30.5516 60.611 30.0113 60.1334 29.3447 60.1334C28.6782 60.1334 28.1378 60.611 28.1378 61.2001C28.1378 61.7892 28.6782 62.2668 29.3447 62.2668Z" fill="#646464"/>
<path d="M34.1722 62.2668C34.8388 62.2668 35.3791 61.7892 35.3791 61.2001C35.3791 60.611 34.8388 60.1334 34.1722 60.1334C33.5057 60.1334 32.9653 60.611 32.9653 61.2001C32.9653 61.7892 33.5057 62.2668 34.1722 62.2668Z" fill="#646464"/>
<path d="M24.5171 66.5334C25.1837 66.5334 25.724 66.0559 25.724 65.4668C25.724 64.8776 25.1837 64.4001 24.5171 64.4001C23.8506 64.4001 23.3102 64.8776 23.3102 65.4668C23.3102 66.0559 23.8506 66.5334 24.5171 66.5334Z" fill="#646464"/>
<path d="M29.3447 66.5334C30.0113 66.5334 30.5516 66.0559 30.5516 65.4668C30.5516 64.8776 30.0113 64.4001 29.3447 64.4001C28.6782 64.4001 28.1378 64.8776 28.1378 65.4668C28.1378 66.0559 28.6782 66.5334 29.3447 66.5334Z" fill="#646464"/>
<path d="M34.1722 66.5334C34.8388 66.5334 35.3791 66.0559 35.3791 65.4668C35.3791 64.8776 34.8388 64.4001 34.1722 64.4001C33.5057 64.4001 32.9653 64.8776 32.9653 65.4668C32.9653 66.0559 33.5057 66.5334 34.1722 66.5334Z" fill="#646464"/>
<path d="M24.5171 70.8001C25.1837 70.8001 25.724 70.3225 25.724 69.7334C25.724 69.1443 25.1837 68.6667 24.5171 68.6667C23.8506 68.6667 23.3102 69.1443 23.3102 69.7334C23.3102 70.3225 23.8506 70.8001 24.5171 70.8001Z" fill="#646464"/>
<path d="M29.3447 70.8001C30.0113 70.8001 30.5516 70.3225 30.5516 69.7334C30.5516 69.1443 30.0113 68.6667 29.3447 68.6667C28.6782 68.6667 28.1378 69.1443 28.1378 69.7334C28.1378 70.3225 28.6782 70.8001 29.3447 70.8001Z" fill="#646464"/>
<path d="M24.5171 75.0667C25.1837 75.0667 25.724 74.5892 25.724 74.0001C25.724 73.411 25.1837 72.9334 24.5171 72.9334C23.8506 72.9334 23.3102 73.411 23.3102 74.0001C23.3102 74.5892 23.8506 75.0667 24.5171 75.0667Z" fill="#646464"/>
<path d="M29.3447 75.0667C30.0113 75.0667 30.5516 74.5892 30.5516 74.0001C30.5516 73.411 30.0113 72.9334 29.3447 72.9334C28.6782 72.9334 28.1378 73.411 28.1378 74.0001C28.1378 74.5892 28.6782 75.0667 29.3447 75.0667Z" fill="#646464"/>
</svg>
