<svg xmlns="http://www.w3.org/2000/svg" viewBox="0 0 485.77 146.73"><defs><style>.cls-1{fill:#008cff;}</style></defs><g id="Layer_2" data-name="Layer 2"><g id="Layer_1-2" data-name="Layer 1"><path class="cls-1" d="M17.71,7.33V144.49H0V7.33Z"/><path class="cls-1" d="M50.06,72.65c0-10.17-.2-18.52-.81-26.66H65.12l1,16.28h.41c4.88-9.36,16.28-18.52,32.56-18.52,13.63,0,34.8,8.14,34.8,41.93v58.81H116V87.71c0-15.87-5.9-29.1-22.79-29.1-11.81,0-21,8.34-24,18.32A25.81,25.81,0,0,0,68,85.27v59.22H50.06Z"/><path class="cls-1" d="M160.57,126.17a46.91,46.91,0,0,0,23.6,7.13c13,0,19.13-6.52,19.13-14.66,0-8.54-5.09-13.22-18.31-18.11-17.71-6.31-26.05-16.07-26.05-27.88,0-15.87,12.82-28.9,34-28.9,10,0,18.73,2.85,24.22,6.11l-4.48,13a38.33,38.33,0,0,0-20.14-5.69c-10.59,0-16.49,6.1-16.49,13.43,0,8.14,5.9,11.8,18.72,16.68,17.1,6.52,25.85,15.06,25.85,29.72,0,17.29-13.43,29.5-36.83,29.5-10.79,0-20.76-2.64-27.68-6.71Z"/><path class="cls-1" d="M263.54,18.32c.2,6.1-4.27,11-11.4,11a10.65,10.65,0,0,1-10.78-11,10.92,10.92,0,0,1,11.19-11.2C259.27,7.12,263.54,12,263.54,18.32ZM243.6,144.49V46h17.91v98.5Z"/><path class="cls-1" d="M376.28,0V119.05c0,8.75.21,18.72.82,25.44H361l-.81-17.09h-.41c-5.5,11-17.5,19.33-33.58,19.33-23.81,0-42.13-20.15-42.13-50.06-.2-32.77,20.15-52.92,44.17-52.92,15.06,0,25.23,7.13,29.71,15.06h.4V0ZM358.37,86.08a31.64,31.64,0,0,0-.81-7.53c-2.64-11.39-12.41-20.75-25.85-20.75-18.51,0-29.5,16.28-29.5,38.05,0,20,9.76,36.43,29.1,36.43,12,0,23-7.94,26.25-21.37a31.1,31.1,0,0,0,.81-7.73Z"/><path class="cls-1" d="M416,98.5c.41,24.21,15.87,34.19,33.78,34.19,12.82,0,20.55-2.24,27.27-5.09l3.05,12.82c-6.31,2.85-17.09,6.1-32.76,6.1-30.32,0-48.44-19.94-48.44-49.65s17.51-53.12,46.2-53.12c32.15,0,40.7,28.29,40.7,46.4a68.26,68.26,0,0,1-.61,8.35Zm52.5-12.82c.21-11.4-4.68-29.11-24.82-29.11-18.12,0-26,16.69-27.48,29.11Z"/></g></g></svg>