<svg width="16" height="35" viewBox="0 0 16 35" fill="none" xmlns="http://www.w3.org/2000/svg">
<path d="M7.79167 0.0664062C3.49633 0.0664062 0 3.56132 0 7.85807C0 12.1548 3.49633 15.6497 7.79167 15.6497C12.087 15.6497 15.5833 12.1548 15.5833 7.85807C15.5833 3.56132 12.087 0.0664062 7.79167 0.0664062ZM7.79167 4.31641C5.83808 4.31641 4.25 5.90591 4.25 7.85807C4.25 8.24907 3.93267 8.56641 3.54167 8.56641C3.15067 8.56641 2.83333 8.24907 2.83333 7.85807C2.83333 5.12391 5.0575 2.89974 7.79167 2.89974C8.18267 2.89974 8.5 3.21707 8.5 3.60807C8.5 3.99907 8.18267 4.31641 7.79167 4.31641Z" fill="#646464"/>
<path d="M7.79165 34.0667C7.40065 34.0667 7.08331 33.7494 7.08331 33.3584V14.9417C7.08331 14.5507 7.40065 14.2334 7.79165 14.2334C8.18265 14.2334 8.49998 14.5507 8.49998 14.9417V33.3584C8.49998 33.7494 8.18265 34.0667 7.79165 34.0667Z" fill="#646464"/>
</svg>
