<svg width="16" height="16" viewBox="0 0 16 16" fill="none" xmlns="http://www.w3.org/2000/svg">
<path fill-rule="evenodd" clip-rule="evenodd" d="M0.224065 0.872588C0.224516 0.872198 0.224968 0.871811 0.225422 0.871424C0.227142 0.870003 0.228885 0.868607 0.230645 0.867229C0.235475 0.863063 0.240471 0.859069 0.24563 0.855263C0.291177 0.821868 0.347523 0.803893 0.405442 0.804276C0.463362 0.80466 0.519426 0.82338 0.564461 0.857374C5.4839 3.95186 10.3709 4.24333 15.4335 0.860193C15.4751 0.827629 15.5267 0.808249 15.5808 0.804856C15.635 0.801463 15.6888 0.814224 15.7347 0.841309C15.7354 0.841761 15.7361 0.842219 15.7369 0.842678C15.7431 0.846441 15.7492 0.850456 15.7551 0.854714C15.7566 0.855867 15.7581 0.857039 15.7596 0.858226C15.7642 0.861681 15.7687 0.865289 15.773 0.869033C15.7758 0.87156 15.7786 0.874142 15.7813 0.876789C15.7843 0.879553 15.7871 0.882386 15.79 0.885281C15.7938 0.889446 15.7976 0.89374 15.8011 0.898147C15.8023 0.899602 15.8035 0.901062 15.8047 0.902543C15.8094 0.908577 15.8139 0.914821 15.818 0.921242C15.8454 0.9641 15.8577 1.01389 15.8532 1.06362C15.8487 1.11334 15.8276 1.1605 15.7929 1.19846C12.1701 5.9221 12.482 10.482 15.7954 15.0721C15.8334 15.1148 15.8542 15.1685 15.8543 15.224C15.8544 15.2795 15.8338 15.3333 15.7959 15.3762C15.7954 15.3767 15.7949 15.3771 15.7944 15.3776L15.7941 15.3779C15.7907 15.3813 15.7872 15.3845 15.7836 15.3877C15.7808 15.3904 15.7779 15.3931 15.775 15.3957C15.7737 15.3969 15.7725 15.3981 15.7712 15.3993C15.7261 15.4384 15.6675 15.461 15.6059 15.463C15.5444 15.465 15.4842 15.4462 15.4363 15.4101C10.5152 12.3174 5.63017 12.0242 0.567793 15.4069C0.52623 15.4396 0.474562 15.4591 0.420296 15.4626C0.366028 15.4661 0.311986 15.4533 0.266023 15.4262C0.265304 15.4257 0.264585 15.4252 0.263871 15.4248C0.257616 15.421 0.251542 15.417 0.245664 15.4128C0.24413 15.4116 0.24262 15.4104 0.241115 15.4093C0.236523 15.4058 0.232054 15.4022 0.227729 15.3984C0.224892 15.3959 0.222115 15.3933 0.219407 15.3907C0.216452 15.3879 0.213577 15.3851 0.210771 15.3822C0.206888 15.378 0.203156 15.3738 0.19959 15.3693C0.198373 15.3679 0.197171 15.3664 0.19599 15.3649C0.191263 15.3589 0.186847 15.3527 0.182748 15.3463C0.155396 15.3035 0.143071 15.2538 0.147499 15.2041C0.151927 15.1545 0.172887 15.1074 0.207441 15.0694C3.83053 10.3456 3.51708 5.7873 0.205258 1.19533C0.16732 1.1526 0.14652 1.09888 0.146428 1.04339C0.146335 0.987895 0.166959 0.934107 0.204755 0.89127C0.205216 0.890723 0.205685 0.890181 0.206152 0.889637L0.206549 0.889266C0.209791 0.885829 0.213135 0.882478 0.216583 0.879221C0.218843 0.876795 0.221153 0.874409 0.223515 0.872071L0.224065 0.872588Z" fill="white"/>
</svg>
