<svg width="90" height="90" viewBox="0 0 90 90" fill="none" xmlns="http://www.w3.org/2000/svg">
<path d="M44.5547 11.209C44.7505 11.209 44.9092 11.0503 44.9092 10.8545V0.354492C44.9092 0.158691 44.7505 0 44.5547 0C44.3589 0 44.2002 0.158691 44.2002 0.354492V10.8545C44.2002 11.0503 44.3589 11.209 44.5547 11.209Z" fill="white"/>
<path d="M45.7852 11.2084C45.7901 11.2084 45.794 11.2089 45.7989 11.2089C45.9883 11.2089 46.1456 11.059 46.1534 10.8686L46.5088 1.86857C46.5157 1.67277 46.3643 1.50822 46.168 1.50041C45.9776 1.49455 45.8077 1.64494 45.7998 1.84025L45.4449 10.8403C45.4371 11.0361 45.5889 11.2006 45.7852 11.2084Z" fill="white"/>
<path d="M47.1309 11.2081C47.1387 11.2086 47.1465 11.2091 47.1543 11.2091C47.3399 11.2091 47.4951 11.0655 47.5078 10.878L47.7383 7.41223C47.751 7.21692 47.6035 7.04846 47.4082 7.03527C47.2071 7.02404 47.044 7.17004 47.0313 7.36535L46.8008 10.8312C46.7881 11.0265 46.9356 11.1949 47.1309 11.2081Z" fill="white"/>
<path d="M48.3116 11.3062C48.3262 11.3082 48.3409 11.3091 48.3545 11.3091C48.5313 11.3091 48.6846 11.1773 48.7061 10.9976L49.2061 6.89752C49.2295 6.70318 49.0918 6.52643 48.8975 6.50299C48.6963 6.47516 48.5254 6.61773 48.503 6.81158L48.003 10.9117C47.9795 11.106 48.1172 11.2828 48.3116 11.3062Z" fill="white"/>
<path d="M49.6054 11.5059C49.622 11.5079 49.6386 11.5093 49.6543 11.5093C49.8291 11.5093 49.9804 11.3809 50.0048 11.2037L51.0048 4.00348C51.0322 3.80964 50.8964 3.63044 50.7031 3.60358C50.499 3.57624 50.33 3.71296 50.3037 3.90583L49.3037 11.106C49.2763 11.2999 49.4121 11.4791 49.6054 11.5059Z" fill="white"/>
<path d="M50.7813 11.7012C50.8057 11.7066 50.8301 11.709 50.8545 11.709C51.0186 11.709 51.166 11.5948 51.2012 11.4278L52.3018 6.22806C52.3418 6.03665 52.2198 5.84867 52.0284 5.80814C51.8399 5.7681 51.6485 5.89017 51.6084 6.08158L50.5078 11.2813C50.4678 11.4727 50.5899 11.6607 50.7813 11.7012Z" fill="white"/>
<path d="M52.0039 11.998C52.0332 12.0058 52.0625 12.0092 52.0908 12.0092C52.249 12.0092 52.3935 11.9023 52.4345 11.7417L53.3984 7.94136C53.4463 7.75191 53.331 7.55904 53.1416 7.51119C52.9492 7.45943 52.7597 7.57808 52.7109 7.76754L51.747 11.5678C51.6992 11.7573 51.8144 11.9502 52.0039 11.998Z" fill="white"/>
<path d="M53.3526 12.294C53.3868 12.3042 53.4209 12.3091 53.4551 12.3091C53.6075 12.3091 53.7481 12.2105 53.794 12.0572L56.0938 4.45708C56.1504 4.27007 56.045 4.07231 55.8575 4.01518C55.669 3.95952 55.4717 4.06401 55.4161 4.252L53.1163 11.8521C53.0596 12.0391 53.1651 12.2369 53.3526 12.294Z" fill="white"/>
<path d="M33.791 12.6314C33.8394 12.7813 33.9785 12.8765 34.1279 12.8765C34.1641 12.8765 34.2012 12.8706 34.2373 12.8589C34.4233 12.7984 34.5254 12.5987 34.4648 12.4126L31.2202 2.42631C31.1602 2.23979 30.959 2.1392 30.7739 2.19877C30.5879 2.25932 30.4858 2.45902 30.5464 2.64506L33.791 12.6314Z" fill="white"/>
<path d="M34.9702 12.2338C35.0142 12.3901 35.1563 12.4921 35.3111 12.4921C35.3428 12.4921 35.375 12.4877 35.4073 12.4784C35.5957 12.4257 35.7051 12.2299 35.6519 12.0414L33.209 3.37199C33.1558 3.184 32.961 3.07365 32.772 3.12736C32.5835 3.1801 32.4742 3.3759 32.5274 3.56438L34.9702 12.2338Z" fill="white"/>
<path d="M36.2573 11.8057C36.2978 11.9664 36.4418 12.0733 36.6 12.0733C36.6288 12.0733 36.6581 12.0699 36.6874 12.0621C36.8774 12.0142 36.9921 11.8214 36.9438 11.6319L36.0913 8.26423C36.0434 8.07429 35.853 7.95661 35.6611 8.00788C35.4711 8.05573 35.3564 8.2486 35.4047 8.43806L36.2573 11.8057Z" fill="white"/>
<path d="M37.7724 11.7974C37.7949 11.7974 37.8178 11.7949 37.8408 11.7905C38.0327 11.753 38.1581 11.5669 38.1205 11.375L37.329 7.32131C37.2914 7.12942 37.1044 7.00149 36.9135 7.04152C36.7216 7.07912 36.5961 7.26516 36.6337 7.45705L37.4252 11.5108C37.458 11.6797 37.6064 11.7974 37.7724 11.7974Z" fill="white"/>
<path d="M39.0703 11.586C39.0909 11.586 39.1119 11.584 39.1328 11.5801C39.3257 11.546 39.4541 11.3619 39.4195 11.1695L38.1455 4.01276C38.1119 3.81989 37.9283 3.68952 37.7349 3.72614C37.542 3.76032 37.4136 3.9444 37.4483 4.13678L38.7222 11.2935C38.7525 11.4654 38.9019 11.586 39.0703 11.586Z" fill="white"/>
<path d="M40.2735 11.4054C40.2862 11.4054 40.2989 11.4044 40.3116 11.4034C40.5059 11.3824 40.647 11.2081 40.6265 11.0133L40.0659 5.72764C40.0454 5.53379 39.8677 5.4 39.6758 5.4127C39.4815 5.43369 39.3404 5.60801 39.3609 5.80283L39.9214 11.0885C39.9409 11.2701 40.0948 11.4054 40.2735 11.4054Z" fill="white"/>
<path d="M41.542 11.3086C41.5498 11.3086 41.5576 11.3081 41.5659 11.3076C41.7613 11.2949 41.9087 11.126 41.896 10.9307L41.6382 7.01857C41.625 6.82326 41.4629 6.67384 41.2613 6.68849C41.0659 6.70119 40.9185 6.87013 40.9312 7.06544L41.189 10.9776C41.2012 11.1646 41.357 11.3086 41.542 11.3086Z" fill="white"/>
<path d="M42.9321 11.1724C42.9345 11.1724 42.937 11.1724 42.9394 11.1724C43.1347 11.168 43.2905 11.0063 43.2866 10.8105L43.1254 2.87158C43.1215 2.67676 42.9521 2.54541 42.7636 2.52441C42.5683 2.52881 42.4125 2.69043 42.4165 2.88623L42.5776 10.8252C42.582 11.0181 42.7397 11.1724 42.9321 11.1724Z" fill="white"/>
<path d="M24.4399 17.5381C24.5093 17.6333 24.6172 17.6841 24.727 17.6841C24.7988 17.6841 24.872 17.6621 24.935 17.6162C25.0932 17.5014 25.1284 17.2798 25.0132 17.1211L18.8413 8.62645C18.7265 8.46873 18.5044 8.43162 18.3462 8.54832C18.188 8.66356 18.1528 8.88475 18.268 9.04344L24.4399 17.5381Z" fill="white"/>
<path d="M25.4385 16.7955C25.5064 16.8976 25.6187 16.9532 25.7334 16.9532C25.8008 16.9532 25.8692 16.9337 25.9297 16.8932C26.0923 16.7848 26.1362 16.5646 26.0274 16.402L21.0254 8.91123C20.9175 8.74913 20.6983 8.7042 20.5342 8.81358C20.3716 8.92198 20.3277 9.14219 20.4365 9.30479L25.4385 16.7955Z" fill="white"/>
<path d="M26.5303 15.9902C26.5976 16.0971 26.7129 16.1557 26.8306 16.1557C26.895 16.1557 26.9604 16.1381 27.019 16.101C27.1846 15.9965 27.2344 15.7778 27.1299 15.6123L25.2783 12.6733C25.1738 12.5078 24.9541 12.4575 24.7895 12.5625C24.624 12.667 24.5742 12.8857 24.6787 13.0512L26.5303 15.9902Z" fill="white"/>
<path d="M28.0312 15.4869C28.2026 15.3922 28.2642 15.1764 28.1689 15.0055L26.1636 11.3946C26.0688 11.2232 25.852 11.1612 25.6821 11.2569C25.5107 11.3517 25.4492 11.5675 25.5444 11.7384L27.5498 15.3492C27.6143 15.4659 27.7353 15.5318 27.8599 15.5318C27.918 15.5318 27.977 15.5172 28.0312 15.4869Z" fill="white"/>
<path d="M28.7163 14.7418C28.7798 14.8609 28.9023 14.9293 29.0293 14.9293C29.0854 14.9293 29.1426 14.9156 29.1958 14.8873C29.3682 14.795 29.4336 14.5807 29.3413 14.4078L25.9185 7.99521C25.8267 7.82285 25.6123 7.75693 25.439 7.8497C25.2666 7.94199 25.2012 8.15634 25.2935 8.3292L28.7163 14.7418Z" fill="white"/>
<path d="M29.7935 14.1757C29.8526 14.3075 29.9819 14.3856 30.1172 14.3856C30.1655 14.3856 30.2149 14.3759 30.2617 14.3549C30.4404 14.2748 30.5205 14.0653 30.4409 13.8866L28.2744 9.03308C28.1943 8.85388 27.9834 8.77478 27.8062 8.85388C27.6275 8.93396 27.5474 9.14343 27.627 9.32214L29.7935 14.1757Z" fill="white"/>
<path d="M30.9649 13.6788C31.0205 13.8174 31.1533 13.9019 31.294 13.9019C31.3379 13.9019 31.3823 13.8936 31.4253 13.8765C31.607 13.8038 31.6958 13.5977 31.6231 13.4161L30.169 9.77545C30.0957 9.59381 29.8882 9.50543 29.7085 9.5777C29.5269 9.65045 29.438 9.85651 29.5108 10.0381L30.9649 13.6788Z" fill="white"/>
<path d="M32.2387 13.1045C32.2895 13.251 32.4267 13.3428 32.5732 13.3428C32.6118 13.3428 32.6508 13.3364 32.6894 13.3228C32.8745 13.2588 32.9721 13.0567 32.9077 12.8721L30.3012 5.3716C30.2373 5.18655 30.0361 5.0884 29.8505 5.15334C29.6655 5.21731 29.5678 5.41946 29.6323 5.60403L32.2387 13.1045Z" fill="white"/>
<path d="M17.0625 25.0943C17.1255 25.1402 17.1987 25.1622 17.2705 25.1622C17.3803 25.1622 17.4883 25.1114 17.5576 25.0162C17.6728 24.8575 17.6377 24.6363 17.4795 24.5211L8.98484 18.3492C8.82419 18.2325 8.60398 18.2701 8.48972 18.4273C8.37449 18.586 8.40964 18.8072 8.56785 18.9225L17.0625 25.0943Z" fill="white"/>
<path d="M17.7827 24.0795C17.8476 24.1308 17.9248 24.1557 18.0019 24.1557C18.1064 24.1557 18.2104 24.1093 18.2803 24.0204C18.4013 23.8671 18.375 23.644 18.2212 23.5229L11.1494 17.9443C10.9975 17.8242 10.7739 17.8495 10.6518 18.0033C10.5307 18.1567 10.5571 18.3798 10.7109 18.5009L17.7827 24.0795Z" fill="white"/>
<path d="M15.8579 20.2545C15.7329 20.4048 15.7535 20.628 15.9038 20.7535L18.5728 22.9766C18.6387 23.0318 18.7193 23.0587 18.7993 23.0587C18.9009 23.0587 19.0015 23.0152 19.0718 22.9307C19.1968 22.7803 19.1763 22.5572 19.0259 22.4317L16.357 20.2086C16.2076 20.0831 15.9829 20.1031 15.8579 20.2545Z" fill="white"/>
<path d="M19.5855 22.1466C19.6802 22.1466 19.7749 22.1085 19.8448 22.0333C19.9781 21.8902 19.9703 21.6661 19.8267 21.5328L16.8038 18.7184C16.6617 18.5855 16.4371 18.5929 16.3033 18.7364C16.17 18.8795 16.1778 19.1036 16.3213 19.2369L19.3443 22.0514C19.4122 22.1148 19.4991 22.1466 19.5855 22.1466Z" fill="white"/>
<path d="M20.2656 21.1132C20.3345 21.1791 20.4229 21.2123 20.5112 21.2123C20.604 21.2123 20.6968 21.1757 20.7666 21.1035C20.9024 20.9628 20.898 20.7382 20.7568 20.6025L15.52 15.5615C15.3794 15.4262 15.1553 15.4301 15.019 15.5712C14.8833 15.7119 14.8877 15.9365 15.0288 16.0722L20.2656 21.1132Z" fill="white"/>
<path d="M21.1152 20.2416C21.185 20.3192 21.2817 20.3588 21.3784 20.3588C21.4629 20.3588 21.5478 20.3285 21.6157 20.2675C21.7612 20.1361 21.7724 19.912 21.6416 19.767L18.0815 15.8207C17.9507 15.6752 17.7265 15.6645 17.581 15.7948C17.4355 15.9262 17.4243 16.1503 17.5552 16.2953L21.1152 20.2416Z" fill="white"/>
<path d="M22.0757 19.4072C22.146 19.4917 22.2466 19.5352 22.3482 19.5352C22.4283 19.5352 22.5088 19.5083 22.5747 19.4531C22.7251 19.3277 22.7456 19.1045 22.6206 18.9541L20.1128 15.9409C19.9868 15.7891 19.7627 15.77 19.6138 15.895C19.4634 16.0205 19.4429 16.2437 19.5679 16.3941L22.0757 19.4072Z" fill="white"/>
<path d="M23.3926 18.6084C23.4668 18.6084 23.542 18.585 23.606 18.5361C23.7622 18.418 23.7925 18.1958 23.6743 18.0401L18.8779 11.7119C18.7612 11.5557 18.5386 11.5254 18.3818 11.6436C18.2256 11.7617 18.1953 11.9839 18.3135 12.1397L23.1099 18.4678C23.1792 18.5601 23.2852 18.6084 23.3926 18.6084Z" fill="white"/>
<path d="M2.39551 31.3148L12.3818 34.5599C12.418 34.5717 12.4551 34.5775 12.4912 34.5775C12.6406 34.5775 12.7793 34.4823 12.8281 34.3324C12.8887 34.1464 12.7866 33.9467 12.6006 33.8861L2.61426 30.641C2.42773 30.5804 2.229 30.6825 2.16797 30.8685C2.10742 31.0546 2.20947 31.2543 2.39551 31.3148Z" fill="white"/>
<path d="M4.30328 30.2524L12.753 33.3725C12.7935 33.3871 12.8345 33.3944 12.8755 33.3944C13.0196 33.3944 13.1553 33.3056 13.2081 33.1625C13.2759 32.9789 13.1817 32.7753 12.9981 32.7074L4.5484 29.5873C4.36578 29.5204 4.16119 29.6137 4.09332 29.7973C4.02545 29.9809 4.11969 30.1845 4.30328 30.2524Z" fill="white"/>
<path d="M9.93795 30.7896L13.163 32.0792C13.206 32.0963 13.2504 32.1046 13.2944 32.1046C13.435 32.1046 13.5678 32.0201 13.6235 31.8814C13.6962 31.6998 13.6079 31.4937 13.4257 31.421L10.2006 30.1314C10.0205 30.0587 9.81295 30.1471 9.74019 30.3292C9.66744 30.5108 9.75582 30.7169 9.93795 30.7896Z" fill="white"/>
<path d="M9.86623 29.2187L13.6109 30.9609C13.6592 30.9834 13.71 30.9941 13.7603 30.9941C13.8936 30.9941 14.0215 30.9179 14.0816 30.789C14.1641 30.6118 14.0869 30.4008 13.9097 30.3183L10.1651 28.5761C9.98927 28.4946 9.77736 28.5708 9.69435 28.748C9.61183 28.9253 9.68898 29.1362 9.86623 29.2187Z" fill="white"/>
<path d="M7.65921 26.6079L14.1978 29.7842C14.2476 29.8081 14.3003 29.8198 14.3521 29.8198C14.4839 29.8198 14.6099 29.7461 14.6714 29.6201C14.7569 29.4443 14.6836 29.2319 14.5074 29.1465L7.96879 25.9702C7.79154 25.8858 7.5806 25.9585 7.49515 26.1343C7.4097 26.3101 7.48295 26.5225 7.65921 26.6079Z" fill="white"/>
<path d="M10.1309 26.04L14.7368 28.6928C14.7925 28.725 14.8531 28.7402 14.9131 28.7402C15.0357 28.7402 15.1553 28.6762 15.2207 28.5624C15.3184 28.393 15.2598 28.1762 15.0904 28.0785L10.4844 25.4257C10.3164 25.3281 10.0987 25.3876 10.0005 25.5561C9.90286 25.7255 9.96145 25.9423 10.1309 26.04Z" fill="white"/>
<path d="M12.4536 24.9122C12.2881 24.8067 12.0688 24.857 11.9648 25.023C11.8603 25.1885 11.9101 25.4073 12.0757 25.5118L15.3916 27.6026C15.4502 27.6397 15.5156 27.6573 15.5801 27.6573C15.6977 27.6573 15.813 27.5987 15.8804 27.4917C15.9849 27.3262 15.935 27.1075 15.7695 27.003L12.4536 24.9122Z" fill="white"/>
<path d="M16.2871 26.4532C16.3994 26.4532 16.5097 26.4 16.5786 26.3014C16.6904 26.1407 16.6503 25.9195 16.4902 25.8077L9.97261 21.2716C9.81099 21.1603 9.59127 21.2003 9.47896 21.36C9.36714 21.5206 9.40718 21.7418 9.56734 21.8536L16.0849 26.3897C16.1469 26.4327 16.2172 26.4532 16.2871 26.4532Z" fill="white"/>
<path d="M11.209 44.6548C11.209 44.459 11.0503 44.3003 10.8545 44.3003H0.354492C0.158691 44.3003 0 44.459 0 44.6548C0 44.8506 0.158691 45.0093 0.354492 45.0093H10.8545C11.0503 45.0093 11.209 44.8506 11.209 44.6548Z" fill="white"/>
<path d="M1.84038 43.4086L10.8404 43.7645C10.8453 43.7645 10.8501 43.765 10.8545 43.765C11.044 43.765 11.2012 43.6151 11.2085 43.4247C11.2164 43.2289 11.064 43.0644 10.8687 43.0565L1.8687 42.7006C1.65581 42.6864 1.50786 42.8456 1.50053 43.0404C1.49272 43.2362 1.64506 43.4008 1.84038 43.4086Z" fill="white"/>
<path d="M10.8779 41.7013L7.41207 41.4713C7.2192 41.4542 7.04781 41.6056 7.03512 41.8014C7.02194 41.9967 7.16988 42.1656 7.3652 42.1783L10.831 42.4083C10.8388 42.4088 10.8471 42.4093 10.8549 42.4093C11.04 42.4093 11.1958 42.2657 11.208 42.0782C11.2212 41.8829 11.0732 41.714 10.8779 41.7013Z" fill="white"/>
<path d="M10.9976 40.503L6.89747 40.003C6.70216 39.9815 6.52686 40.1177 6.50294 40.3116C6.47901 40.5059 6.61719 40.6826 6.81153 40.7061L10.9116 41.2061C10.9263 41.208 10.9409 41.209 10.9551 41.209C11.1314 41.209 11.2842 41.0772 11.3062 40.8975C11.3301 40.7032 11.1919 40.5264 10.9976 40.503Z" fill="white"/>
<path d="M3.6035 38.5058C3.57664 38.6996 3.71189 38.8788 3.90574 38.9057L11.1059 39.9057C11.1225 39.9076 11.1391 39.9091 11.1553 39.9091C11.3291 39.9091 11.4809 39.7807 11.5058 39.6034C11.5327 39.4096 11.3974 39.2304 11.2036 39.2035L4.0034 38.2035C3.80711 38.1806 3.63035 38.3124 3.6035 38.5058Z" fill="white"/>
<path d="M11.4278 38.0077L6.22808 36.9081C6.03375 36.8637 5.8482 36.9896 5.80816 37.1815C5.76763 37.3729 5.89019 37.5609 6.0816 37.6015L11.2813 38.7011C11.3062 38.7064 11.3306 38.7089 11.355 38.7089C11.5186 38.7089 11.6661 38.5946 11.7012 38.4276C11.7418 38.2362 11.6192 38.0482 11.4278 38.0077Z" fill="white"/>
<path d="M11.998 37.205C12.0463 37.0156 11.9316 36.8227 11.7416 36.7748L7.94135 35.8115C7.75483 35.7607 7.55902 35.8774 7.51117 36.0678C7.46283 36.2573 7.57758 36.4501 7.76752 36.498L11.5678 37.4614C11.5971 37.4692 11.6259 37.4726 11.6552 37.4726C11.8134 37.4726 11.9575 37.3657 11.998 37.205Z" fill="white"/>
<path d="M12.2939 35.8575C12.3506 35.6705 12.2446 35.4727 12.0571 35.4156L4.45703 33.1153C4.26904 33.0587 4.07178 33.1651 4.01513 33.3521C3.95849 33.5391 4.06445 33.7369 4.25195 33.794L11.852 36.0943C11.8862 36.1046 11.9209 36.1095 11.9546 36.1095C12.1069 36.1095 12.2476 36.0108 12.2939 35.8575Z" fill="white"/>
<path d="M12.8589 54.9727C12.7988 54.7872 12.5977 54.6846 12.4126 54.7452L2.42627 57.9893C2.24023 58.0499 2.13818 58.2501 2.19873 58.4356C2.24707 58.585 2.38623 58.6807 2.53564 58.6807C2.57178 58.6807 2.60889 58.6749 2.64502 58.6632L12.6313 55.419C12.8174 55.3585 12.9194 55.1583 12.8589 54.9727Z" fill="white"/>
<path d="M3.46829 56.6953C3.50003 56.6953 3.53226 56.6914 3.56448 56.6816L12.2339 54.2392C12.4224 54.1865 12.5318 53.9902 12.4785 53.8027C12.4258 53.6142 12.231 53.501 12.0415 53.5576L3.3721 56C3.18362 56.0527 3.07425 56.249 3.12747 56.4365C3.17142 56.5928 3.31351 56.6953 3.46829 56.6953Z" fill="white"/>
<path d="M8.2641 53.1172C8.07416 53.165 7.95942 53.3584 8.00776 53.5478C8.04828 53.708 8.19233 53.8154 8.35053 53.8154C8.37934 53.8154 8.40863 53.8115 8.43793 53.8047L11.8056 52.9521C11.9955 52.9043 12.1103 52.7109 12.062 52.5215C12.0141 52.332 11.8237 52.2216 11.6318 52.2646L8.2641 53.1172Z" fill="white"/>
<path d="M11.3749 51.0889L7.32123 51.8809C7.12934 51.918 7.00385 52.1045 7.04145 52.2969C7.07416 52.4659 7.2226 52.5831 7.38862 52.5831C7.41108 52.5831 7.43403 52.5811 7.45697 52.5762L11.5107 51.7842C11.7026 51.7471 11.8281 51.5606 11.7905 51.3682C11.7529 51.1768 11.5659 51.0479 11.3749 51.0889Z" fill="white"/>
<path d="M3.72611 51.4745C3.75638 51.6454 3.9058 51.7665 4.07426 51.7665C4.09476 51.7665 4.11576 51.7646 4.13676 51.7607L11.2935 50.4872C11.4864 50.4531 11.6148 50.2695 11.5801 50.0761C11.5459 49.8847 11.3604 49.7519 11.1695 49.79L4.01273 51.0634C3.81986 51.0976 3.69144 51.2812 3.72611 51.4745Z" fill="white"/>
<path d="M5.80276 49.8486L11.0884 49.2881C11.2827 49.2676 11.4239 49.0928 11.4033 48.8984C11.3824 48.7031 11.2085 48.5693 11.0132 48.583L5.72757 49.1435C5.53323 49.164 5.39212 49.3389 5.41262 49.5332C5.43216 49.7158 5.58596 49.8506 5.76468 49.8506C5.77737 49.8506 5.79007 49.8496 5.80276 49.8486Z" fill="white"/>
<path d="M10.9307 47.3135L7.01858 47.5713C6.82327 47.584 6.67581 47.753 6.68851 47.9483C6.70071 48.1358 6.85647 48.2793 7.04153 48.2793C7.04935 48.2793 7.05716 48.2793 7.06546 48.2784L10.9776 48.0205C11.1729 48.0078 11.3203 47.8389 11.3076 47.6436C11.295 47.4483 11.1338 47.2852 10.9307 47.3135Z" fill="white"/>
<path d="M10.8105 45.9228L2.87153 46.0839C2.67622 46.0878 2.52046 46.2499 2.52436 46.4452C2.52876 46.6386 2.68647 46.7929 2.87886 46.7929C2.8813 46.7929 2.88374 46.7929 2.88618 46.7929L10.8251 46.6318C11.0205 46.6279 11.1762 46.4658 11.1723 46.2704C11.1679 46.0751 11.0009 45.913 10.8105 45.9228Z" fill="white"/>
<path d="M17.6162 64.2744C17.5014 64.1162 17.2798 64.081 17.1211 64.1953L8.62644 70.3671C8.46824 70.4824 8.43308 70.704 8.54832 70.8623C8.61765 70.958 8.72556 71.0087 8.83542 71.0087C8.9072 71.0087 8.98044 70.9863 9.04343 70.9414L17.5381 64.7695C17.6963 64.6542 17.7314 64.4326 17.6162 64.2744Z" fill="white"/>
<path d="M8.81349 68.6749C8.88136 68.7775 8.99367 68.8331 9.10841 68.8331C9.1758 68.8331 9.24415 68.8136 9.3047 68.7735L16.7954 63.7716C16.958 63.6622 17.002 63.4425 16.8931 63.2804C16.7852 63.1173 16.5659 63.0734 16.4019 63.1818L8.91115 68.1837C8.74855 68.2931 8.7046 68.5128 8.81349 68.6749Z" fill="white"/>
<path d="M12.5625 64.4188C12.6299 64.5263 12.7451 64.5849 12.8628 64.5849C12.9272 64.5849 12.9927 64.5673 13.0513 64.5302L15.9902 62.6796C16.1557 62.5751 16.2056 62.3563 16.1011 62.1913C15.9961 62.0243 15.7773 61.9745 15.6123 62.08L12.6733 63.9306C12.5078 64.0351 12.458 64.2538 12.5625 64.4188Z" fill="white"/>
<path d="M15.0054 61.04L11.3945 63.0459C11.2231 63.1406 11.1616 63.3564 11.2568 63.5273C11.3213 63.6445 11.4424 63.71 11.5669 63.71C11.625 63.71 11.6841 63.6953 11.7383 63.665L15.3491 61.6592C15.5205 61.5645 15.582 61.3486 15.4868 61.1777C15.3926 61.0059 15.1758 60.9453 15.0054 61.04Z" fill="white"/>
<path d="M14.8872 60.0137C14.7959 59.8419 14.5811 59.7764 14.4077 59.8682L7.99512 63.2911C7.82275 63.3829 7.75732 63.5977 7.84961 63.7706C7.91309 63.8897 8.03565 63.9581 8.1626 63.9581C8.21875 63.9581 8.27588 63.9444 8.3291 63.9161L14.7417 60.4932C14.9141 60.4014 14.9795 60.1866 14.8872 60.0137Z" fill="white"/>
<path d="M8.85402 61.4032C8.9131 61.5351 9.04249 61.6132 9.17775 61.6132C9.22609 61.6132 9.2754 61.6034 9.32228 61.582L14.1758 59.415C14.3545 59.3359 14.4346 59.1259 14.355 58.9472C14.2749 58.7685 14.0654 58.6864 13.8867 58.7685L9.03322 60.9355C8.85451 61.0146 8.77443 61.2245 8.85402 61.4032Z" fill="white"/>
<path d="M9.90676 59.7237C9.9507 59.7237 9.99514 59.7159 10.0381 59.6983L13.6787 58.2452C13.8604 58.1729 13.9492 57.9669 13.8765 57.7852C13.8042 57.6016 13.5967 57.5128 13.416 57.587L9.77541 59.0401C9.59377 59.1124 9.5049 59.3184 9.57766 59.5001C9.63283 59.6397 9.76613 59.7237 9.90676 59.7237Z" fill="white"/>
<path d="M13.3227 56.5196C13.2587 56.335 13.0576 56.2393 12.872 56.3008L5.37154 58.9073C5.18648 58.9717 5.08882 59.1739 5.15327 59.3584C5.20405 59.5049 5.34126 59.5967 5.48775 59.5967C5.52632 59.5967 5.56538 59.5899 5.60396 59.5772L13.1044 56.9708C13.2895 56.9063 13.3872 56.7042 13.3227 56.5196Z" fill="white"/>
<path d="M25.0161 71.6513C24.8564 71.5371 24.6357 71.5713 24.521 71.7304L18.3491 80.2246C18.2339 80.3828 18.269 80.6045 18.4272 80.7197C18.4902 80.7646 18.563 80.7871 18.6352 80.7871C18.7451 80.7871 18.853 80.7363 18.9223 80.6406L25.0942 72.1465C25.2094 71.9883 25.1743 71.7666 25.0161 71.6513Z" fill="white"/>
<path d="M24.0796 71.4268C24.2007 71.2725 24.1743 71.0499 24.0205 70.9288C23.8686 70.8106 23.645 70.835 23.5229 70.9874L17.9443 78.0596C17.8232 78.2139 17.8496 78.4366 18.0034 78.5577C18.0683 78.6085 18.1455 78.6339 18.2226 78.6339C18.3271 78.6339 18.4311 78.587 18.501 78.4991L24.0796 71.4268Z" fill="white"/>
<path d="M20.481 73.4337C20.5826 73.4337 20.6831 73.3898 20.7535 73.3058L22.9766 70.6368C23.1016 70.4864 23.0811 70.2628 22.9307 70.1378C22.7808 70.0138 22.5572 70.0333 22.4317 70.1837L20.2085 72.8527C20.0835 73.003 20.104 73.2267 20.2544 73.3517C20.3203 73.4064 20.4009 73.4337 20.481 73.4337Z" fill="white"/>
<path d="M22.0332 69.3644C21.8912 69.2316 21.667 69.2394 21.5328 69.3829L18.7183 72.4064C18.585 72.5489 18.5928 72.7736 18.7364 72.9073C18.8042 72.9708 18.8912 73.0021 18.9776 73.0021C19.0723 73.0021 19.167 72.964 19.2369 72.8888L22.0513 69.8653C22.1846 69.7228 22.1768 69.4982 22.0332 69.3644Z" fill="white"/>
<path d="M21.1035 68.4434C20.9619 68.3067 20.7388 68.3116 20.6025 68.4522L15.5615 73.6895C15.4258 73.8311 15.4302 74.0548 15.5713 74.1905C15.6401 74.2569 15.7285 74.2901 15.8169 74.2901C15.9097 74.2901 16.0024 74.254 16.0723 74.1817L21.1133 68.9444C21.249 68.8028 21.2446 68.5792 21.1035 68.4434Z" fill="white"/>
<path d="M15.7949 71.629C15.8652 71.7062 15.9614 71.7462 16.0581 71.7462C16.1426 71.7462 16.2275 71.7159 16.2954 71.6544L20.2417 68.0939C20.3872 67.963 20.3984 67.7394 20.2676 67.5939C20.1357 67.4493 19.9126 67.4366 19.7671 67.5685L15.8208 71.129C15.6753 71.2599 15.664 71.4835 15.7949 71.629Z" fill="white"/>
<path d="M16.1675 69.7237C16.2476 69.7237 16.3282 69.6964 16.3941 69.6417L19.4073 67.1339C19.5577 67.0089 19.5782 66.7853 19.4532 66.6349C19.3277 66.4845 19.104 66.465 18.9541 66.589L15.941 69.0968C15.7906 69.2218 15.7701 69.4454 15.8951 69.5958C15.9654 69.6798 16.066 69.7237 16.1675 69.7237Z" fill="white"/>
<path d="M18.5361 65.6034C18.4194 65.4481 18.1968 65.4159 18.0401 65.5351L11.7119 70.3319C11.5557 70.4501 11.5254 70.6718 11.6436 70.828C11.7129 70.9198 11.8189 70.9686 11.9263 70.9686C12.0005 70.9686 12.0757 70.9452 12.1397 70.8964L18.4678 66.0995C18.624 65.9813 18.6543 65.7597 18.5361 65.6034Z" fill="white"/>
<path d="M34.3325 76.3819C34.146 76.3233 33.9473 76.4239 33.8862 76.6094L30.6411 86.5948C30.5806 86.7803 30.6826 86.9805 30.8687 87.0411C30.9048 87.0528 30.9419 87.0587 30.978 87.0587C31.1274 87.0587 31.2661 86.963 31.3149 86.8135L34.5601 76.8282C34.6206 76.6426 34.5186 76.4425 34.3325 76.3819Z" fill="white"/>
<path d="M33.1627 76.0019C32.9796 75.9306 32.7754 76.0283 32.7076 76.2109L29.5875 84.6601C29.5196 84.8437 29.6138 85.0478 29.7974 85.1152C29.8379 85.1308 29.879 85.1377 29.92 85.1377C30.064 85.1377 30.1998 85.0488 30.2525 84.9062L33.3726 76.457C33.4405 76.2734 33.3463 76.0693 33.1627 76.0019Z" fill="white"/>
<path d="M31.4209 75.7832L30.1313 79.0088C30.0586 79.1904 30.1469 79.3974 30.3291 79.4697C30.372 79.4873 30.4165 79.4951 30.4604 79.4951C30.601 79.4951 30.7338 79.4111 30.7895 79.2724L32.0791 76.0468C32.1518 75.8652 32.0634 75.6582 31.8813 75.5859C31.7011 75.5117 31.4941 75.6015 31.4209 75.7832Z" fill="white"/>
<path d="M30.789 75.1279C30.6123 75.0459 30.4013 75.1221 30.3183 75.2998L28.5761 79.044C28.4936 79.2217 28.5703 79.4316 28.748 79.5147C28.7964 79.5371 28.8471 79.5479 28.8974 79.5479C29.0307 79.5479 29.1587 79.4717 29.2187 79.3428L30.9609 75.5986C31.0434 75.4209 30.9668 75.2109 30.789 75.1279Z" fill="white"/>
<path d="M29.6202 74.5391C29.4434 74.4512 29.232 74.5264 29.1465 74.7021L25.9703 81.2402C25.8848 81.417 25.958 81.6289 26.1343 81.7139C26.1841 81.7383 26.2369 81.75 26.2886 81.75C26.4204 81.75 26.5464 81.6767 26.6079 81.5508L29.7842 75.0127C29.8697 74.8359 29.7964 74.624 29.6202 74.5391Z" fill="white"/>
<path d="M28.6929 74.4726C28.7906 74.3027 28.732 74.0869 28.5625 73.9892C28.3941 73.8925 28.1768 73.9492 28.0786 74.1191L25.4258 78.7246C25.3281 78.8945 25.3867 79.1103 25.5562 79.208C25.6118 79.2402 25.6724 79.2558 25.7324 79.2558C25.855 79.2558 25.9746 79.1923 26.0401 79.0781L28.6929 74.4726Z" fill="white"/>
<path d="M27.6025 73.8183C27.707 73.6523 27.6572 73.4335 27.4917 73.329C27.3262 73.2236 27.1069 73.2734 27.0029 73.4394L24.9121 76.7548C24.8076 76.9208 24.8574 77.1396 25.0229 77.2441C25.0815 77.2812 25.147 77.2988 25.2114 77.2988C25.3291 77.2988 25.4443 77.2402 25.5117 77.1337L27.6025 73.8183Z" fill="white"/>
<path d="M26.3012 72.631C26.1401 72.5196 25.9194 72.5587 25.8076 72.7198L21.2714 79.2374C21.1596 79.3976 21.1997 79.6183 21.3598 79.7306C21.4218 79.7735 21.4921 79.794 21.562 79.794C21.6743 79.794 21.7846 79.7413 21.8535 79.6417L26.3896 73.1241C26.5014 72.964 26.4614 72.7433 26.3012 72.631Z" fill="white"/>
<path d="M44.6548 78C44.459 78 44.3003 78.1592 44.3003 78.3545V88.8545C44.3003 89.0498 44.459 89.209 44.6548 89.209C44.8506 89.209 45.0093 89.0498 45.0093 88.8545V78.3545C45.0093 78.1592 44.8506 78 44.6548 78Z" fill="white"/>
<path d="M43.4248 78C43.2305 78.0068 43.0645 78.1445 43.0567 78.3408L42.7007 87.3408C42.6929 87.5361 42.8453 87.7012 43.0406 87.709C43.0455 87.709 43.0503 87.709 43.0552 87.709C43.2442 87.709 43.4014 87.5596 43.4087 87.3682L43.7647 78.3682C43.7725 78.1729 43.6202 78.0078 43.4248 78Z" fill="white"/>
<path d="M42.0781 78.0009C41.8877 77.9785 41.7138 78.1357 41.7011 78.331L41.4712 81.7968C41.458 81.9921 41.6059 82.1611 41.8012 82.1738C41.809 82.1747 41.8173 82.1747 41.8252 82.1747C42.0102 82.1747 42.166 82.0312 42.1782 81.8437L42.4082 78.3779C42.4213 78.1826 42.2734 78.0136 42.0781 78.0009Z" fill="white"/>
<path d="M40.8975 77.9033C40.7036 77.877 40.5269 78.0176 40.5029 78.2119L40.0029 82.3115C39.979 82.5059 40.1172 82.6826 40.3115 82.7061C40.3262 82.708 40.3408 82.709 40.355 82.709C40.5313 82.709 40.6841 82.5772 40.7061 82.3975L41.2061 78.2979C41.23 78.1035 41.0918 77.9268 40.8975 77.9033Z" fill="white"/>
<path d="M39.6035 77.7041C39.4067 77.6709 39.2304 77.8125 39.2036 78.0058L38.2036 85.206C38.1767 85.4003 38.312 85.5791 38.5058 85.6054C38.5224 85.6084 38.539 85.6093 38.5552 85.6093C38.729 85.6093 38.8808 85.4804 38.9057 85.3037L39.9057 78.1035C39.9326 77.9091 39.7973 77.7304 39.6035 77.7041Z" fill="white"/>
<path d="M38.4278 77.5078C38.2325 77.4697 38.0479 77.5889 38.0079 77.7812L36.9083 82.9814C36.8677 83.1728 36.9903 83.3613 37.1817 83.4014C37.2066 83.4062 37.231 83.4092 37.2554 83.4092C37.419 83.4092 37.5665 83.2949 37.6016 83.1279L38.7012 77.9277C38.7418 77.7363 38.6192 77.5478 38.4278 77.5078Z" fill="white"/>
<path d="M37.205 77.211C37.017 77.167 36.8232 77.2784 36.7748 77.4678L35.8115 81.2676C35.7631 81.4571 35.8779 81.6495 36.0678 81.6983C36.0971 81.7051 36.1259 81.709 36.1552 81.709C36.3134 81.709 36.4575 81.6016 36.498 81.4414L37.4614 77.6416C37.5097 77.4522 37.395 77.2598 37.205 77.211Z" fill="white"/>
<path d="M35.8574 76.9161C35.6685 76.8575 35.4727 76.9659 35.4155 77.1524L33.1152 84.752C33.0586 84.9395 33.1645 85.1368 33.352 85.1934C33.3862 85.2042 33.4209 85.2091 33.4546 85.2091C33.6069 85.2091 33.7476 85.1104 33.7939 84.9571L36.0942 77.3575C36.1509 77.17 36.0449 76.9727 35.8574 76.9161Z" fill="white"/>
<path d="M55.419 76.5782C55.3584 76.3927 55.1582 76.2901 54.9727 76.3507C54.7862 76.4112 54.6846 76.6114 54.7452 76.797L57.9893 86.7833C58.0381 86.9327 58.1768 87.0284 58.3262 87.0284C58.3623 87.0284 58.3995 87.0225 58.4356 87.0108C58.6221 86.9503 58.7237 86.7501 58.6631 86.5645L55.419 76.5782Z" fill="white"/>
<path d="M54.2393 76.9766C54.1866 76.7891 53.9903 76.6738 53.8028 76.7315C53.6143 76.7842 53.5039 76.9805 53.5577 77.168L56 85.8369C56.044 85.9932 56.1856 86.0957 56.3409 86.0957C56.3721 86.0957 56.4053 86.0918 56.4366 86.082C56.625 86.0293 56.7354 85.833 56.6817 85.6455L54.2393 76.9766Z" fill="white"/>
<path d="M52.9521 77.4044C52.9043 77.215 52.7129 77.1026 52.5214 77.1476C52.332 77.1954 52.2168 77.3888 52.2646 77.5782L53.1172 80.9454C53.1582 81.1056 53.3027 81.213 53.4609 81.213C53.4892 81.213 53.5185 81.2091 53.5478 81.2023C53.7373 81.1544 53.8525 80.961 53.8047 80.7716L52.9521 77.4044Z" fill="white"/>
<path d="M51.3681 77.419C51.1767 77.4562 51.0507 77.6427 51.0888 77.8351L51.8808 81.8888C51.914 82.0577 52.0625 82.1749 52.2285 82.1749C52.2509 82.1749 52.2734 82.1729 52.2968 82.1681C52.4882 82.131 52.6142 81.9444 52.5761 81.752L51.7841 77.6983C51.7461 77.5069 51.5634 77.377 51.3681 77.419Z" fill="white"/>
<path d="M50.0762 77.6298C49.8838 77.664 49.7559 77.8476 49.7901 78.041L51.0635 85.1972C51.0938 85.3681 51.2432 85.4892 51.4121 85.4892C51.4326 85.4892 51.4532 85.4873 51.4746 85.4834C51.667 85.4492 51.795 85.2656 51.7608 85.0722L50.4873 77.916C50.4532 77.7236 50.2715 77.5927 50.0762 77.6298Z" fill="white"/>
<path d="M48.8985 77.8056C48.7032 77.8261 48.5625 78.0009 48.583 78.1953L49.1436 83.4814C49.1631 83.664 49.3164 83.7988 49.4961 83.7988C49.5078 83.7988 49.5205 83.7978 49.5332 83.7968C49.7285 83.7763 49.8692 83.6015 49.8487 83.4072L49.2881 78.121C49.2666 77.9257 49.0996 77.7871 48.8985 77.8056Z" fill="white"/>
<path d="M47.6436 77.9024C47.4483 77.9151 47.3008 78.084 47.3135 78.2793L47.5713 82.1905C47.584 82.378 47.7393 82.5215 47.9248 82.5215C47.9326 82.5215 47.9405 82.5215 47.9483 82.5205C48.1436 82.5079 48.291 82.3389 48.2783 82.1436L48.0205 78.2325C48.0069 78.0371 47.835 77.878 47.6436 77.9024Z" fill="white"/>
<path d="M46.2705 78.0371C46.0742 78.041 45.9189 78.2031 45.9228 78.3984L46.0839 86.3369C46.0878 86.5303 46.246 86.6846 46.4384 86.6846H46.4453C46.6416 86.6807 46.7968 86.5186 46.7929 86.3232L46.6318 78.3848C46.6279 78.1895 46.4667 78.0459 46.2705 78.0371Z" fill="white"/>
<path d="M64.7695 71.672C64.6542 71.5128 64.4316 71.4806 64.2744 71.5929C64.1162 71.7081 64.081 71.9298 64.1953 72.088L70.3671 80.5821C70.4365 80.6778 70.5449 80.7286 70.6542 80.7286C70.7265 80.7286 70.7998 80.7062 70.8623 80.6612C71.0205 80.546 71.0556 80.3243 70.9414 80.1661L64.7695 71.672Z" fill="white"/>
<path d="M63.7715 72.414C63.6621 72.2499 63.4385 72.2079 63.2803 72.3154C63.1172 72.4247 63.0732 72.6445 63.1816 72.8066L68.1836 80.2978C68.2519 80.4003 68.3642 80.456 68.4785 80.456C68.5469 80.456 68.6152 80.4365 68.6748 80.3964C68.8379 80.287 68.8818 80.0673 68.7734 79.9052L63.7715 72.414Z" fill="white"/>
<path d="M62.6797 73.2197C62.5761 73.0537 62.3574 73.0049 62.1914 73.1084C62.0254 73.2129 61.9756 73.4317 62.08 73.5967L63.9306 76.5352C63.998 76.6426 64.1132 76.7012 64.2304 76.7012C64.2949 76.7012 64.3603 76.6836 64.4189 76.6465C64.5849 76.542 64.6347 76.3233 64.5302 76.1582L62.6797 73.2197Z" fill="white"/>
<path d="M61.1778 73.7227C61.0069 73.8174 60.9454 74.0332 61.0401 74.2041L63.0459 77.8154C63.1104 77.9326 63.2315 77.9981 63.3555 77.9981C63.4141 77.9981 63.4727 77.9834 63.5274 77.9531C63.6983 77.8584 63.7598 77.6426 63.6651 77.4717L61.6592 73.8604C61.5645 73.6875 61.3477 73.6289 61.1778 73.7227Z" fill="white"/>
<path d="M60.4932 74.4677C60.4004 74.2949 60.1855 74.2294 60.0137 74.3222C59.8408 74.414 59.7764 74.6289 59.8682 74.8017L63.291 81.2138C63.3545 81.333 63.4775 81.4013 63.6035 81.4013C63.6602 81.4013 63.7168 81.3876 63.7705 81.3593C63.9434 81.2675 64.0078 81.0527 63.916 80.8798L60.4932 74.4677Z" fill="white"/>
<path d="M59.4151 75.0333C59.336 74.8546 59.1241 74.7745 58.9473 74.8546C58.7686 74.9337 58.6885 75.1436 58.7686 75.3223L60.9356 80.1758C60.9942 80.3077 61.1231 80.3858 61.2589 80.3858C61.3077 80.3858 61.3565 80.376 61.4034 80.3546C61.5821 80.2755 61.6622 80.0655 61.5821 79.8868L59.4151 75.0333Z" fill="white"/>
<path d="M58.2451 75.5312C58.1719 75.3477 57.9658 75.2578 57.7852 75.333C57.6025 75.4053 57.5146 75.6113 57.5869 75.7939L59.04 79.4336C59.0957 79.5732 59.2285 79.6572 59.3691 79.6572C59.4131 79.6572 59.457 79.6494 59.5 79.6318C59.6826 79.5596 59.7705 79.3535 59.6982 79.1709L58.2451 75.5312Z" fill="white"/>
<path d="M56.9707 76.1044C56.9062 75.9199 56.7041 75.8232 56.5195 75.8857C56.3349 75.9501 56.2363 76.1523 56.3008 76.3369L58.9072 83.8378C58.958 83.9843 59.0957 84.0761 59.2422 84.0761C59.2802 84.0761 59.3203 84.0693 59.3584 84.0566C59.5429 83.9921 59.6416 83.79 59.5771 83.6054L56.9707 76.1044Z" fill="white"/>
<path d="M72.1464 64.1153C71.9892 64.002 71.7656 64.0352 71.6513 64.1944C71.5371 64.3526 71.5722 64.5743 71.7304 64.6895L80.2246 70.8614C80.2871 70.9063 80.3603 70.9288 80.4326 70.9288C80.5419 70.9288 80.6503 70.878 80.7197 70.7823C80.8339 70.6241 80.7988 70.4024 80.6406 70.2872L72.1464 64.1153Z" fill="white"/>
<path d="M71.4268 65.1299C71.2735 65.0107 71.0518 65.0361 70.9287 65.1885C70.8076 65.3428 70.834 65.5654 70.9873 65.6865L78.0596 71.2646C78.125 71.3154 78.2022 71.3408 78.2793 71.3408C78.3838 71.3408 78.4873 71.2939 78.5576 71.206C78.6787 71.0517 78.6524 70.8291 78.499 70.708L71.4268 65.1299Z" fill="white"/>
<path d="M73.3516 68.9551C73.4766 68.8047 73.4561 68.5811 73.3057 68.4561L70.6368 66.2334C70.4864 66.1084 70.2637 66.1289 70.1377 66.2793C70.0127 66.4297 70.0332 66.6534 70.1836 66.7784L72.8526 69.001C72.919 69.0557 72.9991 69.083 73.0791 69.083C73.1807 69.083 73.2813 69.0391 73.3516 68.9551Z" fill="white"/>
<path d="M69.3642 67.1758C69.2314 67.3183 69.2392 67.5429 69.3828 67.6767L72.4062 70.4912C72.4746 70.5547 72.5605 70.5859 72.6475 70.5859C72.7422 70.5859 72.8369 70.5478 72.9072 70.4726C73.04 70.3301 73.0322 70.1054 72.8887 69.9717L69.8652 67.1572C69.7226 67.0254 69.499 67.0322 69.3642 67.1758Z" fill="white"/>
<path d="M68.9444 68.0967C68.8028 67.961 68.5792 67.9639 68.4434 68.1055C68.3077 68.2471 68.3116 68.4707 68.4522 68.6065L73.6895 73.6475C73.7588 73.7139 73.8467 73.7471 73.9356 73.7471C74.0284 73.7471 74.1211 73.711 74.1905 73.6387C74.3262 73.4971 74.3223 73.2735 74.1817 73.1377L68.9444 68.0967Z" fill="white"/>
<path d="M68.0937 68.9678C67.9638 68.8222 67.7373 68.8105 67.5937 68.9424C67.4482 69.0732 67.4365 69.2969 67.5683 69.4424L71.1289 73.3886C71.1982 73.4658 71.2949 73.5058 71.3916 73.5058C71.4765 73.5058 71.5615 73.4756 71.6289 73.414C71.7744 73.2832 71.7861 73.0595 71.6543 72.914L68.0937 68.9678Z" fill="white"/>
<path d="M67.1338 69.8019C67.0088 69.6515 66.7852 69.632 66.6348 69.756C66.4844 69.881 66.4639 70.1046 66.5889 70.255L69.0967 73.2687C69.167 73.3527 69.2676 73.3966 69.3692 73.3966C69.4493 73.3966 69.5293 73.3693 69.5957 73.3146C69.7461 73.1896 69.7666 72.9659 69.6416 72.8155L67.1338 69.8019Z" fill="white"/>
<path d="M65.6035 70.6739C65.4473 70.7921 65.417 71.0147 65.5352 71.17L70.332 77.4972C70.4014 77.5889 70.5078 77.6378 70.6143 77.6378C70.6895 77.6378 70.7647 77.6143 70.8281 77.5655C70.9844 77.4473 71.0147 77.2247 70.8965 77.0694L66.0996 70.7423C65.9815 70.586 65.7578 70.5567 65.6035 70.6739Z" fill="white"/>
<path d="M86.8135 57.8946L76.8282 54.6495C76.6436 54.5889 76.4424 54.6915 76.3819 54.877C76.3213 55.0626 76.4229 55.2628 76.6094 55.3233L86.5948 58.5684C86.6309 58.5802 86.668 58.586 86.7041 58.586C86.8536 58.586 86.9922 58.4903 87.0411 58.3409C87.1016 58.1553 87 57.9552 86.8135 57.8946Z" fill="white"/>
<path d="M84.9063 58.957L76.457 55.8379C76.2725 55.7666 76.0693 55.8642 76.002 56.0469C75.9336 56.2305 76.0274 56.4346 76.2109 56.5019L84.6602 59.6211C84.7012 59.6367 84.7422 59.6435 84.7832 59.6435C84.9277 59.6435 85.0625 59.5547 85.1152 59.4121C85.1836 59.2285 85.0899 59.0244 84.9063 58.957Z" fill="white"/>
<path d="M79.2725 58.4199L76.0469 57.1299C75.8672 57.0547 75.6592 57.1445 75.5859 57.3272C75.5137 57.5088 75.6016 57.7149 75.7832 57.7881L79.0088 59.0781C79.0518 59.0957 79.0967 59.1035 79.1406 59.1035C79.2813 59.1035 79.4141 59.0195 79.4697 58.8809C79.542 58.6992 79.4541 58.4932 79.2725 58.4199Z" fill="white"/>
<path d="M79.3427 59.9913L75.5986 58.2481C75.4267 58.1671 75.2119 58.2423 75.1279 58.42C75.0449 58.5977 75.122 58.8077 75.2997 58.8907L79.0439 60.6339C79.0917 60.6563 79.1425 60.6671 79.1933 60.6671C79.3261 60.6671 79.454 60.5909 79.5146 60.462C79.5976 60.2843 79.5204 60.0743 79.3427 59.9913Z" fill="white"/>
<path d="M81.5508 62.6016L75.0127 59.4258C74.834 59.3389 74.623 59.4131 74.5391 59.5889C74.4531 59.7657 74.5264 59.9776 74.7021 60.0625L81.2402 63.2383C81.291 63.2627 81.3437 63.2745 81.3955 63.2745C81.5264 63.2745 81.6533 63.2012 81.7139 63.0752C81.7998 62.8985 81.7266 62.6866 81.5508 62.6016Z" fill="white"/>
<path d="M79.0781 63.17L74.4727 60.5166C74.3047 60.418 74.0869 60.4756 73.9893 60.6465C73.8916 60.8165 73.9492 61.0323 74.1192 61.1299L78.7246 63.7833C78.7803 63.8155 78.8408 63.8311 78.9014 63.8311C79.0234 63.8311 79.1426 63.7676 79.208 63.6534C79.3057 63.4834 79.2481 63.2676 79.0781 63.17Z" fill="white"/>
<path d="M76.7558 64.2969C76.8144 64.334 76.8798 64.3516 76.9443 64.3516C77.0615 64.3516 77.1767 64.293 77.2441 64.1856C77.3486 64.0205 77.2988 63.8018 77.1328 63.6973L73.8173 61.6074C73.6533 61.5039 73.4336 61.5528 73.3291 61.7188C73.2246 61.8838 73.2744 62.1026 73.4404 62.2071L76.7558 64.2969Z" fill="white"/>
<path d="M72.6308 62.9091C72.5195 63.0693 72.5586 63.29 72.7197 63.4023L79.2373 67.9374C79.2988 67.9804 79.3691 68.0009 79.4394 68.0009C79.5508 68.0009 79.6611 67.9482 79.7304 67.8486C79.8418 67.6884 79.8027 67.4677 79.6416 67.3554L73.124 62.8202C72.9648 62.7099 72.7431 62.747 72.6308 62.9091Z" fill="white"/>
<path d="M88.8545 44.2002H78.3545C78.1592 44.2002 78 44.3589 78 44.5547C78 44.7505 78.1592 44.9092 78.3545 44.9092H88.8545C89.0498 44.9092 89.209 44.7505 89.209 44.5547C89.209 44.3589 89.0498 44.2002 88.8545 44.2002Z" fill="white"/>
<path d="M87.3681 45.7999L78.3681 45.4449C78.1601 45.4337 78.0078 45.589 78 45.7852C77.9931 45.9806 78.1445 46.1456 78.3408 46.1534L87.3408 46.5089C87.3457 46.5089 87.3496 46.5089 87.3545 46.5089C87.5439 46.5089 87.7012 46.3595 87.709 46.1681C87.7158 45.9727 87.5644 45.8077 87.3681 45.7999Z" fill="white"/>
<path d="M78.3311 47.5078L81.7969 47.7383C81.8047 47.7392 81.8125 47.7392 81.8203 47.7392C82.0059 47.7392 82.1612 47.5957 82.1739 47.4082C82.1866 47.2129 82.0391 47.0439 81.8438 47.0312L78.378 46.8008C78.1807 46.7715 78.0137 46.9355 78.001 47.1308C77.9883 47.3262 78.1358 47.4951 78.3311 47.5078Z" fill="white"/>
<path d="M78.2119 48.706L82.3116 49.206C82.3262 49.2079 82.3409 49.2089 82.3545 49.2089C82.5313 49.2089 82.6846 49.0771 82.7061 48.8974C82.7295 48.7031 82.5918 48.5263 82.3975 48.5029L78.2979 48.0029C78.0899 47.9745 77.9268 48.1171 77.9034 48.3115C77.8799 48.5058 78.0176 48.6825 78.2119 48.706Z" fill="white"/>
<path d="M85.6054 50.703C85.6328 50.5087 85.497 50.33 85.3037 50.3036L78.1035 49.3036C77.9033 49.2675 77.7304 49.413 77.7041 49.6054C77.6767 49.7997 77.8125 49.9784 78.0058 50.0048L85.206 51.0048C85.2226 51.0077 85.2392 51.0087 85.2548 51.0087C85.4297 51.0087 85.581 50.8798 85.6054 50.703Z" fill="white"/>
<path d="M83.0547 52.3095C83.2188 52.3095 83.3662 52.1952 83.4014 52.0282C83.4414 51.8368 83.3194 51.6493 83.128 51.6083L77.9278 50.5077C77.7403 50.4706 77.5479 50.5898 77.5078 50.7812C77.4678 50.9726 77.5899 51.1601 77.7813 51.2011L82.9815 52.3017C83.0059 52.3066 83.0303 52.3095 83.0547 52.3095Z" fill="white"/>
<path d="M77.6416 51.747C77.4511 51.7041 77.2597 51.8144 77.2109 52.0039C77.1631 52.1933 77.2783 52.3857 77.4677 52.4345L81.2675 53.3984C81.2968 53.4052 81.3261 53.4091 81.3545 53.4091C81.5127 53.4091 81.6572 53.3027 81.6982 53.1416C81.7461 52.9521 81.6308 52.7597 81.4414 52.7109L77.6416 51.747Z" fill="white"/>
<path d="M77.1524 53.7939L84.752 56.0937C84.7862 56.1045 84.8204 56.1094 84.8545 56.1094C85.0069 56.1094 85.1475 56.0107 85.1934 55.8574C85.25 55.6699 85.1446 55.4726 84.9571 55.416L77.3575 53.1162C77.17 53.0576 76.9717 53.164 76.9161 53.3525C76.8594 53.54 76.9649 53.7373 77.1524 53.7939Z" fill="white"/>
<path d="M76.3506 34.2374C76.3995 34.3873 76.5381 34.4825 76.6875 34.4825C76.7237 34.4825 76.7608 34.4766 76.7969 34.4649L86.7832 31.2203C86.9698 31.1597 87.0713 30.96 87.0108 30.774C86.9502 30.588 86.751 30.4854 86.5645 30.5464L76.5782 33.7911C76.3916 33.8516 76.2901 34.0513 76.3506 34.2374Z" fill="white"/>
<path d="M86.0821 32.772C86.0293 32.5845 85.834 32.4732 85.6455 32.5274L76.9766 34.9703C76.7881 35.023 76.6778 35.2188 76.7315 35.4073C76.7754 35.5635 76.917 35.6656 77.0723 35.6656C77.1036 35.6656 77.1368 35.6612 77.168 35.6519L85.837 33.209C86.0254 33.1563 86.1358 32.9605 86.0821 32.772Z" fill="white"/>
<path d="M80.9453 36.0914C81.1347 36.0435 81.25 35.8507 81.2021 35.6612C81.1533 35.4723 80.9648 35.3541 80.7714 35.4049L77.4043 36.2574C77.2148 36.3053 77.0996 36.4981 77.1474 36.6876C77.1884 36.8482 77.333 36.9552 77.4912 36.9552C77.5195 36.9552 77.5488 36.9517 77.5781 36.9439L80.9453 36.0914Z" fill="white"/>
<path d="M77.7666 38.1275C77.789 38.1275 77.8115 38.1251 77.8349 38.1207L81.8886 37.3292C82.08 37.2916 82.206 37.1055 82.1679 36.9136C82.1298 36.7217 81.9453 36.5963 81.7519 36.6339L77.6982 37.4254C77.5068 37.463 77.3808 37.649 77.4189 37.8409C77.4521 38.0098 77.6005 38.1275 77.7666 38.1275Z" fill="white"/>
<path d="M85.4834 37.7348C85.4493 37.5419 85.2705 37.4111 85.0723 37.4482L77.916 38.7221C77.7237 38.7563 77.5957 38.9404 77.6299 39.1328C77.6602 39.3046 77.8096 39.4252 77.9785 39.4252C77.9991 39.4252 78.0196 39.4233 78.041 39.4194L85.1973 38.1455C85.3897 38.1113 85.5176 37.9272 85.4834 37.7348Z" fill="white"/>
<path d="M78.1211 39.9213C77.9258 39.9423 77.7852 40.1167 77.8057 40.3115C77.8252 40.4931 77.9785 40.6284 78.1582 40.6284C78.17 40.6284 78.1826 40.6274 78.1953 40.6264L83.4815 40.0659C83.6768 40.0449 83.8174 39.8706 83.7969 39.6757C83.7754 39.4824 83.6084 39.3378 83.4073 39.3608L78.1211 39.9213Z" fill="white"/>
<path d="M78.2559 41.8969C78.2637 41.8969 78.2715 41.8964 78.2793 41.8959L82.1905 41.6381C82.3858 41.6254 82.5332 41.4565 82.5205 41.2612C82.5069 41.0663 82.3379 40.9101 82.1436 40.9311L78.2325 41.1889C78.0371 41.2016 77.8897 41.3705 77.9024 41.5659C77.9151 41.7529 78.0703 41.8969 78.2559 41.8969Z" fill="white"/>
<path d="M78.3916 43.2867H78.3984L86.3369 43.1256C86.5332 43.1212 86.6884 42.9595 86.6845 42.7637C86.6806 42.5689 86.5 42.3853 86.3232 42.4166L78.3847 42.5777C78.1884 42.5821 78.0332 42.7437 78.0371 42.9395C78.041 43.1324 78.1992 43.2867 78.3916 43.2867Z" fill="white"/>
<path d="M71.5927 24.9351C71.6621 25.0304 71.7705 25.0811 71.8798 25.0811C71.9521 25.0811 72.0253 25.0592 72.0878 25.0133L80.582 18.8414C80.7402 18.7262 80.7753 18.505 80.6611 18.3463C80.5468 18.1886 80.3232 18.1529 80.166 18.2681L71.6718 24.44C71.5136 24.5553 71.4785 24.7764 71.5927 24.9351Z" fill="white"/>
<path d="M80.3965 20.5341C80.2871 20.3705 80.0635 20.3281 79.9053 20.436L72.4141 25.4384C72.251 25.5468 72.207 25.767 72.3154 25.9296C72.3838 26.0317 72.4961 26.0873 72.6103 26.0873C72.6787 26.0873 72.7471 26.0678 72.8066 26.0278L80.2978 21.0253C80.4609 20.9169 80.5049 20.6967 80.3965 20.5341Z" fill="white"/>
<path d="M76.6464 24.7894C76.5429 24.6234 76.3242 24.5746 76.1582 24.6786L73.2197 26.5302C73.0537 26.6347 73.0039 26.8534 73.1084 27.0189C73.1757 27.1259 73.291 27.1845 73.4082 27.1845C73.4726 27.1845 73.5381 27.1669 73.5966 27.1298L76.5351 25.2782C76.7011 25.1737 76.7509 24.955 76.6464 24.7894Z" fill="white"/>
<path d="M74.0323 28.2138C74.0909 28.2138 74.1495 28.1991 74.2041 28.1688L77.8155 26.1635C77.9864 26.0687 78.0479 25.8529 77.9532 25.682C77.8575 25.5097 77.6416 25.4501 77.4717 25.5443L73.8604 27.5497C73.6895 27.6444 73.628 27.8602 73.7227 28.0311C73.7872 28.1478 73.9082 28.2138 74.0323 28.2138Z" fill="white"/>
<path d="M74.3223 29.1959C74.3857 29.315 74.5088 29.3834 74.6348 29.3834C74.6914 29.3834 74.748 29.3697 74.8018 29.3414L81.2139 25.9186C81.3867 25.8263 81.4512 25.6119 81.3594 25.4391C81.2666 25.2657 81.0527 25.2018 80.8799 25.2936L74.4678 28.7164C74.2949 28.8087 74.2305 29.023 74.3223 29.1959Z" fill="white"/>
<path d="M80.3546 27.806C80.2745 27.6268 80.0635 27.5477 79.8868 27.6268L75.0333 29.7933C74.8546 29.8734 74.7745 30.0829 74.8546 30.2616C74.9131 30.3934 75.0421 30.4716 75.1778 30.4716C75.2266 30.4716 75.2755 30.4618 75.3223 30.4408L80.1758 28.2743C80.3546 28.1942 80.4346 27.9847 80.3546 27.806Z" fill="white"/>
<path d="M79.1709 29.5107L75.5303 30.9648C75.3486 31.0375 75.2608 31.2436 75.333 31.4252C75.3887 31.5639 75.5215 31.6484 75.6621 31.6484C75.7061 31.6484 75.75 31.6401 75.794 31.623L79.4346 30.1689C79.6162 30.0961 79.7041 29.8901 79.6318 29.7084C79.5586 29.5263 79.3555 29.4389 79.1709 29.5107Z" fill="white"/>
<path d="M75.8857 32.6895C75.9365 32.8359 76.0742 32.9277 76.2207 32.9277C76.2588 32.9277 76.2988 32.9214 76.3369 32.9077L83.8379 30.3013C84.0224 30.2373 84.1211 30.0352 84.0566 29.8506C83.9931 29.6655 83.7881 29.5649 83.6054 29.6323L76.1045 32.2388C75.9199 32.3027 75.8213 32.5049 75.8857 32.6895Z" fill="white"/>
<path d="M64.1943 17.5577C64.2568 17.6036 64.33 17.6256 64.4023 17.6256C64.5117 17.6256 64.6201 17.5748 64.6894 17.4796L70.8613 8.98495C70.9755 8.82625 70.9404 8.60506 70.7822 8.48983C70.624 8.37411 70.4023 8.40926 70.2871 8.56795L64.1152 17.0626C64.0009 17.2213 64.0361 17.443 64.1943 17.5577Z" fill="white"/>
<path d="M65.1299 17.7828C65.0088 17.9361 65.0352 18.1593 65.1885 18.2804C65.2539 18.3316 65.3311 18.3565 65.4082 18.3565C65.5127 18.3565 65.6162 18.3101 65.6865 18.2213L71.2647 11.1495C71.3858 10.9962 71.3594 10.773 71.2061 10.6519C71.0527 10.5318 70.8311 10.5567 70.708 10.711L65.1299 17.7828Z" fill="white"/>
<path d="M68.4561 15.9039L66.2334 18.5728C66.1084 18.7232 66.1289 18.9464 66.2793 19.0718C66.3457 19.127 66.4258 19.1539 66.5059 19.1539C66.6075 19.1539 66.708 19.1104 66.7784 19.0259L69.001 16.357C69.126 16.2066 69.1055 15.9835 68.9551 15.858C68.8047 15.7325 68.5821 15.7525 68.4561 15.9039Z" fill="white"/>
<path d="M67.1758 19.8447C67.2441 19.9082 67.3301 19.9399 67.417 19.9399C67.5117 19.9399 67.6064 19.9018 67.6767 19.8266L70.4912 16.8037C70.624 16.6606 70.6162 16.4365 70.4726 16.3032C70.331 16.1713 70.1074 16.1777 69.9717 16.3212L67.1572 19.3442C67.0244 19.4873 67.0322 19.7114 67.1758 19.8447Z" fill="white"/>
<path d="M68.1055 20.7667C68.1749 20.8326 68.2627 20.8658 68.3516 20.8658C68.4444 20.8658 68.5372 20.8292 68.6065 20.7569L73.6475 15.5201C73.7833 15.3795 73.7794 15.1548 73.6387 15.0191C73.4971 14.8843 73.2735 14.8882 73.1378 15.0289L68.0967 20.2657C67.961 20.4063 67.9649 20.6309 68.1055 20.7667Z" fill="white"/>
<path d="M73.414 17.581C73.2832 17.4345 73.0576 17.4237 72.914 17.5551L68.9678 21.1151C68.8222 21.2465 68.8105 21.4706 68.9424 21.6156C69.0117 21.6933 69.1084 21.7328 69.2051 21.7328C69.29 21.7328 69.375 21.7025 69.4424 21.6415L73.3886 18.0814C73.5342 17.9501 73.5459 17.7265 73.414 17.581Z" fill="white"/>
<path d="M72.8155 19.568L69.8018 22.0758C69.6514 22.2013 69.6309 22.4244 69.7559 22.5748C69.8262 22.6593 69.9268 22.7027 70.0284 22.7027C70.1084 22.7027 70.1885 22.6759 70.2549 22.6207L73.2686 20.1129C73.419 19.9874 73.4395 19.7643 73.3145 19.6139C73.1885 19.4625 72.9659 19.443 72.8155 19.568Z" fill="white"/>
<path d="M70.6738 23.6061C70.7432 23.6983 70.8496 23.7467 70.9561 23.7467C71.0313 23.7467 71.1065 23.7232 71.1699 23.6744L77.4971 18.878C77.6533 18.7599 77.6836 18.5377 77.5654 18.3819C77.4473 18.2247 77.2236 18.1959 77.0693 18.3136L70.7422 23.11C70.5859 23.2281 70.5557 23.4503 70.6738 23.6061Z" fill="white"/>
<path d="M54.877 12.8281C54.9131 12.8398 54.9502 12.8457 54.9864 12.8457C55.1358 12.8457 55.2745 12.7505 55.3233 12.6006L58.5684 2.61426C58.6289 2.42823 58.5274 2.22852 58.3409 2.16797C58.1543 2.10645 57.9551 2.20948 57.8946 2.39551L54.6495 12.3818C54.5889 12.5679 54.6905 12.7676 54.877 12.8281Z" fill="white"/>
<path d="M56.0469 13.2081C56.0879 13.2227 56.1289 13.23 56.1699 13.23C56.3145 13.23 56.4492 13.1412 56.502 12.9981L59.6211 4.54839C59.6895 4.3648 59.5957 4.16118 59.4121 4.09331C59.2256 4.02837 59.0254 4.12017 58.957 4.30327L55.8379 12.753C55.7695 12.9366 55.8633 13.1402 56.0469 13.2081Z" fill="white"/>
<path d="M57.459 13.649C57.5996 13.649 57.7324 13.5645 57.7881 13.4264L59.0781 10.2013C59.1504 10.0191 59.0625 9.81308 58.8809 9.74032C58.6992 9.66757 58.4932 9.75595 58.4199 9.93759L57.1299 13.1627C57.0576 13.3448 57.1455 13.5509 57.3272 13.6236C57.3701 13.6407 57.415 13.649 57.459 13.649Z" fill="white"/>
<path d="M58.4199 14.0816C58.4677 14.1041 58.5185 14.1149 58.5693 14.1149C58.7021 14.1149 58.83 14.0392 58.8906 13.9098L60.6337 10.1651C60.7167 9.9879 60.6396 9.77696 60.4619 9.69444C60.289 9.61387 60.0751 9.68858 59.9912 9.86631L58.248 13.6109C58.165 13.7882 58.2421 13.9991 58.4199 14.0816Z" fill="white"/>
<path d="M59.5889 14.6715C59.6396 14.6954 59.6924 14.7071 59.7441 14.7071C59.875 14.7071 60.0019 14.6334 60.0625 14.5074L63.2383 7.96882C63.3242 7.79304 63.251 7.58063 63.0752 7.49518C62.8965 7.41022 62.6855 7.48298 62.6016 7.65925L59.4258 14.1978C59.3398 14.3736 59.4131 14.586 59.5889 14.6715Z" fill="white"/>
<path d="M63.1699 10.1309L60.5166 14.7369C60.419 14.9063 60.4766 15.1231 60.6465 15.2208C60.7022 15.253 60.7627 15.2682 60.8233 15.2682C60.9453 15.2682 61.0645 15.2042 61.1299 15.0904L63.7832 10.4845C63.8809 10.315 63.8233 10.0982 63.6533 10.0006C63.4844 9.90243 63.2676 9.96054 63.1699 10.1309Z" fill="white"/>
<path d="M63.6972 12.0757L61.6074 15.3916C61.5029 15.5571 61.5527 15.7759 61.7187 15.8804C61.7773 15.9175 61.8427 15.9351 61.9072 15.9351C62.0244 15.9351 62.1396 15.8765 62.207 15.7695L64.2968 12.4536C64.4013 12.2881 64.3515 12.0694 64.1855 11.9649C64.0205 11.8609 63.8017 11.9102 63.6972 12.0757Z" fill="white"/>
<path d="M62.9092 16.5787C62.9707 16.6217 63.041 16.6422 63.1113 16.6422C63.2226 16.6422 63.333 16.589 63.4023 16.4898L67.9375 9.97226C68.0488 9.8121 68.0097 9.59091 67.8486 9.4791C67.6894 9.36777 67.4687 9.40683 67.3554 9.56796L62.8203 16.0855C62.709 16.2457 62.748 16.4669 62.9092 16.5787Z" fill="white"/>
<path d="M44.6045 11.7832C26.5068 11.7832 11.7832 26.5068 11.7832 44.6045C11.7832 62.7031 26.5068 77.4268 44.6045 77.4268C62.7031 77.4268 77.4268 62.7031 77.4268 44.6045C77.4268 26.5068 62.7031 11.7832 44.6045 11.7832ZM44.6045 76.7178C26.8975 76.7178 12.4922 62.3115 12.4922 44.6045C12.4922 26.8975 26.8975 12.4922 44.6045 12.4922C62.3115 12.4922 76.7178 26.8975 76.7178 44.6045C76.7178 62.3115 62.3115 76.7178 44.6045 76.7178Z" fill="white"/>
</svg>
