<svg width="137" height="51" viewBox="0 0 137 51" fill="none" xmlns="http://www.w3.org/2000/svg">
<path d="M17.6973 0.00159133C26.7919 0.00159133 34.3992 6.77828 35.4325 15.7112C35.5083 16.2193 35.5469 16.7322 35.548 17.246C35.5171 18.1378 35.6004 18.887 36.252 19.6564C37.1133 20.676 36.8244 21.9431 36.3179 23.0905C35.8113 24.2379 35.0657 25.2077 33.8927 25.7592C32.9455 26.2044 32.005 26.0134 31.3883 25.17C30.1791 23.5249 30.0058 21.7185 30.7662 19.8434C30.9066 19.4863 31.129 19.1674 31.4154 18.9124C31.7018 18.6575 32.0442 18.4736 32.4148 18.3759C32.8394 18.2588 32.8864 18.0355 32.8877 17.6629C32.9146 10.5473 27.4933 4.10822 20.4785 2.93798C12.4332 1.59286 5.02742 6.40703 3.10477 14.2652C2.20323 17.9494 2.67483 21.4911 4.39997 24.866C4.50074 25.0638 4.61897 25.2548 4.72109 25.4538C5.09191 26.1829 4.90112 26.9523 4.2589 27.3262C3.58711 27.7163 2.80112 27.4877 2.3779 26.7519C1.50658 25.2685 0.86554 23.6611 0.476743 21.9848C-1.81539 11.9852 4.3731 2.35823 14.4136 0.328454C15.4922 0.0949055 16.5939 -0.014757 17.6973 0.00159133Z" fill="#F16533"/>
<path d="M17.7913 51.0015C16.8508 49.6268 15.9614 48.3234 15.076 47.0146C12.7382 43.5612 10.4026 40.1034 8.06924 36.6411C7.98191 36.5066 7.82471 36.3801 7.82471 36.2496C7.82471 35.2906 7.1368 35.1036 6.41934 34.8951C6.07001 34.7942 5.8322 34.505 5.63335 34.1983C4.77212 32.8694 4.03047 31.4772 3.26329 30.085C3.18267 29.9397 3.01204 29.7595 3.22835 29.6182C3.47557 29.4582 3.51991 29.742 3.60052 29.8644C4.31665 30.9405 5.01665 32.0314 5.73412 33.1075C5.85638 33.289 5.97058 33.6563 6.27154 33.4491C6.5725 33.242 6.27154 33.012 6.15062 32.8209C5.47884 31.7919 4.79227 30.7764 4.13526 29.7366C4.02509 29.5604 3.56828 29.3465 4.05331 29.064C4.50072 28.795 4.52356 29.2618 4.64851 29.4434C5.34448 30.4549 6.00417 31.4893 6.68133 32.5129C6.81569 32.7053 6.92855 33.051 7.21876 32.8465C7.50897 32.642 7.2107 32.4066 7.08441 32.2156C6.40321 31.1678 5.70859 30.1294 5.03143 29.0788C4.91051 28.8919 4.57461 28.7009 4.98843 28.4426C5.40225 28.1843 5.42912 28.5986 5.54602 28.7708C6.23527 29.785 6.88959 30.8208 7.58018 31.8377C7.71454 32.0327 7.82203 32.4389 8.1512 32.2116C8.43604 32.0152 8.12299 31.7771 8.00341 31.5915C7.31013 30.5195 6.60206 29.4595 5.91147 28.3928C5.82548 28.2583 5.53661 28.0996 5.81742 27.9046C6.04314 27.7485 6.12644 28.0054 6.22049 28.1278C7.15024 29.3546 8.07999 30.5827 8.98825 31.8242C9.19534 32.0906 9.33562 32.4028 9.39733 32.7347C9.45905 33.0666 9.4404 33.4084 9.34295 33.7316C9.24218 34.0786 9.2798 34.3181 9.66809 34.4566C9.95159 34.5575 10.0846 34.8453 10.2472 35.0848C12.6737 38.6717 15.1024 42.2547 17.5334 45.8336C17.6073 45.9425 17.6932 46.0434 17.8021 46.1779C20.2805 42.4878 22.7473 38.8175 25.2025 35.1668C27.019 32.4649 28.8373 29.7631 30.6574 27.0612C31.1464 26.3375 31.8975 26.1559 32.5612 26.581C33.2249 27.006 33.3674 27.8037 32.8917 28.5139C27.8802 35.9806 22.8673 43.4487 17.7913 51.0015Z" fill="#073956"/>
<path d="M24.7524 28.3069L23.8871 27.7809C23.8871 27.6962 23.8871 27.6101 23.8871 27.5254C23.8576 27.1797 23.8871 26.6739 23.5754 26.5838C23.3308 26.5212 23.0726 26.538 22.8381 26.6318C22.6037 26.7256 22.405 26.8915 22.2708 27.1057C22.0774 27.0882 22.0317 26.9712 22.0518 26.8676C22.2023 26.1385 21.8342 26.0417 21.2134 26.0605C19.7691 26.117 18.3221 26.1211 16.8764 26.1157C16.4975 26.1157 16.4075 26.2192 16.4048 26.5999C16.3927 28.2033 15.1136 29.231 13.547 28.931C13.1816 28.8597 12.8188 28.779 12.4547 28.7037C12.4735 28.3001 12.1107 28.1132 11.9549 27.8092C11.948 27.7879 11.9395 27.7672 11.9294 27.7473C11.748 27.5025 11.8662 27.0008 11.5881 26.9604C11.3551 26.9177 11.1149 26.9401 10.8938 27.025C10.6727 27.11 10.4792 27.2542 10.3345 27.442C10.2983 27.4877 10.223 27.5052 10.1437 27.5482C9.93006 27.1496 9.8818 26.6828 10.0094 26.2488C10.2647 25.431 10.2338 24.5782 10.4353 23.7631C10.5844 23.1551 10.8021 22.5632 11.2764 22.1274C11.6109 21.8207 11.3879 21.3432 11.8272 20.9531C10.4837 20.9531 9.30536 20.9531 8.12302 20.9531C7.49422 20.9531 7.44048 20.8428 7.71994 20.2577L10.5818 20.2429H10.8102H12.1295C12.3553 20.2873 12.6347 20.1985 12.7395 20.524C12.8282 20.7931 13.0754 20.6908 13.2541 20.6922C14.4365 20.7016 15.6188 20.6922 16.7998 20.6922C17.6059 20.6922 17.7094 20.8912 17.3171 21.5773C17.0887 21.9892 16.9936 22.4619 17.0449 22.9303C17.0962 23.3986 17.2912 23.8395 17.6033 24.1922C17.9335 24.5591 18.3696 24.8141 18.8512 24.9216C19.3327 25.0291 19.8357 24.9838 20.2904 24.7921C21.2309 24.3885 21.7683 23.5586 21.6608 22.5646C21.5265 21.2854 20.8332 20.3344 19.8564 19.5515C19.7342 19.4547 19.4063 19.4574 19.5702 19.148L19.839 19.0135L20.0821 18.879L20.3509 18.7444C20.5672 18.6503 20.8184 18.5978 20.9058 18.3409C20.9064 18.3092 20.899 18.2778 20.8845 18.2497C20.87 18.2215 20.8486 18.1974 20.8225 18.1795C20.5537 18.1324 20.5645 18.4969 20.3374 18.5306C20.2985 18.5306 20.2662 18.579 20.2326 18.6046L19.9639 18.7391L19.6952 18.8736L19.4265 19.0081C19.1309 19.1614 18.842 19.3296 18.537 19.4641C18.4585 19.5107 18.3648 19.5244 18.2763 19.5022C18.1877 19.48 18.1115 19.4238 18.0641 19.3457C18.0391 19.3075 18.0232 19.2641 18.0175 19.2188C18.0118 19.1735 18.0165 19.1275 18.0313 19.0843C18.0461 19.0411 18.0705 19.0018 18.1027 18.9695C18.135 18.9372 18.1741 18.9127 18.2173 18.8978C18.7345 18.7996 18.8702 18.349 19.1766 18.0571C19.7651 17.4975 20.5202 17.0119 21.4096 16.9528C21.6985 16.9326 21.9927 16.9528 22.2762 16.9043C22.8607 16.8102 23.2046 16.9864 23.3202 17.6132C23.4706 18.431 23.3202 18.8857 22.6752 19.1641C23.6023 19.7788 24.3359 20.5348 24.743 21.5652C24.8303 21.7844 25.0695 21.7831 25.2428 21.8678C26.3177 22.3937 27.3038 23.0528 27.9085 24.1195C28.5131 25.1862 28.7321 26.3686 28.071 27.4971C27.4449 28.5665 26.3902 28.7212 25.2589 28.5732C25.1218 28.4339 24.9448 28.3408 24.7524 28.3069ZM25.9361 27.7971C26.499 27.7621 26.9639 27.5092 27.1816 26.9227C27.2474 26.7452 27.4369 26.4479 27.1037 26.3847C26.8726 26.3363 26.5662 26.2058 26.3607 26.5865C25.9428 27.3707 25.5451 27.3505 25.1017 26.5421C24.9163 26.2004 24.6207 26.339 24.4179 26.3995C24.18 26.4708 24.3534 26.7035 24.4179 26.8447C24.5488 27.1346 24.7621 27.3795 25.0311 27.5488C25.3002 27.7181 25.613 27.8045 25.9307 27.7971H25.9361ZM13.899 28.1522C14.4942 28.1024 14.9739 27.9047 15.1687 27.3236C15.2157 27.1891 15.4777 26.9201 15.1539 26.834C14.9349 26.7748 14.6326 26.6752 14.4324 26.9685C13.8829 27.7634 13.6491 27.7755 13.1775 26.994C12.9841 26.6752 12.6831 26.7734 12.4816 26.8461C12.1914 26.9496 12.4278 27.1743 12.5057 27.3276C12.8013 27.9006 13.3253 28.093 13.899 28.1522Z" fill="#073956"/>
<path d="M7.71731 19.1909C7.67969 18.4834 8.05455 18.2265 8.69812 18.5063C9.06222 18.6637 9.41961 18.6018 9.77297 18.4417C10.0793 18.3072 10.3547 18.4753 10.5684 18.6287C10.7471 18.7632 10.5858 18.9959 10.5106 19.1788L7.71731 19.1909Z" fill="#F16533"/>
<path d="M10.5872 20.2388L7.72537 20.2536C7.69716 20.0465 7.61117 19.8326 7.80867 19.6577L10.4891 19.647C10.6906 19.8151 10.6409 20.0263 10.5872 20.2388Z" fill="#F16533"/>
<path d="M11.9575 27.8198C12.1134 28.1238 12.4762 28.3108 12.4573 28.7143C11.666 28.257 10.7739 28.5717 9.94487 28.335H11.5867C10.7806 27.883 9.88978 28.1534 9.04736 27.9557L11.9575 27.8198Z" fill="#F16533"/>
<path d="M10.489 19.6471L7.80858 19.6578C7.63795 19.5314 7.67422 19.3632 7.71722 19.1911L10.5092 19.179C10.708 19.3431 10.6784 19.5058 10.489 19.6471Z" fill="#073956"/>
<path d="M10.8101 19.1937C10.8544 18.9543 10.6166 18.6772 11.0654 18.5023C11.4805 18.3409 11.8124 18.462 12.1053 18.6207C12.3418 18.7552 12.1349 19.0014 11.9884 19.1695L10.8101 19.1937Z" fill="#F16533"/>
<path d="M12.1349 20.2402H10.8156C10.7981 20.0384 10.7014 19.8218 10.9136 19.6604L12.0718 19.6497C12.1363 19.7324 12.1764 19.8315 12.1876 19.9359C12.1988 20.0402 12.1805 20.1456 12.1349 20.2402Z" fill="#F16533"/>
<path d="M23.8845 27.5254C23.8845 27.6101 23.8845 27.6962 23.8845 27.781C23.7233 28.0352 23.562 28.2329 23.1912 28.1737C22.8204 28.1146 22.4536 28.1616 21.892 28.1616C22.5033 27.8576 23.0112 28.05 23.5043 27.8805C23.1455 27.6612 22.7962 27.8428 22.295 27.6707C22.9211 27.4662 23.4129 27.5604 23.8845 27.5254Z" fill="#F16533"/>
<path d="M24.7524 28.3069C24.9445 28.3387 25.1219 28.4294 25.2603 28.5665L23.1952 28.5342C23.1465 28.5359 23.0983 28.5242 23.0557 28.5005C23.0131 28.4768 22.9777 28.442 22.9534 28.3997L24.7524 28.3069Z" fill="#F16533"/>
<path d="M12.0718 19.6469L10.9137 19.6577C10.7188 19.5393 10.7793 19.3618 10.8102 19.1936L11.9885 19.1694C12.2975 19.2797 12.2169 19.4573 12.0718 19.6469Z" fill="#073956"/>
<path d="M21.9779 27.762L21.8435 27.6786C21.8838 27.6625 21.9255 27.6275 21.9617 27.6329C22.014 27.6489 22.0634 27.673 22.1082 27.7042L21.9779 27.762Z" fill="#F16533"/>
<path d="M45.8693 14.3943C47.9652 14.3943 50.0612 14.4347 52.1558 14.3943C52.9217 14.3809 53.2629 14.4912 53.2038 15.4018C53.134 16.4981 53.361 17.6334 51.6318 17.3536C51.1038 17.2675 51.1549 17.7746 51.1253 18.1055C50.9829 19.6618 50.8136 21.2181 50.7397 22.7771C50.6591 24.4746 49.3814 23.5761 48.6437 23.7792C47.7032 24.0388 47.8228 23.2976 47.8242 22.7219C47.8242 21.6458 47.8242 20.5778 47.8242 19.5044C47.8242 17.5177 47.8242 17.5177 45.8693 17.6212V14.3943Z" fill="#073956"/>
<path d="M59.0968 18.7082C59.0968 17.4102 59.1237 16.1108 59.0847 14.8074C59.0632 14.0958 59.3427 13.8658 60.0252 13.886C61.4584 13.9218 62.8884 13.9218 64.3153 13.886C64.9871 13.8685 65.3901 14.0514 65.2208 14.7791C65.0784 15.4073 65.6736 16.4471 64.3475 16.4699C63.8997 16.478 63.4518 16.4977 63.0039 16.5291C62.7097 16.5506 62.3201 16.4767 62.312 16.9434C62.3039 17.4102 62.6895 17.3389 62.9838 17.3712C63.6986 17.4492 64.5343 17.0403 64.9306 18.1876C65.0556 18.5468 66.0055 18.3571 66.5684 18.2132C67.1314 18.0693 66.9312 17.5689 66.9514 17.1976C66.9796 16.7067 67.0279 16.2009 66.9514 15.718C66.7538 14.5585 67.3061 14.3003 68.3406 14.2761C70.3197 14.229 70.3251 14.1806 70.2982 16.2265C70.2686 18.4204 70.2015 20.6142 70.2001 22.8081C70.2001 23.6582 69.9314 23.9918 69.0312 23.942C67.65 23.8667 66.2621 23.9151 64.8769 23.9246C64.3327 23.9246 63.7778 23.8721 64.0318 23.1498C64.2427 22.5485 63.5105 21.4805 64.8258 21.3877C65.3633 21.35 65.9007 21.3419 66.43 21.2935C66.4856 21.2937 66.5405 21.2823 66.5914 21.2602C66.6424 21.2381 66.6882 21.2057 66.726 21.1651C66.7639 21.1244 66.7929 21.0763 66.8114 21.0239C66.8298 20.9715 66.8372 20.9158 66.8331 20.8604C66.8251 20.5739 66.6074 20.5026 66.375 20.4878C65.55 20.4394 64.8164 20.5712 64.1782 19.5946C63.6838 18.8373 62.2972 19.6552 62.2811 20.6707C62.2811 20.8496 62.2811 21.0285 62.2811 21.2088C62.2811 23.5816 62.2811 23.5506 59.946 23.5587C59.2057 23.5587 58.9181 23.3852 58.9558 22.5969C59.0176 21.3016 58.9719 19.9995 58.9719 18.6961L59.0968 18.7082Z" fill="#F16533"/>
<path d="M81.9267 18.466C81.9267 17.5836 81.9778 16.6985 81.9133 15.8229C81.8394 14.8059 82.1672 14.4038 83.2568 14.4132C85.1244 14.4307 85.1379 14.3621 85.0599 16.178C84.9686 18.279 84.8248 20.3788 84.7563 22.4798C84.7321 23.256 84.4876 23.5344 83.6666 23.5815C81.1649 23.7241 81.1676 23.7671 80.2607 21.4481C80.1902 21.2359 80.1054 21.0287 80.0067 20.828C79.8509 20.5482 79.8925 20.0021 79.3914 20.1299C79.0192 20.2254 79.2113 20.668 79.1845 20.945C79.1176 21.5254 79.0897 22.1096 79.1012 22.6937C79.1348 23.5882 78.8217 23.9299 77.8651 23.9043C75.968 23.8438 75.9653 23.9043 76.0231 21.9646C76.0875 19.7735 76.2044 17.5809 76.1883 15.3911C76.1883 14.5221 76.4812 14.3836 77.2538 14.3647C79.6305 14.3015 79.6252 14.2679 80.6329 16.4712C80.9472 17.1586 81.2899 17.8311 81.6204 18.509L81.9267 18.466Z" fill="#073956"/>
<path d="M69.7433 35.7385C69.7433 34.5279 69.8011 33.3173 69.7218 32.1188C69.6681 31.2969 70.051 30.9902 70.7443 30.8746C72.155 30.6392 73.5658 30.4065 74.9873 30.8315C77.3399 31.535 78.3126 34.4714 76.6439 36.1918C75.9547 36.9034 75.9049 37.3661 76.4518 38.0682C76.6399 38.313 76.7326 38.6291 76.9113 38.8834C77.3587 39.5183 77.3614 39.9231 76.4451 39.9756C76.1332 39.9973 75.8255 40.0602 75.5301 40.1626C74.6823 40.4464 74.2591 40.1774 73.9769 39.299C73.774 38.6655 73.8426 37.4683 72.8927 37.6243C72.061 37.7588 72.5339 38.8269 72.4896 39.4645C72.4452 40.102 72.241 40.2715 71.6189 40.2998C69.5391 40.3845 69.5445 40.4114 69.5754 38.2821C69.5875 37.432 69.5754 36.5819 69.5754 35.7331L69.7433 35.7385ZM72.6441 34.2118C72.8685 34.5951 72.1859 35.413 73.1882 35.378C73.86 35.3538 74.376 34.9745 74.3975 34.2051C74.4136 33.4854 74.0978 32.9729 73.3226 32.9433C72.2679 32.903 72.8806 33.776 72.6441 34.2118Z" fill="#073956"/>
<path d="M102.783 19.2192C102.783 17.9642 102.783 16.7092 102.783 15.4529C102.783 15.0251 102.829 14.6889 103.354 14.5624C104.89 14.1898 106.43 13.9329 107.983 14.3956C110.611 15.1771 111.389 18.0799 109.419 20.0034C108.778 20.6289 109.113 20.9786 109.385 21.4736C110.46 23.4173 110.449 23.3904 108.336 23.7805C107.62 23.915 107.24 23.7348 107.096 23.0165C107.042 22.7526 106.948 22.4989 106.815 22.2646C106.581 21.8489 106.759 21.0257 105.965 21.14C105.132 21.2611 105.676 22.0171 105.515 22.4596C105.353 22.9021 105.764 23.6406 105.215 23.7738C104.457 23.9581 103.615 23.876 102.822 23.7832C102.443 23.7401 102.595 23.2707 102.594 22.9761C102.594 21.7225 102.594 20.4702 102.594 19.2165L102.783 19.2192ZM105.637 17.8741C105.881 18.2279 105.296 18.9798 106.174 18.9502C106.905 18.93 107.437 18.5198 107.422 17.6858C107.41 17.028 107.121 16.5586 106.408 16.5209C105.242 16.4604 105.954 17.4168 105.637 17.8687V17.8741Z" fill="#073956"/>
<path d="M113.935 35.7991C113.935 34.5011 113.949 33.2017 113.928 31.8983C113.92 31.3602 114.116 31.0912 114.654 30.9715C116.105 30.65 117.548 30.3931 119.026 30.798C121.722 31.5351 122.598 34.4796 120.603 36.4475C119.879 37.1617 120.435 37.5235 120.64 38.036C120.868 38.5996 121.663 39.2897 121.334 39.6394C120.786 40.2205 119.777 40.1331 118.948 40.2595C118.629 40.3079 118.477 40.0752 118.389 39.7968C118.34 39.5787 118.262 39.3682 118.156 39.1713C117.791 38.6333 118.046 37.4348 117.099 37.6083C116.383 37.7428 116.748 38.7503 116.715 39.3569C116.623 41.0262 115.398 40.0631 114.699 40.2622C113.917 40.4882 113.744 40.0066 113.773 39.2937C113.823 38.1302 113.787 36.964 113.787 35.7964L113.935 35.7991ZM116.818 34.302C117.001 34.6813 116.406 35.4279 117.329 35.3969C118.08 35.3727 118.612 34.9651 118.625 34.146C118.636 33.4842 118.296 33.0053 117.608 32.9582C116.475 32.8721 117.091 33.846 116.818 34.302Z" fill="#073956"/>
<path d="M99.1648 35.826C99.1648 34.6154 99.1916 33.4048 99.1554 32.2036C99.1325 31.4692 99.4536 31.1396 100.152 31.0831C100.73 31.036 101.304 30.923 101.883 30.9015C104.203 30.8168 105.926 31.9211 106.472 33.8137C107.095 35.9726 106.122 38.3804 104.188 39.4632C102.861 40.2084 101.413 40.3725 99.9225 40.3819C99.2508 40.3819 98.982 40.164 99.0237 39.4403C99.0882 38.2364 99.0412 37.0258 99.0412 35.8179L99.1648 35.826ZM102.121 37.697C103.744 37.159 104.421 35.4453 103.517 34.2603C103.292 33.9657 103.009 33.733 102.622 33.7693C102.137 33.8137 102.303 34.2374 102.285 34.5024C102.216 35.5596 102.178 36.6196 102.127 37.697H102.121Z" fill="#073956"/>
<path d="M92.58 14.0781C92.9361 14.1104 93.2961 14.1171 93.6468 14.1804C94.6518 14.3606 95.2846 16.1738 94.6384 16.9903C94.4664 17.2082 94.2501 17.1477 94.0311 17.106C93.7283 17.0303 93.4202 16.9781 93.1094 16.9499C92.5142 16.9351 91.5643 16.7159 91.524 17.4221C91.4796 18.1686 92.4201 17.8539 92.9468 17.8969C94.0055 17.9816 94.9044 18.3341 95.2309 19.4196C95.6339 20.7459 95.4378 21.9995 94.4126 23.0151C93.1322 24.2862 90.1481 24.5364 88.7965 23.3688C88.075 22.746 88.5278 21.7547 88.6917 20.9987C88.8717 20.1392 89.4979 20.9046 89.8593 20.9678C90.4703 21.0877 91.0923 21.1418 91.7147 21.1292C92.0036 21.1185 92.2616 20.9947 92.2965 20.6867C92.3368 20.3181 91.9982 20.3073 91.7591 20.2307C91.6305 20.1949 91.4993 20.1693 91.3668 20.154C89.1633 19.8271 88.3558 19.051 88.4243 17.3212C88.4902 15.6519 89.8297 14.3189 91.6489 14.1279C91.9539 14.0916 92.267 14.0929 92.58 14.0781Z" fill="#073956"/>
<path d="M61.401 35.7817C61.401 34.5253 61.401 33.269 61.401 32.0154C61.401 31.5809 61.3177 31.1289 61.9572 30.9863C63.5883 30.6218 65.214 30.3622 66.8451 30.9541C68.2693 31.4706 69.0876 32.5749 69.1064 33.9631C69.1265 35.3728 68.3499 36.4381 66.8908 36.9923C66.6826 37.0716 66.4622 37.2021 66.254 37.19C64.6188 37.0932 64.1781 37.9446 64.4442 39.4041C64.5973 40.2488 64.2937 40.6564 63.3787 40.5192C62.9773 40.4671 62.5709 40.4671 62.1695 40.5192C61.5138 40.5918 61.3217 40.3241 61.3419 39.6852C61.3835 38.3858 61.354 37.0851 61.354 35.7844L61.401 35.7817ZM64.5933 34.4662C64.7613 34.7432 64.3528 35.3728 65.0595 35.3203C65.7004 35.2732 66.1344 34.8778 66.1277 34.1729C66.1169 33.569 65.7394 33.273 65.1657 33.3026C64.334 33.3457 64.776 34.0424 64.5893 34.4662H64.5933Z" fill="#073956"/>
<path d="M86.1671 35.6781C86.1604 38.2594 84.2727 40.2367 81.8596 40.1923C79.546 40.1506 77.6475 38.1572 77.6865 35.8099C77.7282 33.3444 79.6481 31.3711 81.9859 31.398C84.4433 31.4235 86.1738 33.1951 86.1671 35.6781ZM83.2019 35.9472C83.2019 35.0849 82.8579 34.4675 82.0141 34.3962C81.0736 34.3249 80.6168 34.9706 80.6249 35.8261C80.6249 36.5605 80.8829 37.2788 81.8099 37.3326C82.7948 37.3864 83.1038 36.7381 83.2019 35.9445V35.9472Z" fill="#073956"/>
<path d="M110.369 14.7642C113.475 14.3365 113.474 14.3365 114.163 17.2231C114.338 17.9535 114.522 18.6812 114.791 19.7788C115.148 18.2279 115.504 17.0281 115.683 15.804C115.852 14.6459 116.355 14.3486 117.509 14.4428C118.786 14.545 119.179 14.7925 118.727 16.1578C118.027 18.275 117.518 20.4621 117.029 22.6426C116.807 23.6326 116.399 24.0307 115.348 24.0496C113.357 24.0832 113.358 24.1518 112.75 22.2364C111.964 19.7627 111.176 17.2944 110.369 14.7642Z" fill="#073956"/>
<path d="M90.128 35.927C90.7756 34.4716 90.9704 33.2058 91.1733 31.9778C91.3439 30.9447 91.8007 30.7201 92.6996 30.9111C93.0057 30.9753 93.3179 31.0055 93.6307 31.0012C94.3119 30.9877 94.5564 31.129 94.324 31.9266C93.6025 34.4084 92.9535 36.913 92.3583 39.4283C92.1769 40.1937 91.837 40.4789 91.0913 40.4479C90.5562 40.4336 90.0206 40.4556 89.4884 40.5138C88.9631 40.5636 88.7078 40.3928 88.5479 39.8413C87.7481 37.1977 86.9128 34.5657 86.0422 31.9455C85.8272 31.2998 85.8984 31.1263 86.6025 31.0496C88.9134 30.7981 88.9094 30.7658 89.4629 33.0928C89.6564 33.9389 89.8552 34.7796 90.128 35.927Z" fill="#073956"/>
<path d="M107.315 35.6901C107.315 34.3033 107.34 32.9151 107.303 31.5297C107.285 30.9284 107.51 30.7737 108.074 30.7858C109.594 30.8167 111.113 30.7993 112.633 30.7939C113.111 30.7939 113.628 30.806 113.401 31.4839C113.197 32.0946 113.904 33.1128 112.664 33.2783C112.134 33.3482 111.596 33.3617 111.061 33.4128C110.792 33.4357 110.499 33.4639 110.479 33.8163C110.451 34.2858 110.815 34.3087 111.117 34.2589C112.4 34.0437 112.461 34.6947 112.296 35.7156C112.177 36.4689 111.714 36.3452 111.241 36.399C110.849 36.4434 110.23 36.2026 110.259 36.937C110.283 37.6015 110.851 37.3257 111.187 37.3405C112.934 37.4226 113.454 38.2108 112.876 39.8774C112.763 40.2029 112.59 40.281 112.297 40.281C110.779 40.324 109.26 40.3563 107.744 40.4343C107.168 40.4626 107.082 40.1962 107.089 39.7147C107.111 38.3696 107.097 37.0244 107.097 35.6861L107.315 35.6901Z" fill="#073956"/>
<path d="M130.85 19.2005C130.85 17.8554 130.876 16.5183 130.838 15.1799C130.821 14.5289 131.061 14.3258 131.693 14.3406C133.208 14.3756 134.727 14.354 136.243 14.35C136.669 14.35 137.149 14.35 136.957 14.9607C136.758 15.5889 137.449 16.552 136.339 16.8264C135.828 16.9515 135.273 16.8896 134.741 16.9461C134.407 16.981 133.961 16.938 134.013 17.4908C134.059 17.9724 134.469 17.8836 134.732 17.8365C136.157 17.5837 135.92 18.5091 135.848 19.3511C135.77 20.2551 135.054 19.8354 134.611 19.9403C134.223 20.0318 133.73 19.9739 133.805 20.5631C133.875 21.1011 134.361 20.8752 134.667 20.8913C136.703 20.9976 136.683 20.9868 136.449 23.0583C136.391 23.5681 136.333 23.8653 135.706 23.8653C134.28 23.8653 132.854 23.9272 131.429 23.9999C130.817 24.0335 130.673 23.7793 130.686 23.217C130.719 21.8719 130.697 20.5348 130.697 19.1938L130.85 19.2005Z" fill="#073956"/>
<path d="M96.0975 19.1709C96.0975 17.9173 96.1391 16.6636 96.0827 15.414C96.0477 14.6312 96.217 14.2841 97.0957 14.3379C98.5199 14.4133 99.9522 14.3716 101.38 14.3514C101.925 14.3514 102.442 14.3635 102.238 15.102C102.067 15.718 102.749 16.7564 101.444 16.8506C100.997 16.8842 100.549 16.8775 100.107 16.9353C99.7896 16.9784 99.318 16.8398 99.3005 17.3913C99.2777 17.9684 99.7466 17.8971 100.06 17.8393C101.411 17.5931 101.214 18.4634 101.149 19.2785C101.081 20.1407 100.409 19.8394 99.9401 19.9511C99.5961 20.0304 99.0466 19.8166 99.0547 20.4663C99.0641 21.1536 99.6163 20.851 99.9468 20.8967C100.304 20.9368 100.664 20.9368 101.022 20.8967C101.589 20.8496 101.856 21.0487 101.786 21.6513C101.732 22.0524 101.718 22.458 101.744 22.8619C101.808 23.5896 101.551 23.8936 100.785 23.8842C99.4913 23.8681 98.1948 23.9071 96.9049 23.9985C96.1606 24.051 95.8677 23.8976 95.9241 23.057C96.0115 21.7656 95.947 20.4649 95.947 19.1696L96.0975 19.1709Z" fill="#073956"/>
<path d="M129.859 20.3734C129.9 20.4635 129.941 20.5079 129.933 20.5442C129.691 21.5732 130.528 22.9654 129.05 23.5734C127.26 24.3119 125.315 23.7913 124.205 22.3883C122.972 20.8267 122.996 18.2965 124.26 16.3542C125.369 14.6539 127.392 13.8926 129.401 14.3365C130.031 14.471 130.189 14.7158 130.103 15.3346C129.946 16.4685 130.012 17.558 128.246 17.4625C127.108 17.402 126.298 18.7552 126.594 19.7667C126.957 21.0083 127.907 20.8953 128.878 20.6531C129.208 20.5671 129.536 20.4648 129.859 20.3734Z" fill="#073956"/>
<path d="M94.9232 35.6646C94.9232 34.454 94.9568 33.2434 94.9111 32.0328C94.8842 31.3226 95.161 31.141 95.8381 31.0912C98.4151 30.9257 98.4286 30.9015 98.2566 33.5218C98.1222 35.4413 97.9637 37.3581 97.7904 39.2749C97.6453 40.889 96.3621 40.0039 95.6071 40.1922C94.6854 40.4209 94.9474 39.6111 94.9353 39.1471C94.9044 37.9943 94.9232 36.8295 94.9232 35.6646Z" fill="#073956"/>
<path d="M53.7319 19.2449C53.7319 18.0343 53.7641 16.8318 53.7198 15.6266C53.6943 14.9258 53.963 14.7213 54.6401 14.6729C57.2816 14.4832 57.2991 14.4603 57.1257 17.0685C56.9914 19.0284 56.8181 20.9855 56.634 22.9413C56.4862 24.4922 55.2582 23.556 54.5501 23.786C53.7709 24.0376 53.7117 23.4686 53.7252 22.8633C53.7507 21.6581 53.7319 20.4474 53.7319 19.2449Z" fill="#073956"/>
<path d="M119.463 19.3336V17.055C119.463 14.701 120.146 14.1778 122.534 14.6042C123.001 14.6876 122.996 14.9176 122.972 15.2391C122.774 17.8661 122.598 20.4944 122.358 23.1187C122.258 24.2137 121.314 23.6379 120.756 23.7819C119.739 24.0509 119.34 23.6353 119.442 22.5497C119.541 21.4858 119.463 20.407 119.463 19.3336Z" fill="#073956"/>
<path d="M71.9158 19.3294C71.9158 18.213 72.0005 17.0885 71.8917 15.9841C71.7828 14.8798 72.2464 14.6605 73.2352 14.6552C75.5556 14.6444 75.5287 14.5946 75.2922 16.9674C75.1028 18.8761 74.9483 20.7902 74.8475 22.7043C74.7548 24.4368 73.4448 23.6136 72.6481 23.7912C71.6082 24.0225 71.94 23.1657 71.9252 22.6761C71.8917 21.5623 71.9158 20.4472 71.9158 19.3294Z" fill="#073956"/>
<path d="M68.4695 13.7069C67.5572 10.5499 67.5572 10.5499 65.2584 10.554C63.3451 10.554 63.3451 10.554 62.5242 13.4513C61.6347 11.7834 62.5336 10.1114 64.3823 10.0119C64.9198 9.98364 65.4572 10.0011 65.9946 10.0119C68.2881 10.024 69.0848 11.1095 68.4695 13.7069Z" fill="#073956"/>
</svg>
